{"glyphs":{"0":{"ha":700,"x_min":56,"x_max":644,"o":"m 325 -7 q 222 15 271 -7 q 135 74 172 36 q 76 163 97 113 q 56 268 56 213 l 56 656 q 76 761 56 711 q 135 850 97 811 q 222 909 172 888 q 325 931 271 931 l 375 931 q 479 909 429 931 q 567 850 529 888 q 624 763 604 813 q 644 656 644 713 l 644 268 q 624 161 644 211 q 567 74 604 111 q 479 15 529 36 q 375 -7 429 -7 l 325 -7 m 522 656 q 479 761 522 717 q 375 806 436 806 l 325 806 q 222 760 265 806 q 178 656 178 715 l 178 268 q 222 163 178 208 q 325 118 265 118 l 375 118 q 479 163 436 118 q 522 268 522 207 l 522 656 z "},"1":{"ha":436,"x_min":56,"x_max":367,"o":"m 251 0 l 251 733 l 192 629 l 56 629 l 224 924 l 367 924 l 367 0 l 251 0 z "},"2":{"ha":621,"x_min":56,"x_max":565,"o":"m 481 444 q 301 354 415 383 q 201 280 225 335 q 176 125 176 225 l 521 125 l 521 0 l 61 0 q 56 110 56 50 q 274 475 56 421 q 385 524 339 489 q 443 638 443 569 q 397 751 443 703 q 288 799 353 799 l 78 799 l 78 924 l 288 924 q 394 901 344 924 q 483 840 444 879 q 544 749 522 801 q 565 638 565 696 q 481 444 565 521 z "},"3":{"ha":574,"x_min":56,"x_max":518,"o":"m 56 0 l 56 125 l 265 125 q 359 164 321 125 q 397 261 397 203 q 360 360 397 318 q 265 399 324 399 l 176 399 l 176 524 l 265 524 q 360 564 322 524 q 397 661 397 606 q 359 758 397 719 q 265 797 321 797 l 56 797 l 56 924 l 265 924 q 363 903 317 924 q 444 847 410 883 q 499 763 479 811 q 518 661 518 715 q 494 551 518 603 q 429 461 471 499 q 494 372 471 424 q 518 261 518 319 q 499 160 518 208 q 444 76 479 113 q 363 20 410 40 q 265 0 317 0 l 56 0 z "},"4":{"ha":708,"x_min":56,"x_max":653,"o":"m 536 235 l 536 -1 l 415 -1 l 415 235 l 56 235 l 339 922 l 471 922 l 236 358 l 415 358 l 415 499 l 536 499 l 536 358 l 653 358 l 653 235 l 536 235 z "},"5":{"ha":632,"x_min":69,"x_max":576,"o":"m 76 0 l 76 125 l 299 125 q 410 172 363 125 q 456 286 456 221 q 410 400 456 351 q 299 447 360 447 l 69 447 l 69 924 l 532 924 l 532 799 l 192 799 l 192 572 l 299 572 q 406 550 356 572 q 496 488 457 528 q 555 396 533 449 q 576 286 576 343 q 555 175 576 228 q 496 83 533 122 q 406 22 457 44 q 299 0 356 0 l 76 0 z "},"6":{"ha":672,"x_min":56,"x_max":617,"o":"m 336 -6 q 228 17 279 -6 q 138 79 176 40 q 77 171 99 118 q 56 282 56 224 q 79 400 56 342 l 299 924 l 432 924 l 282 564 q 336 571 317 571 q 445 549 393 571 q 535 486 497 526 q 595 393 574 446 q 617 282 617 340 q 595 171 617 224 q 535 79 574 118 q 444 17 496 40 q 336 -6 393 -6 m 336 444 q 274 432 303 444 q 224 397 244 419 q 190 345 203 375 q 178 282 178 315 q 190 219 178 249 q 224 168 203 189 q 274 133 244 146 q 336 121 303 121 q 449 168 401 121 q 482 219 469 189 q 494 282 494 249 q 482 345 494 315 q 449 397 469 375 q 336 444 401 444 z "},"7":{"ha":599,"x_min":56,"x_max":529,"o":"m 336 0 l 213 0 l 379 797 l 56 797 l 56 924 l 529 924 l 336 0 z "},"8":{"ha":664,"x_min":56,"x_max":608,"o":"m 442 15 q 332 -7 392 -7 q 181 38 250 -7 q 78 163 111 83 q 56 274 56 215 q 65 351 56 317 q 165 503 89 443 q 115 581 133 536 q 96 674 96 626 q 161 843 96 769 q 238 897 192 878 q 331 917 283 917 q 460 877 401 917 q 547 771 518 838 q 567 675 567 721 q 549 583 567 628 q 497 503 531 539 q 579 402 551 463 q 608 281 607 342 q 589 172 608 224 q 532 81 569 121 q 442 15 494 39 m 438 722 q 394 773 424 754 q 332 792 365 792 q 285 783 306 792 q 235 740 254 769 q 215 676 215 711 q 226 628 215 653 q 269 576 243 593 q 328 560 296 560 q 411 592 375 560 q 447 674 447 625 q 438 722 447 699 m 186 335 q 175 278 175 306 q 189 213 175 247 q 247 142 208 168 q 332 117 285 117 q 393 129 367 117 q 462 190 436 150 q 488 275 488 229 q 474 340 488 306 q 415 411 454 386 q 332 436 376 436 q 246 410 286 436 q 186 335 206 383 z "},"9":{"ha":672,"x_min":56,"x_max":617,"o":"m 374 0 l 240 0 l 390 360 q 336 353 356 353 q 228 376 279 353 q 138 439 176 399 q 77 531 99 479 q 56 642 56 583 q 77 753 56 700 q 138 844 99 806 q 228 906 176 883 q 336 929 279 929 q 444 906 393 929 q 535 844 496 883 q 595 753 574 806 q 617 642 617 700 q 593 524 617 582 l 374 0 m 336 803 q 225 757 271 803 q 190 705 203 735 q 178 642 178 675 q 190 578 178 608 q 225 526 203 549 q 336 479 269 479 q 399 492 369 479 q 449 526 428 504 q 482 578 469 549 q 494 642 494 608 q 482 705 494 675 q 449 757 469 735 q 398 790 428 778 q 336 803 368 803 z "},"\u0000":{"ha":0,"x_min":0,"x_max":0,"o":""},"\r":{"ha":625,"x_min":0,"x_max":0,"o":""}," ":{"ha":625,"x_min":0,"x_max":0,"o":""},"A":{"ha":892,"x_min":56,"x_max":836,"o":"m 704 0 l 590 325 l 301 325 l 188 0 l 56 0 l 376 922 l 515 922 l 836 0 l 704 0 m 446 743 l 340 442 l 550 442 l 446 743 z "},"Á":{"ha":892,"x_min":56,"x_max":836,"o":"m 704 0 l 590 325 l 301 325 l 188 0 l 56 0 l 376 922 l 515 922 l 836 0 l 704 0 m 446 743 l 340 442 l 550 442 l 446 743 m 482 992 l 389 992 l 440 1183 l 549 1183 l 482 992 z "},"Ă":{"ha":892,"x_min":56,"x_max":836,"o":"m 704 0 l 590 325 l 301 325 l 188 0 l 56 0 l 376 922 l 515 922 l 836 0 l 704 0 m 446 743 l 340 442 l 550 442 l 446 743 m 544 1038 q 446 1010 500 1010 q 360 1030 400 1010 q 293 1085 319 1050 q 264 1169 269 1119 l 350 1169 q 377 1115 360 1133 q 426 1090 394 1097 q 444 1089 432 1089 q 497 1104 472 1089 q 539 1169 532 1125 l 626 1169 q 544 1038 617 1081 z "},"Â":{"ha":892,"x_min":56,"x_max":836,"o":"m 704 0 l 590 325 l 301 325 l 188 0 l 56 0 l 376 922 l 515 922 l 836 0 l 704 0 m 446 743 l 340 442 l 550 442 l 446 743 m 446 1056 l 375 986 l 263 986 l 447 1168 l 624 986 l 514 986 l 446 1056 z "},"Ä":{"ha":892,"x_min":56,"x_max":836,"o":"m 704 0 l 590 325 l 301 325 l 188 0 l 56 0 l 376 922 l 515 922 l 836 0 l 704 0 m 446 743 l 340 442 l 550 442 l 446 743 m 326 986 q 283 1003 300 986 q 265 1047 265 1021 q 283 1090 265 1072 q 326 1108 300 1108 q 369 1090 351 1108 q 388 1047 388 1072 q 369 1003 388 1021 q 326 986 351 986 m 565 986 q 522 1003 539 986 q 504 1047 504 1021 q 522 1090 504 1072 q 565 1108 539 1108 q 608 1090 590 1108 q 626 1047 626 1072 q 608 1003 626 1021 q 565 986 590 986 z "},"À":{"ha":892,"x_min":56,"x_max":836,"o":"m 704 0 l 590 325 l 301 325 l 188 0 l 56 0 l 376 922 l 515 922 l 836 0 l 704 0 m 446 743 l 340 442 l 550 442 l 446 743 m 504 992 l 411 992 l 344 1183 l 454 1183 l 504 992 z "},"Ā":{"ha":892,"x_min":56,"x_max":836,"o":"m 704 0 l 590 325 l 301 325 l 188 0 l 56 0 l 376 922 l 515 922 l 836 0 l 704 0 m 446 743 l 340 442 l 550 442 l 446 743 m 251 1014 l 251 1090 l 640 1090 l 640 1014 l 251 1014 z "},"Ą":{"ha":892,"x_min":56,"x_max":910,"o":"m 910 -228 q 810 -282 864 -281 l 799 -282 q 767 -279 783 -282 q 722 -257 743 -274 q 689 -219 701 -240 q 668 -149 668 -186 q 671 -122 668 -139 q 751 -22 686 -47 l 753 0 l 704 0 l 590 325 l 301 325 l 188 0 l 56 0 l 376 922 l 515 922 l 836 0 l 833 0 l 832 -99 q 807 -97 824 -97 q 772 -106 786 -97 q 751 -139 757 -115 q 750 -151 750 -143 q 763 -184 750 -172 q 796 -196 776 -196 q 849 -171 826 -196 l 910 -228 m 550 442 l 446 743 l 340 442 l 550 442 z "},"Å":{"ha":892,"x_min":56,"x_max":836,"o":"m 704 0 l 590 325 l 301 325 l 188 0 l 56 0 l 376 922 l 515 922 l 836 0 l 704 0 m 446 743 l 340 442 l 550 442 l 446 743 m 515 1008 q 446 988 482 988 q 340 1044 381 988 q 319 1114 319 1078 q 335 1172 319 1144 q 376 1218 350 1200 q 449 1239 407 1239 q 471 1238 464 1239 q 550 1183 522 1226 q 571 1111 571 1150 q 569 1089 571 1096 q 550 1043 564 1064 q 515 1008 536 1022 m 446 1172 q 406 1160 422 1172 q 389 1126 390 1147 q 388 1115 388 1122 q 405 1075 388 1093 q 446 1057 422 1057 q 486 1074 468 1057 q 504 1114 504 1092 q 487 1154 504 1136 q 446 1172 469 1172 z "},"Ã":{"ha":892,"x_min":56,"x_max":836,"o":"m 704 0 l 590 325 l 301 325 l 188 0 l 56 0 l 376 922 l 515 922 l 836 0 l 704 0 m 446 743 l 340 442 l 550 442 l 446 743 m 664 1090 q 601 1019 633 1042 q 532 996 569 996 q 485 1004 508 996 q 433 1028 463 1013 q 392 1047 408 1040 q 358 1054 375 1053 q 304 1008 331 1054 l 299 996 l 236 1053 q 274 1101 251 1081 q 357 1139 310 1139 q 409 1131 385 1139 q 469 1104 433 1122 q 510 1085 496 1090 q 538 1082 525 1081 q 572 1097 557 1083 q 610 1142 588 1111 l 664 1090 z "},"Æ":{"ha":1119,"x_min":56,"x_max":1064,"o":"m 679 797 l 679 517 l 938 517 l 938 403 l 679 403 l 679 124 l 1064 124 l 1064 -1 l 558 -1 l 558 325 l 301 325 l 188 0 l 56 0 l 376 922 l 1064 922 l 1064 797 l 679 797 m 558 447 l 558 800 l 465 800 l 343 447 l 558 447 z "},"B":{"ha":685,"x_min":69,"x_max":629,"o":"m 340 925 q 476 889 418 924 q 566 796 535 854 q 597 664 597 738 q 577 562 597 610 q 522 476 557 514 q 601 383 572 439 q 629 261 629 328 q 594 131 629 190 q 501 35 560 71 q 372 0 443 0 l 69 0 l 69 925 l 340 925 m 192 800 l 192 525 l 340 525 q 436 565 397 525 q 475 664 475 606 q 437 761 475 722 q 340 800 399 800 l 192 800 m 192 400 l 192 125 l 372 125 q 468 165 429 125 q 507 261 507 204 q 468 360 507 319 q 372 400 429 400 l 192 400 z "},"C":{"ha":939,"x_min":56,"x_max":883,"o":"m 519 -6 q 340 31 425 -6 q 192 132 256 67 q 92 281 128 196 q 56 461 56 365 q 91 642 56 557 q 192 792 126 726 q 340 892 256 856 q 519 928 425 928 q 717 883 624 928 q 883 751 810 839 l 789 671 q 519 801 675 801 q 390 775 451 801 q 281 701 328 749 q 207 592 233 654 q 181 461 181 531 q 207 330 181 392 q 281 221 233 268 q 390 147 328 174 q 519 121 451 121 q 789 251 675 121 l 883 171 q 716 39 808 83 q 519 -6 624 -6 z "},"Ć":{"ha":939,"x_min":56,"x_max":883,"o":"m 519 -6 q 340 31 425 -6 q 192 132 256 67 q 92 281 128 196 q 56 461 56 365 q 91 642 56 557 q 192 792 126 726 q 340 892 256 856 q 519 928 425 928 q 717 883 624 928 q 883 751 810 839 l 789 671 q 519 801 675 801 q 390 775 451 801 q 281 701 328 749 q 207 592 233 654 q 181 461 181 531 q 207 330 181 392 q 281 221 233 268 q 390 147 328 174 q 519 121 451 121 q 789 251 675 121 l 883 171 q 716 39 808 83 q 519 -6 624 -6 m 558 992 l 465 992 l 517 1183 l 625 1183 l 558 992 z "},"Č":{"ha":939,"x_min":56,"x_max":883,"o":"m 519 -6 q 340 31 425 -6 q 192 132 256 67 q 92 281 128 196 q 56 461 56 365 q 91 642 56 557 q 192 792 126 726 q 340 892 256 856 q 519 928 425 928 q 717 883 624 928 q 883 751 810 839 l 789 671 q 519 801 675 801 q 390 775 451 801 q 281 701 328 749 q 207 592 233 654 q 181 461 181 531 q 207 330 181 392 q 281 221 233 268 q 390 147 328 174 q 519 121 451 121 q 789 251 675 121 l 883 171 q 716 39 808 83 q 519 -6 624 -6 m 699 1168 l 522 986 l 338 1168 l 450 1168 l 521 1099 l 589 1168 l 699 1168 z "},"Ç":{"ha":939,"x_min":56,"x_max":883,"o":"m 519 121 q 789 251 675 121 l 883 171 q 731 47 815 92 q 551 -4 646 3 l 540 -32 q 606 -80 582 -47 q 631 -156 631 -112 q 594 -247 631 -208 q 555 -274 578 -264 q 507 -285 532 -285 q 417 -246 464 -285 l 471 -185 q 489 -197 485 -196 q 507 -203 499 -203 q 538 -189 525 -203 q 551 -156 551 -175 q 538 -122 551 -136 q 507 -108 525 -108 q 481 -115 500 -108 l 453 -46 l 469 -3 q 317 42 389 7 q 192 132 246 76 q 92 281 128 196 q 56 461 56 365 q 91 642 56 557 q 192 792 126 726 q 340 892 256 856 q 519 928 425 928 q 717 883 624 928 q 883 751 810 839 l 789 671 q 519 801 675 801 q 390 775 451 801 q 281 701 328 749 q 207 592 233 654 q 181 461 181 531 q 207 330 181 392 q 281 221 233 268 q 390 147 328 174 q 519 121 451 121 z "},"D":{"ha":821,"x_min":69,"x_max":765,"o":"m 69 0 l 69 925 l 308 925 q 485 890 401 925 q 632 790 568 854 q 730 641 694 725 q 765 463 765 557 q 730 284 765 368 q 632 136 694 200 q 485 35 568 71 q 308 0 401 0 l 69 0 m 194 800 l 194 125 l 308 125 q 437 151 375 125 q 544 224 499 178 q 616 333 590 271 q 642 463 642 394 q 616 592 642 531 q 544 701 590 654 q 437 774 499 747 q 308 800 375 800 l 194 800 z "},"Ð":{"ha":878,"x_min":56,"x_max":822,"o":"m 689 790 q 787 641 751 725 q 822 463 822 557 q 787 284 822 368 q 689 136 751 200 q 542 35 625 71 q 365 0 458 0 l 126 0 l 126 421 l 56 421 l 56 504 l 126 504 l 126 925 l 365 925 q 542 890 458 925 q 689 790 625 854 m 601 224 q 673 333 647 271 q 699 463 699 394 q 673 592 699 531 q 601 701 647 654 q 494 774 556 747 q 365 800 432 800 l 251 800 l 251 504 l 646 504 l 646 421 l 251 421 l 251 125 l 365 125 q 494 151 432 125 q 601 224 556 178 z "},"Ď":{"ha":821,"x_min":69,"x_max":765,"o":"m 69 0 l 69 925 l 308 925 q 485 890 401 925 q 632 790 568 854 q 730 641 694 725 q 765 463 765 557 q 730 284 765 368 q 632 136 694 200 q 485 35 568 71 q 308 0 401 0 l 69 0 m 194 800 l 194 125 l 308 125 q 437 151 375 125 q 544 224 499 178 q 616 333 590 271 q 642 463 642 394 q 616 592 642 531 q 544 701 590 654 q 437 774 499 747 q 308 800 375 800 l 194 800 m 588 1168 l 411 986 l 226 1168 l 339 1168 l 410 1099 l 478 1168 l 588 1168 z "},"Đ":{"ha":878,"x_min":56,"x_max":822,"o":"m 689 790 q 787 641 751 725 q 822 463 822 557 q 787 284 822 368 q 689 136 751 200 q 542 35 625 71 q 365 0 458 0 l 126 0 l 126 421 l 56 421 l 56 504 l 126 504 l 126 925 l 365 925 q 542 890 458 925 q 689 790 625 854 m 601 224 q 673 333 647 271 q 699 463 699 394 q 673 592 699 531 q 601 701 647 654 q 494 774 556 747 q 365 800 432 800 l 251 800 l 251 504 l 646 504 l 646 421 l 251 421 l 251 125 l 365 125 q 494 151 432 125 q 601 224 556 178 z "},"E":{"ha":644,"x_min":69,"x_max":575,"o":"m 69 0 l 69 924 l 575 924 l 575 799 l 190 799 l 190 518 l 449 518 l 449 404 l 190 404 l 190 125 l 575 125 l 575 0 l 69 0 z "},"É":{"ha":644,"x_min":69,"x_max":575,"o":"m 69 0 l 69 924 l 575 924 l 575 799 l 190 799 l 190 518 l 449 518 l 449 404 l 190 404 l 190 125 l 575 125 l 575 0 l 69 0 m 358 992 l 265 992 l 317 1183 l 425 1183 l 358 992 z "},"Ě":{"ha":644,"x_min":69,"x_max":575,"o":"m 69 0 l 69 924 l 575 924 l 575 799 l 190 799 l 190 518 l 449 518 l 449 404 l 190 404 l 190 125 l 575 125 l 575 0 l 69 0 m 499 1168 l 322 986 l 138 1168 l 250 1168 l 321 1099 l 389 1168 l 499 1168 z "},"Ê":{"ha":644,"x_min":69,"x_max":575,"o":"m 69 0 l 69 924 l 575 924 l 575 799 l 190 799 l 190 518 l 449 518 l 449 404 l 190 404 l 190 125 l 575 125 l 575 0 l 69 0 m 322 1056 l 251 986 l 139 986 l 324 1168 l 500 986 l 390 986 l 322 1056 z "},"Ë":{"ha":644,"x_min":69,"x_max":575,"o":"m 69 0 l 69 924 l 575 924 l 575 799 l 190 799 l 190 518 l 449 518 l 449 404 l 190 404 l 190 125 l 575 125 l 575 0 l 69 0 m 203 986 q 159 1003 176 986 q 142 1047 142 1021 q 159 1090 142 1072 q 203 1108 176 1108 q 246 1090 228 1108 q 264 1047 264 1072 q 246 1003 264 1021 q 203 986 228 986 m 442 986 q 398 1003 415 986 q 381 1047 381 1021 q 398 1090 381 1072 q 442 1108 415 1108 q 485 1090 467 1108 q 503 1047 503 1072 q 485 1003 503 1021 q 442 986 467 986 z "},"Ė":{"ha":644,"x_min":69,"x_max":575,"o":"m 69 0 l 69 924 l 575 924 l 575 799 l 190 799 l 190 518 l 449 518 l 449 404 l 190 404 l 190 125 l 575 125 l 575 0 l 69 0 m 322 1015 q 278 1033 296 1015 q 261 1076 261 1050 q 278 1119 261 1101 q 322 1138 296 1138 q 365 1119 347 1138 q 383 1076 383 1101 q 365 1033 383 1050 q 322 1015 347 1015 z "},"È":{"ha":644,"x_min":69,"x_max":575,"o":"m 69 0 l 69 924 l 575 924 l 575 799 l 190 799 l 190 518 l 449 518 l 449 404 l 190 404 l 190 125 l 575 125 l 575 0 l 69 0 m 381 992 l 288 992 l 221 1183 l 331 1183 l 381 992 z "},"Ē":{"ha":644,"x_min":69,"x_max":575,"o":"m 69 0 l 69 924 l 575 924 l 575 799 l 190 799 l 190 518 l 449 518 l 449 404 l 190 404 l 190 125 l 575 125 l 575 0 l 69 0 m 128 1014 l 128 1090 l 517 1090 l 517 1014 l 128 1014 z "},"Ę":{"ha":644,"x_min":69,"x_max":651,"o":"m 651 -228 q 551 -282 606 -281 l 540 -282 q 508 -279 525 -282 q 464 -257 485 -274 q 431 -219 443 -240 q 410 -149 410 -186 q 413 -122 410 -139 q 493 -22 428 -47 l 494 0 l 69 0 l 69 924 l 575 924 l 575 799 l 190 799 l 190 518 l 449 518 l 449 404 l 190 404 l 190 125 l 575 125 l 575 0 l 574 -99 q 549 -97 565 -97 q 513 -106 528 -97 q 493 -139 499 -115 q 492 -151 492 -143 q 505 -184 492 -172 q 538 -196 518 -196 q 590 -171 568 -196 l 651 -228 z "},"F":{"ha":631,"x_min":69,"x_max":575,"o":"m 189 799 l 189 524 l 449 524 l 449 399 l 189 399 l 189 0 l 69 0 l 69 924 l 575 924 l 575 799 l 189 799 z "},"G":{"ha":961,"x_min":56,"x_max":892,"o":"m 796 89 q 732 49 764 65 q 517 -6 631 -6 q 381 15 446 -6 q 224 99 294 40 q 108 240 153 157 q 56 453 56 336 q 58 508 56 489 q 98 653 67 585 q 179 775 129 722 q 294 864 229 828 q 432 914 358 900 q 518 922 474 922 q 738 864 633 922 q 878 746 815 818 l 782 665 q 639 772 714 740 q 513 796 576 796 q 357 757 431 796 q 215 607 265 708 q 179 458 179 538 q 192 369 179 414 q 311 190 218 261 q 407 139 354 157 q 515 121 460 121 q 653 151 589 121 q 768 235 718 181 l 768 328 l 640 328 l 640 453 l 892 453 l 892 189 q 796 89 849 128 z "},"Ģ":{"ha":961,"x_min":56,"x_max":892,"o":"m 796 89 q 732 49 764 65 q 517 -6 631 -6 q 381 15 446 -6 q 224 99 294 40 q 108 240 153 157 q 56 453 56 336 q 58 508 56 489 q 98 653 67 585 q 179 775 129 722 q 294 864 229 828 q 432 914 358 900 q 518 922 474 922 q 738 864 633 922 q 878 746 815 818 l 782 665 q 639 772 714 740 q 513 796 576 796 q 357 757 431 796 q 215 607 265 708 q 179 458 179 538 q 192 369 179 414 q 311 190 218 261 q 407 139 354 157 q 515 121 460 121 q 653 151 589 121 q 768 235 718 181 l 768 328 l 640 328 l 640 453 l 892 453 l 892 189 q 796 89 849 128 m 469 -276 l 376 -276 l 429 -50 l 540 -50 l 469 -276 z "},"H":{"ha":757,"x_min":69,"x_max":688,"o":"m 567 0 l 567 399 l 192 399 l 192 0 l 69 0 l 69 924 l 192 924 l 192 524 l 567 524 l 567 924 l 688 924 l 688 0 l 567 0 z "},"I":{"ha":256,"x_min":69,"x_max":186,"o":"m 69 0 l 69 924 l 186 924 l 186 0 l 69 0 z "},"Í":{"ha":297,"x_min":69,"x_max":242,"o":"m 69 0 l 69 924 l 186 924 l 186 0 l 69 0 m 175 992 l 82 992 l 133 1183 l 242 1183 l 175 992 z "},"Î":{"ha":472,"x_min":56,"x_max":417,"o":"m 178 0 l 178 924 l 294 924 l 294 0 l 178 0 m 239 1056 l 168 986 l 56 986 l 240 1168 l 417 986 l 307 986 l 239 1056 z "},"Ï":{"ha":472,"x_min":56,"x_max":417,"o":"m 178 0 l 178 924 l 294 924 l 294 0 l 178 0 m 117 986 q 73 1003 90 986 q 56 1047 56 1021 q 73 1090 56 1072 q 117 1108 90 1108 q 160 1090 142 1108 q 178 1047 178 1072 q 160 1003 178 1021 q 117 986 142 986 m 356 986 q 312 1003 329 986 q 294 1047 294 1021 q 312 1090 294 1072 q 356 1108 329 1108 q 399 1090 381 1108 q 417 1047 417 1072 q 399 1003 417 1021 q 356 986 381 986 z "},"Ì":{"ha":285,"x_min":56,"x_max":215,"o":"m 99 0 l 99 924 l 215 924 l 215 0 l 99 0 m 215 992 l 122 992 l 56 1183 l 165 1183 l 215 992 z "},"Ī":{"ha":500,"x_min":56,"x_max":444,"o":"m 192 0 l 192 924 l 308 924 l 308 0 l 192 0 m 56 1014 l 56 1090 l 444 1090 l 444 1014 l 56 1014 z "},"Į":{"ha":256,"x_min":21,"x_max":263,"o":"m 263 -229 q 163 -283 217 -282 l 151 -283 q 119 -281 136 -283 q 75 -258 96 -275 q 42 -221 54 -242 q 21 -150 21 -187 q 24 -124 21 -140 q 104 -24 39 -49 l 106 0 l 69 0 l 69 924 l 186 924 l 186 0 l 185 -100 q 160 -99 176 -99 q 124 -108 139 -99 q 104 -140 110 -117 q 103 -153 103 -144 q 116 -185 103 -174 q 149 -197 129 -197 q 201 -172 178 -197 l 263 -229 z "},"J":{"ha":379,"x_min":56,"x_max":310,"o":"m 56 125 q 156 164 117 125 q 196 261 196 203 l 196 924 l 310 924 l 310 261 q 291 160 310 207 q 239 76 272 113 q 157 20 204 40 q 56 0 110 0 l 56 125 z "},"K":{"ha":711,"x_min":69,"x_max":656,"o":"m 490 0 l 192 340 l 192 0 l 69 0 l 69 922 l 192 922 l 192 571 l 485 922 l 646 922 l 256 454 l 656 0 l 490 0 z "},"Ķ":{"ha":711,"x_min":69,"x_max":656,"o":"m 490 0 l 192 340 l 192 0 l 69 0 l 69 922 l 192 922 l 192 571 l 485 922 l 646 922 l 256 454 l 656 0 l 490 0 m 335 -276 l 242 -276 l 294 -50 l 406 -50 l 335 -276 z "},"L":{"ha":522,"x_min":69,"x_max":467,"o":"m 69 0 l 69 924 l 189 924 l 189 125 l 467 125 l 467 0 l 69 0 z "},"Ĺ":{"ha":522,"x_min":69,"x_max":467,"o":"m 69 0 l 69 924 l 189 924 l 189 125 l 467 125 l 467 0 l 69 0 m 165 992 l 72 992 l 124 1183 l 232 1183 l 165 992 z "},"Ľ":{"ha":522,"x_min":69,"x_max":467,"o":"m 69 0 l 69 924 l 189 924 l 189 125 l 467 125 l 467 0 l 69 0 m 364 732 l 271 732 l 322 924 l 431 924 l 364 732 z "},"Ļ":{"ha":522,"x_min":69,"x_max":467,"o":"m 69 0 l 69 924 l 189 924 l 189 125 l 467 125 l 467 0 l 69 0 m 250 -276 l 157 -276 l 210 -50 l 321 -50 l 250 -276 z "},"Ł":{"ha":694,"x_min":56,"x_max":639,"o":"m 639 125 l 639 0 l 242 0 l 242 236 l 169 101 l 56 101 l 242 447 l 242 924 l 361 924 l 361 669 l 471 874 l 585 874 l 361 458 l 361 125 l 639 125 z "},"M":{"ha":1032,"x_min":69,"x_max":963,"o":"m 838 0 l 838 724 l 563 326 l 468 326 l 194 724 l 194 0 l 69 0 l 69 924 l 207 924 l 515 478 l 824 924 l 963 924 l 963 0 l 838 0 z "},"N":{"ha":813,"x_min":69,"x_max":743,"o":"m 610 0 l 193 678 l 193 0 l 69 0 l 69 924 l 190 924 l 621 226 l 621 924 l 743 924 l 743 0 l 610 0 z "},"Ń":{"ha":813,"x_min":69,"x_max":743,"o":"m 610 0 l 193 678 l 193 0 l 69 0 l 69 924 l 190 924 l 621 226 l 621 924 l 743 924 l 743 0 l 610 0 m 443 992 l 350 992 l 401 1183 l 510 1183 l 443 992 z "},"Ň":{"ha":813,"x_min":69,"x_max":743,"o":"m 610 0 l 193 678 l 193 0 l 69 0 l 69 924 l 190 924 l 621 226 l 621 924 l 743 924 l 743 0 l 610 0 m 583 1168 l 407 986 l 222 1168 l 335 1168 l 406 1099 l 474 1168 l 583 1168 z "},"Ņ":{"ha":813,"x_min":69,"x_max":743,"o":"m 610 0 l 193 678 l 193 0 l 69 0 l 69 924 l 190 924 l 621 226 l 621 924 l 743 924 l 743 0 l 610 0 m 396 -276 l 303 -276 l 356 -50 l 467 -50 l 396 -276 z "},"Ñ":{"ha":813,"x_min":69,"x_max":743,"o":"m 610 0 l 193 678 l 193 0 l 69 0 l 69 924 l 190 924 l 621 226 l 621 924 l 743 924 l 743 0 l 610 0 m 625 1090 q 563 1019 594 1042 q 493 996 531 996 q 447 1004 469 996 q 394 1028 424 1013 q 353 1047 369 1040 q 319 1054 336 1053 q 265 1008 292 1054 l 260 996 l 197 1053 q 235 1101 213 1081 q 318 1139 271 1139 q 370 1131 346 1139 q 431 1104 394 1122 q 472 1085 457 1090 q 499 1082 486 1081 q 533 1097 518 1083 q 571 1142 549 1111 l 625 1090 z "},"O":{"ha":1038,"x_min":56,"x_max":982,"o":"m 518 -7 q 340 28 424 -7 q 192 129 256 64 q 92 278 128 193 q 56 458 56 364 q 91 637 56 553 q 192 786 126 721 q 340 886 256 850 q 518 922 424 922 q 697 886 613 922 q 846 786 782 850 q 946 638 910 722 q 982 458 982 553 q 946 278 982 364 q 846 129 910 193 q 697 29 782 65 q 518 -7 613 -7 m 518 796 q 388 770 450 796 q 279 697 326 744 q 206 588 232 650 q 181 458 181 526 q 207 326 181 389 q 279 217 233 263 q 388 144 326 169 q 518 118 450 118 q 648 144 586 118 q 757 217 710 169 q 829 326 803 263 q 856 458 856 389 q 830 588 856 526 q 757 697 804 650 q 648 770 710 744 q 518 796 586 796 z "},"Ó":{"ha":1038,"x_min":56,"x_max":982,"o":"m 518 -7 q 340 28 424 -7 q 192 129 256 64 q 92 278 128 193 q 56 458 56 364 q 91 637 56 553 q 192 786 126 721 q 340 886 256 850 q 518 922 424 922 q 697 886 613 922 q 846 786 782 850 q 946 638 910 722 q 982 458 982 553 q 946 278 982 364 q 846 129 910 193 q 697 29 782 65 q 518 -7 613 -7 m 518 796 q 388 770 450 796 q 279 697 326 744 q 206 588 232 650 q 181 458 181 526 q 207 326 181 389 q 279 217 233 263 q 388 144 326 169 q 518 118 450 118 q 648 144 586 118 q 757 217 710 169 q 829 326 803 263 q 856 458 856 389 q 830 588 856 526 q 757 697 804 650 q 648 770 710 744 q 518 796 586 796 m 556 992 l 463 992 l 514 1183 l 622 1183 l 556 992 z "},"Ô":{"ha":1038,"x_min":56,"x_max":982,"o":"m 518 -7 q 340 28 424 -7 q 192 129 256 64 q 92 278 128 193 q 56 458 56 364 q 91 637 56 553 q 192 786 126 721 q 340 886 256 850 q 518 922 424 922 q 697 886 613 922 q 846 786 782 850 q 946 638 910 722 q 982 458 982 553 q 946 278 982 364 q 846 129 910 193 q 697 29 782 65 q 518 -7 613 -7 m 518 796 q 388 770 450 796 q 279 697 326 744 q 206 588 232 650 q 181 458 181 526 q 207 326 181 389 q 279 217 233 263 q 388 144 326 169 q 518 118 450 118 q 648 144 586 118 q 757 217 710 169 q 829 326 803 263 q 856 458 856 389 q 830 588 856 526 q 757 697 804 650 q 648 770 710 744 q 518 796 586 796 m 519 1056 l 449 986 l 336 986 l 521 1168 l 697 986 l 588 986 l 519 1056 z "},"Ö":{"ha":1038,"x_min":56,"x_max":982,"o":"m 518 -7 q 340 28 424 -7 q 192 129 256 64 q 92 278 128 193 q 56 458 56 364 q 91 637 56 553 q 192 786 126 721 q 340 886 256 850 q 518 922 424 922 q 697 886 613 922 q 846 786 782 850 q 946 638 910 722 q 982 458 982 553 q 946 278 982 364 q 846 129 910 193 q 697 29 782 65 q 518 -7 613 -7 m 518 796 q 388 770 450 796 q 279 697 326 744 q 206 588 232 650 q 181 458 181 526 q 207 326 181 389 q 279 217 233 263 q 388 144 326 169 q 518 118 450 118 q 648 144 586 118 q 757 217 710 169 q 829 326 803 263 q 856 458 856 389 q 830 588 856 526 q 757 697 804 650 q 648 770 710 744 q 518 796 586 796 m 400 986 q 356 1003 374 986 q 339 1047 339 1021 q 356 1090 339 1072 q 400 1108 374 1108 q 443 1090 425 1108 q 461 1047 461 1072 q 443 1003 461 1021 q 400 986 425 986 m 639 986 q 595 1003 613 986 q 578 1047 578 1021 q 595 1090 578 1072 q 639 1108 613 1108 q 682 1090 664 1108 q 700 1047 700 1072 q 682 1003 700 1021 q 639 986 664 986 z "},"Ò":{"ha":1038,"x_min":56,"x_max":982,"o":"m 518 -7 q 340 28 424 -7 q 192 129 256 64 q 92 278 128 193 q 56 458 56 364 q 91 637 56 553 q 192 786 126 721 q 340 886 256 850 q 518 922 424 922 q 697 886 613 922 q 846 786 782 850 q 946 638 910 722 q 982 458 982 553 q 946 278 982 364 q 846 129 910 193 q 697 29 782 65 q 518 -7 613 -7 m 518 796 q 388 770 450 796 q 279 697 326 744 q 206 588 232 650 q 181 458 181 526 q 207 326 181 389 q 279 217 233 263 q 388 144 326 169 q 518 118 450 118 q 648 144 586 118 q 757 217 710 169 q 829 326 803 263 q 856 458 856 389 q 830 588 856 526 q 757 697 804 650 q 648 770 710 744 q 518 796 586 796 m 578 992 l 485 992 l 418 1183 l 528 1183 l 578 992 z "},"Ő":{"ha":1038,"x_min":56,"x_max":982,"o":"m 518 -7 q 340 28 424 -7 q 192 129 256 64 q 92 278 128 193 q 56 458 56 364 q 91 637 56 553 q 192 786 126 721 q 340 886 256 850 q 518 922 424 922 q 697 886 613 922 q 846 786 782 850 q 946 638 910 722 q 982 458 982 553 q 946 278 982 364 q 846 129 910 193 q 697 29 782 65 q 518 -7 613 -7 m 518 796 q 388 770 450 796 q 279 697 326 744 q 206 588 232 650 q 181 458 181 526 q 207 326 181 389 q 279 217 233 263 q 388 144 326 169 q 518 118 450 118 q 648 144 586 118 q 757 217 710 169 q 829 326 803 263 q 856 458 856 389 q 830 588 856 526 q 757 697 804 650 q 648 770 710 744 q 518 796 586 796 m 446 990 l 357 990 l 403 1183 l 508 1183 l 446 990 m 636 990 l 547 990 l 604 1183 l 710 1183 l 636 990 z "},"Ō":{"ha":1038,"x_min":56,"x_max":982,"o":"m 518 -7 q 340 28 424 -7 q 192 129 256 64 q 92 278 128 193 q 56 458 56 364 q 91 637 56 553 q 192 786 126 721 q 340 886 256 850 q 518 922 424 922 q 697 886 613 922 q 846 786 782 850 q 946 638 910 722 q 982 458 982 553 q 946 278 982 364 q 846 129 910 193 q 697 29 782 65 q 518 -7 613 -7 m 518 796 q 388 770 450 796 q 279 697 326 744 q 206 588 232 650 q 181 458 181 526 q 207 326 181 389 q 279 217 233 263 q 388 144 326 169 q 518 118 450 118 q 648 144 586 118 q 757 217 710 169 q 829 326 803 263 q 856 458 856 389 q 830 588 856 526 q 757 697 804 650 q 648 770 710 744 q 518 796 586 796 m 325 1014 l 325 1090 l 714 1090 l 714 1014 l 325 1014 z "},"Ø":{"ha":1038,"x_min":56,"x_max":982,"o":"m 846 786 q 946 638 910 722 q 982 458 982 553 q 946 278 982 364 q 846 129 910 193 q 697 29 782 65 q 518 -7 613 -7 q 344 26 431 -7 l 331 0 l 219 0 l 258 74 q 192 129 221 100 q 92 278 128 193 q 56 458 56 364 q 91 637 56 553 q 192 786 126 721 q 340 886 256 850 q 518 922 424 922 q 689 890 608 922 l 707 925 l 818 925 l 775 844 q 846 786 815 818 m 279 217 q 317 185 299 197 l 629 778 q 518 796 572 796 q 388 770 450 796 q 279 697 326 744 q 206 588 232 650 q 181 458 181 526 q 207 326 181 389 q 279 217 233 263 m 757 217 q 829 326 803 263 q 856 458 856 389 q 830 588 856 526 q 757 697 804 650 q 717 732 744 710 l 403 138 q 518 118 458 118 q 648 144 586 118 q 757 217 710 169 z "},"Õ":{"ha":1038,"x_min":56,"x_max":982,"o":"m 518 -7 q 340 28 424 -7 q 192 129 256 64 q 92 278 128 193 q 56 458 56 364 q 91 637 56 553 q 192 786 126 721 q 340 886 256 850 q 518 922 424 922 q 697 886 613 922 q 846 786 782 850 q 946 638 910 722 q 982 458 982 553 q 946 278 982 364 q 846 129 910 193 q 697 29 782 65 q 518 -7 613 -7 m 518 796 q 388 770 450 796 q 279 697 326 744 q 206 588 232 650 q 181 458 181 526 q 207 326 181 389 q 279 217 233 263 q 388 144 326 169 q 518 118 450 118 q 648 144 586 118 q 757 217 710 169 q 829 326 803 263 q 856 458 856 389 q 830 588 856 526 q 757 697 804 650 q 648 770 710 744 q 518 796 586 796 m 738 1090 q 675 1019 707 1042 q 606 996 643 996 q 559 1004 582 996 q 507 1028 536 1013 q 465 1047 482 1040 q 432 1054 449 1053 q 378 1008 404 1054 l 372 996 l 310 1053 q 347 1101 325 1081 q 431 1139 383 1139 q 483 1131 458 1139 q 543 1104 507 1122 q 584 1085 569 1090 q 611 1082 599 1081 q 646 1097 631 1083 q 683 1142 661 1111 l 738 1090 z "},"Œ":{"ha":1418,"x_min":56,"x_max":1363,"o":"m 978 799 l 978 521 l 978 518 l 1236 518 l 1236 404 l 979 404 q 978 396 978 401 l 978 125 l 1363 125 l 1363 0 l 857 0 l 857 140 l 846 129 q 697 29 782 65 q 518 -7 613 -7 q 340 28 424 -7 q 192 129 256 64 q 92 278 128 193 q 56 458 56 364 q 91 637 56 553 q 192 786 126 721 q 340 886 256 850 q 518 922 424 922 q 697 886 613 922 q 846 786 782 850 l 857 775 l 857 924 l 1363 924 l 1363 799 l 978 799 m 757 217 q 829 326 803 263 q 856 458 856 389 q 830 588 856 526 q 757 697 804 650 q 648 770 710 744 q 518 796 586 796 q 388 770 450 796 q 279 697 326 744 q 206 588 232 650 q 181 458 181 526 q 207 326 181 389 q 279 217 233 263 q 388 144 326 169 q 518 118 450 118 q 648 144 586 118 q 757 217 710 169 z "},"P":{"ha":681,"x_min":69,"x_max":625,"o":"m 192 321 l 192 0 l 69 0 l 69 924 l 329 924 q 442 901 388 924 q 538 836 496 878 q 602 738 579 793 q 625 622 625 683 q 602 506 625 561 q 538 410 579 451 q 442 344 496 368 q 329 321 388 321 l 192 321 m 192 797 l 192 444 l 329 444 q 451 497 401 444 q 503 622 503 549 q 451 746 503 694 q 329 797 400 797 l 192 797 z "},"Þ":{"ha":681,"x_min":69,"x_max":625,"o":"m 538 614 q 602 517 579 572 q 625 400 625 463 q 602 284 625 339 q 538 188 579 229 q 442 122 496 146 q 329 99 388 99 l 192 99 l 192 -151 l 69 -151 l 69 914 l 192 914 l 192 701 l 329 701 q 442 678 388 701 q 538 614 496 656 m 451 275 q 503 400 503 326 q 451 524 503 472 q 329 575 400 575 l 192 575 l 192 222 l 329 222 q 451 275 399 222 z "},"Q":{"ha":1038,"x_min":56,"x_max":982,"o":"m 518 -3 q 341 33 425 -3 q 192 133 257 69 q 91 281 126 197 q 56 460 56 365 q 92 641 56 554 q 192 790 128 728 q 340 890 256 854 q 518 926 424 926 q 697 890 613 926 q 846 790 782 854 q 946 640 910 726 q 982 460 982 554 q 943 274 982 361 q 835 122 904 186 l 982 122 l 982 -3 l 518 -3 m 518 800 q 388 774 450 800 q 279 701 326 749 q 207 592 233 656 q 181 460 181 529 q 206 330 181 392 q 279 221 232 268 q 388 148 326 174 q 518 122 450 122 q 648 148 586 122 q 757 221 710 174 q 830 330 804 268 q 856 460 856 392 q 829 592 856 529 q 757 701 803 656 q 648 774 710 749 q 518 800 586 800 z "},"R":{"ha":676,"x_min":69,"x_max":621,"o":"m 621 0 l 457 0 l 192 315 l 192 0 l 69 0 l 69 922 l 307 922 q 422 899 368 922 q 515 835 475 876 q 578 737 556 792 q 600 621 600 682 q 581 511 600 563 q 525 419 561 460 q 440 353 489 379 q 339 322 392 328 l 621 0 m 192 797 l 192 444 l 307 444 q 374 458 342 444 q 429 496 406 472 q 466 553 453 521 q 479 621 479 585 q 429 746 479 692 q 374 783 406 769 q 307 797 342 797 l 192 797 z "},"Ŕ":{"ha":676,"x_min":69,"x_max":621,"o":"m 621 0 l 457 0 l 192 315 l 192 0 l 69 0 l 69 922 l 307 922 q 422 899 368 922 q 515 835 475 876 q 578 737 556 792 q 600 621 600 682 q 581 511 600 563 q 525 419 561 460 q 440 353 489 379 q 339 322 392 328 l 621 0 m 192 797 l 192 444 l 307 444 q 374 458 342 444 q 429 496 406 472 q 466 553 453 521 q 479 621 479 585 q 429 746 479 692 q 374 783 406 769 q 307 797 342 797 l 192 797 m 344 992 l 251 992 l 303 1183 l 411 1183 l 344 992 z "},"Ř":{"ha":676,"x_min":69,"x_max":621,"o":"m 621 0 l 457 0 l 192 315 l 192 0 l 69 0 l 69 922 l 307 922 q 422 899 368 922 q 515 835 475 876 q 578 737 556 792 q 600 621 600 682 q 581 511 600 563 q 525 419 561 460 q 440 353 489 379 q 339 322 392 328 l 621 0 m 192 797 l 192 444 l 307 444 q 374 458 342 444 q 429 496 406 472 q 466 553 453 521 q 479 621 479 585 q 429 746 479 692 q 374 783 406 769 q 307 797 342 797 l 192 797 m 504 1168 l 328 986 l 143 1168 l 256 1168 l 326 1099 l 394 1168 l 504 1168 z "},"Ŗ":{"ha":676,"x_min":69,"x_max":621,"o":"m 621 0 l 457 0 l 192 315 l 192 0 l 69 0 l 69 922 l 307 922 q 422 899 368 922 q 515 835 475 876 q 578 737 556 792 q 600 621 600 682 q 581 511 600 563 q 525 419 561 460 q 440 353 489 379 q 339 322 392 328 l 621 0 m 192 797 l 192 444 l 307 444 q 374 458 342 444 q 429 496 406 472 q 466 553 453 521 q 479 621 479 585 q 429 746 479 692 q 374 783 406 769 q 307 797 342 797 l 192 797 m 317 -276 l 224 -276 l 276 -50 l 388 -50 l 317 -276 z "},"S":{"ha":746,"x_min":56,"x_max":690,"o":"m 563 639 q 533 728 556 693 q 472 783 508 765 q 378 800 435 800 q 246 760 283 800 q 210 656 210 724 q 221 592 210 617 q 254 553 232 568 q 364 522 288 529 q 495 501 442 515 q 589 461 549 486 q 690 261 690 397 q 669 161 690 208 q 611 76 649 114 q 506 13 567 33 q 381 -8 446 -8 q 146 75 233 -8 q 56 275 71 150 l 58 276 l 181 276 q 231 167 192 203 q 376 117 285 117 q 515 157 464 117 q 567 261 567 197 q 559 312 567 290 q 531 350 551 333 q 354 396 483 386 q 154 472 222 407 q 86 656 86 538 q 160 849 86 775 q 376 926 238 926 q 601 839 521 926 q 688 639 672 763 l 563 639 z "},"Ś":{"ha":746,"x_min":56,"x_max":690,"o":"m 563 639 q 533 728 556 693 q 472 783 508 765 q 378 800 435 800 q 246 760 283 800 q 210 656 210 724 q 221 592 210 617 q 254 553 232 568 q 364 522 288 529 q 495 501 442 515 q 589 461 549 486 q 690 261 690 397 q 669 161 690 208 q 611 76 649 114 q 506 13 567 33 q 381 -8 446 -8 q 146 75 233 -8 q 56 275 71 150 l 58 276 l 181 276 q 231 167 192 203 q 376 117 285 117 q 515 157 464 117 q 567 261 567 197 q 559 312 567 290 q 531 350 551 333 q 354 396 483 386 q 154 472 222 407 q 86 656 86 538 q 160 849 86 775 q 376 926 238 926 q 601 839 521 926 q 688 639 672 763 l 563 639 m 410 992 l 317 992 l 368 1183 l 476 1183 l 410 992 z "},"Š":{"ha":746,"x_min":56,"x_max":690,"o":"m 563 639 q 533 728 556 693 q 472 783 508 765 q 378 800 435 800 q 246 760 283 800 q 210 656 210 724 q 221 592 210 617 q 254 553 232 568 q 364 522 288 529 q 495 501 442 515 q 589 461 549 486 q 690 261 690 397 q 669 161 690 208 q 611 76 649 114 q 506 13 567 33 q 381 -8 446 -8 q 146 75 233 -8 q 56 275 71 150 l 58 276 l 181 276 q 231 167 192 203 q 376 117 285 117 q 515 157 464 117 q 567 261 567 197 q 559 312 567 290 q 531 350 551 333 q 354 396 483 386 q 154 472 222 407 q 86 656 86 538 q 160 849 86 775 q 376 926 238 926 q 601 839 521 926 q 688 639 672 763 l 563 639 m 550 1168 l 374 986 l 189 1168 l 301 1168 l 372 1099 l 440 1168 l 550 1168 z "},"Ş":{"ha":746,"x_min":56,"x_max":690,"o":"m 589 461 q 690 261 690 397 q 669 161 690 208 q 611 76 649 114 q 401 -8 532 -1 l 392 -32 q 458 -80 433 -47 q 482 -156 482 -112 q 446 -247 482 -208 q 406 -274 429 -264 q 358 -285 383 -285 q 268 -246 315 -285 l 322 -185 q 340 -197 336 -196 q 358 -203 350 -203 q 390 -189 376 -203 q 403 -156 403 -175 q 390 -122 403 -136 q 358 -108 376 -108 q 332 -115 351 -108 l 304 -46 l 319 -4 q 146 75 215 10 q 56 275 71 150 l 58 276 l 181 276 q 231 167 192 203 q 376 117 285 117 q 515 157 464 117 q 567 261 567 197 q 559 312 567 290 q 531 350 551 333 q 354 396 483 386 q 154 472 222 407 q 86 656 86 538 q 160 849 86 775 q 376 926 238 926 q 601 839 521 926 q 688 639 672 763 l 563 639 q 533 728 556 693 q 472 783 508 765 q 378 800 435 800 q 246 760 283 800 q 210 656 210 724 q 221 592 210 617 q 254 553 232 568 q 364 522 288 529 q 495 501 442 515 q 589 461 549 486 z "},"T":{"ha":681,"x_min":56,"x_max":625,"o":"m 401 806 l 401 0 l 279 0 l 279 806 l 56 806 l 56 924 l 625 924 l 625 806 l 401 806 z "},"Ŧ":{"ha":701,"x_min":67,"x_max":636,"o":"m 413 806 l 413 504 l 585 504 l 585 421 l 413 421 l 413 0 l 290 0 l 290 421 l 115 421 l 115 504 l 290 504 l 290 806 l 67 806 l 67 924 l 636 924 l 636 806 l 413 806 z "},"Ť":{"ha":681,"x_min":56,"x_max":625,"o":"m 401 806 l 401 0 l 279 0 l 279 806 l 56 806 l 56 924 l 625 924 l 625 806 l 401 806 m 517 1168 l 340 986 l 156 1168 l 268 1168 l 339 1099 l 407 1168 l 517 1168 z "},"Ţ":{"ha":681,"x_min":56,"x_max":625,"o":"m 372 0 l 358 -32 q 424 -80 400 -47 q 449 -156 449 -112 q 413 -247 449 -208 q 373 -274 396 -264 q 325 -285 350 -285 q 235 -246 282 -285 l 289 -185 q 307 -197 303 -196 q 325 -203 317 -203 q 356 -189 343 -203 q 369 -156 369 -175 q 356 -122 369 -136 q 325 -108 343 -108 q 299 -115 318 -108 l 271 -46 l 288 0 l 279 0 l 279 806 l 56 806 l 56 924 l 625 924 l 625 806 l 401 806 l 401 0 l 372 0 z "},"U":{"ha":783,"x_min":69,"x_max":714,"o":"m 392 -10 q 267 16 326 -10 q 164 88 208 42 q 94 193 119 133 q 69 318 69 253 l 69 921 l 188 921 l 188 318 q 203 239 188 276 q 247 172 218 201 q 313 127 275 143 q 392 111 350 111 q 471 127 433 111 q 538 172 508 143 q 582 239 567 201 q 597 318 597 276 l 597 921 l 714 921 l 714 318 q 689 193 714 253 q 619 88 664 133 q 516 16 575 42 q 392 -10 457 -10 z "},"Ú":{"ha":783,"x_min":69,"x_max":714,"o":"m 392 -10 q 267 16 326 -10 q 164 88 208 42 q 94 193 119 133 q 69 318 69 253 l 69 921 l 188 921 l 188 318 q 203 239 188 276 q 247 172 218 201 q 313 127 275 143 q 392 111 350 111 q 471 127 433 111 q 538 172 508 143 q 582 239 567 201 q 597 318 597 276 l 597 921 l 714 921 l 714 318 q 689 193 714 253 q 619 88 664 133 q 516 16 575 42 q 392 -10 457 -10 m 428 992 l 335 992 l 386 1183 l 494 1183 l 428 992 z "},"Û":{"ha":783,"x_min":69,"x_max":714,"o":"m 392 -10 q 267 16 326 -10 q 164 88 208 42 q 94 193 119 133 q 69 318 69 253 l 69 921 l 188 921 l 188 318 q 203 239 188 276 q 247 172 218 201 q 313 127 275 143 q 392 111 350 111 q 471 127 433 111 q 538 172 508 143 q 582 239 567 201 q 597 318 597 276 l 597 921 l 714 921 l 714 318 q 689 193 714 253 q 619 88 664 133 q 516 16 575 42 q 392 -10 457 -10 m 392 1056 l 321 986 l 208 986 l 393 1168 l 569 986 l 460 986 l 392 1056 z "},"Ü":{"ha":783,"x_min":69,"x_max":714,"o":"m 392 -10 q 267 16 326 -10 q 164 88 208 42 q 94 193 119 133 q 69 318 69 253 l 69 921 l 188 921 l 188 318 q 203 239 188 276 q 247 172 218 201 q 313 127 275 143 q 392 111 350 111 q 471 127 433 111 q 538 172 508 143 q 582 239 567 201 q 597 318 597 276 l 597 921 l 714 921 l 714 318 q 689 193 714 253 q 619 88 664 133 q 516 16 575 42 q 392 -10 457 -10 m 272 986 q 228 1003 246 986 q 211 1047 211 1021 q 228 1090 211 1072 q 272 1108 246 1108 q 315 1090 297 1108 q 333 1047 333 1072 q 315 1003 333 1021 q 272 986 297 986 m 511 986 q 467 1003 485 986 q 450 1047 450 1021 q 467 1090 450 1072 q 511 1108 485 1108 q 554 1090 536 1108 q 572 1047 572 1072 q 554 1003 572 1021 q 511 986 536 986 z "},"Ù":{"ha":783,"x_min":69,"x_max":714,"o":"m 392 -10 q 267 16 326 -10 q 164 88 208 42 q 94 193 119 133 q 69 318 69 253 l 69 921 l 188 921 l 188 318 q 203 239 188 276 q 247 172 218 201 q 313 127 275 143 q 392 111 350 111 q 471 127 433 111 q 538 172 508 143 q 582 239 567 201 q 597 318 597 276 l 597 921 l 714 921 l 714 318 q 689 193 714 253 q 619 88 664 133 q 516 16 575 42 q 392 -10 457 -10 m 450 992 l 357 992 l 290 1183 l 400 1183 l 450 992 z "},"Ű":{"ha":783,"x_min":69,"x_max":714,"o":"m 392 -10 q 267 16 326 -10 q 164 88 208 42 q 94 193 119 133 q 69 318 69 253 l 69 921 l 188 921 l 188 318 q 203 239 188 276 q 247 172 218 201 q 313 127 275 143 q 392 111 350 111 q 471 127 433 111 q 538 172 508 143 q 582 239 567 201 q 597 318 597 276 l 597 921 l 714 921 l 714 318 q 689 193 714 253 q 619 88 664 133 q 516 16 575 42 q 392 -10 457 -10 m 318 990 l 229 990 l 275 1183 l 381 1183 l 318 990 m 508 990 l 419 990 l 476 1183 l 582 1183 l 508 990 z "},"Ū":{"ha":783,"x_min":69,"x_max":714,"o":"m 392 -10 q 267 16 326 -10 q 164 88 208 42 q 94 193 119 133 q 69 318 69 253 l 69 921 l 188 921 l 188 318 q 203 239 188 276 q 247 172 218 201 q 313 127 275 143 q 392 111 350 111 q 471 127 433 111 q 538 172 508 143 q 582 239 567 201 q 597 318 597 276 l 597 921 l 714 921 l 714 318 q 689 193 714 253 q 619 88 664 133 q 516 16 575 42 q 392 -10 457 -10 m 197 1014 l 197 1090 l 586 1090 l 586 1014 l 197 1014 z "},"Ų":{"ha":783,"x_min":69,"x_max":714,"o":"m 714 921 l 714 318 q 689 193 714 253 q 619 88 664 133 q 478 1 558 24 l 476 -99 q 451 -97 468 -97 q 416 -106 431 -97 q 396 -139 401 -115 q 394 -151 394 -143 q 408 -184 394 -172 q 440 -196 421 -196 q 493 -171 471 -196 l 554 -228 q 454 -282 508 -281 l 443 -282 q 411 -279 428 -282 q 367 -257 388 -274 q 333 -219 346 -240 q 313 -149 313 -186 q 315 -122 313 -139 q 396 -22 331 -47 l 397 -10 l 392 -10 q 267 16 326 -10 q 164 88 208 42 q 94 193 119 133 q 69 318 69 253 l 69 921 l 188 921 l 188 318 q 203 239 188 276 q 247 172 218 201 q 313 127 275 143 q 392 111 350 111 q 471 127 433 111 q 538 172 508 143 q 582 239 567 201 q 597 318 597 276 l 597 921 l 714 921 z "},"Ů":{"ha":783,"x_min":69,"x_max":714,"o":"m 392 -10 q 267 16 326 -10 q 164 88 208 42 q 94 193 119 133 q 69 318 69 253 l 69 921 l 188 921 l 188 318 q 203 239 188 276 q 247 172 218 201 q 313 127 275 143 q 392 111 350 111 q 471 127 433 111 q 538 172 508 143 q 582 239 567 201 q 597 318 597 276 l 597 921 l 714 921 l 714 318 q 689 193 714 253 q 619 88 664 133 q 516 16 575 42 q 392 -10 457 -10 m 461 1008 q 392 988 428 988 q 286 1044 326 988 q 265 1114 265 1078 q 281 1172 265 1144 q 322 1218 296 1200 q 394 1239 353 1239 q 417 1238 410 1239 q 496 1183 468 1226 q 517 1111 517 1150 q 515 1089 517 1096 q 496 1043 510 1064 q 461 1008 482 1022 m 392 1172 q 352 1160 368 1172 q 335 1126 336 1147 q 333 1115 333 1122 q 351 1075 333 1093 q 392 1057 368 1057 q 432 1074 414 1057 q 450 1114 450 1092 q 433 1154 450 1136 q 392 1172 415 1172 z "},"V":{"ha":876,"x_min":49,"x_max":828,"o":"m 508 1 l 368 1 l 49 925 l 181 925 l 439 182 l 697 925 l 828 925 l 508 1 z "},"W":{"ha":1286,"x_min":49,"x_max":1238,"o":"m 913 0 l 789 0 l 646 393 l 508 0 l 383 0 l 49 925 l 183 925 l 444 201 l 578 581 l 453 925 l 588 925 l 710 586 l 850 201 l 1103 925 l 1238 925 l 913 0 z "},"Ẃ":{"ha":1286,"x_min":49,"x_max":1238,"o":"m 913 0 l 789 0 l 646 393 l 508 0 l 383 0 l 49 925 l 183 925 l 444 201 l 578 581 l 453 925 l 588 925 l 710 586 l 850 201 l 1103 925 l 1238 925 l 913 0 m 679 992 l 586 992 l 638 1183 l 746 1183 l 679 992 z "},"Ŵ":{"ha":1286,"x_min":49,"x_max":1238,"o":"m 913 0 l 789 0 l 646 393 l 508 0 l 383 0 l 49 925 l 183 925 l 444 201 l 578 581 l 453 925 l 588 925 l 710 586 l 850 201 l 1103 925 l 1238 925 l 913 0 m 643 1056 l 572 986 l 460 986 l 644 1168 l 821 986 l 711 986 l 643 1056 z "},"Ẅ":{"ha":1286,"x_min":49,"x_max":1238,"o":"m 913 0 l 789 0 l 646 393 l 508 0 l 383 0 l 49 925 l 183 925 l 444 201 l 578 581 l 453 925 l 588 925 l 710 586 l 850 201 l 1103 925 l 1238 925 l 913 0 m 524 986 q 480 1003 497 986 q 463 1047 463 1021 q 480 1090 463 1072 q 524 1108 497 1108 q 567 1090 549 1108 q 585 1047 585 1072 q 567 1003 585 1021 q 524 986 549 986 m 763 986 q 719 1003 736 986 q 701 1047 701 1021 q 719 1090 701 1072 q 763 1108 736 1108 q 806 1090 788 1108 q 824 1047 824 1072 q 806 1003 824 1021 q 763 986 788 986 z "},"Ẁ":{"ha":1286,"x_min":49,"x_max":1238,"o":"m 913 0 l 789 0 l 646 393 l 508 0 l 383 0 l 49 925 l 183 925 l 444 201 l 578 581 l 453 925 l 588 925 l 710 586 l 850 201 l 1103 925 l 1238 925 l 913 0 m 701 992 l 608 992 l 542 1183 l 651 1183 l 701 992 z "},"X":{"ha":803,"x_min":49,"x_max":754,"o":"m 608 0 l 401 342 l 193 0 l 49 0 l 329 461 l 49 924 l 193 924 l 401 581 l 610 924 l 754 924 l 474 463 l 754 0 l 608 0 z "},"Y":{"ha":783,"x_min":49,"x_max":735,"o":"m 454 340 l 454 0 l 331 0 l 331 338 l 49 924 l 186 924 l 392 496 l 597 924 l 735 924 l 454 340 z "},"Ý":{"ha":783,"x_min":49,"x_max":735,"o":"m 454 340 l 454 0 l 331 0 l 331 338 l 49 924 l 186 924 l 392 496 l 597 924 l 735 924 l 454 340 m 428 992 l 335 992 l 386 1183 l 494 1183 l 428 992 z "},"Ŷ":{"ha":783,"x_min":49,"x_max":735,"o":"m 454 340 l 454 0 l 331 0 l 331 338 l 49 924 l 186 924 l 392 496 l 597 924 l 735 924 l 454 340 m 392 1056 l 321 986 l 208 986 l 393 1168 l 569 986 l 460 986 l 392 1056 z "},"Ÿ":{"ha":783,"x_min":49,"x_max":735,"o":"m 454 340 l 454 0 l 331 0 l 331 338 l 49 924 l 186 924 l 392 496 l 597 924 l 735 924 l 454 340 m 272 986 q 228 1003 246 986 q 211 1047 211 1021 q 228 1090 211 1072 q 272 1108 246 1108 q 315 1090 297 1108 q 333 1047 333 1072 q 315 1003 333 1021 q 272 986 297 986 m 511 986 q 467 1003 485 986 q 450 1047 450 1021 q 467 1090 450 1072 q 511 1108 485 1108 q 554 1090 536 1108 q 572 1047 572 1072 q 554 1003 572 1021 q 511 986 536 986 z "},"Ỳ":{"ha":783,"x_min":49,"x_max":735,"o":"m 454 340 l 454 0 l 331 0 l 331 338 l 49 924 l 186 924 l 392 496 l 597 924 l 735 924 l 454 340 m 450 992 l 357 992 l 290 1183 l 400 1183 l 450 992 z "},"Z":{"ha":739,"x_min":56,"x_max":683,"o":"m 56 110 l 525 799 l 56 799 l 56 924 l 683 924 l 683 811 l 215 126 l 683 126 l 683 0 l 56 0 l 56 110 z "},"Ź":{"ha":739,"x_min":56,"x_max":683,"o":"m 56 110 l 525 799 l 56 799 l 56 924 l 683 924 l 683 811 l 215 126 l 683 126 l 683 0 l 56 0 l 56 110 m 406 992 l 313 992 l 364 1183 l 472 1183 l 406 992 z "},"Ž":{"ha":739,"x_min":56,"x_max":683,"o":"m 56 110 l 525 799 l 56 799 l 56 924 l 683 924 l 683 811 l 215 126 l 683 126 l 683 0 l 56 0 l 56 110 m 546 1168 l 369 986 l 185 1168 l 297 1168 l 368 1099 l 436 1168 l 546 1168 z "},"Ż":{"ha":739,"x_min":56,"x_max":683,"o":"m 56 110 l 525 799 l 56 799 l 56 924 l 683 924 l 683 811 l 215 126 l 683 126 l 683 0 l 56 0 l 56 110 m 369 1015 q 326 1033 343 1015 q 308 1076 308 1050 q 326 1119 308 1101 q 369 1138 343 1138 q 413 1119 394 1138 q 431 1076 431 1101 q 413 1033 431 1050 q 369 1015 394 1015 z "},"a":{"ha":826,"x_min":56,"x_max":757,"o":"m 632 0 l 632 106 q 529 24 588 54 q 406 -7 471 -7 q 270 19 333 -7 q 158 94 207 46 q 83 206 110 142 q 56 342 56 271 q 83 477 56 413 q 158 590 110 542 q 270 665 207 639 q 406 692 333 692 q 531 664 472 692 q 632 586 590 636 l 632 678 l 757 678 l 757 0 l 632 0 m 406 568 q 317 551 360 568 q 244 503 275 533 q 197 430 214 472 q 179 342 179 388 q 197 254 179 296 q 244 182 214 213 q 317 134 275 151 q 406 117 360 117 q 493 134 451 117 q 565 182 535 151 q 613 254 596 213 q 631 342 631 296 q 613 430 631 388 q 565 503 596 472 q 493 551 535 533 q 406 568 451 568 z "},"á":{"ha":826,"x_min":56,"x_max":757,"o":"m 632 0 l 632 106 q 529 24 588 54 q 406 -7 471 -7 q 270 19 333 -7 q 158 94 207 46 q 83 206 110 142 q 56 342 56 271 q 83 477 56 413 q 158 590 110 542 q 270 665 207 639 q 406 692 333 692 q 531 664 472 692 q 632 586 590 636 l 632 678 l 757 678 l 757 0 l 632 0 m 406 568 q 317 551 360 568 q 244 503 275 533 q 197 430 214 472 q 179 342 179 388 q 197 254 179 296 q 244 182 214 213 q 317 134 275 151 q 406 117 360 117 q 493 134 451 117 q 565 182 535 151 q 613 254 596 213 q 631 342 631 296 q 613 430 631 388 q 565 503 596 472 q 493 551 535 533 q 406 568 451 568 m 450 763 l 357 763 l 408 954 l 517 954 l 450 763 z "},"ă":{"ha":826,"x_min":56,"x_max":757,"o":"m 632 0 l 632 106 q 529 24 588 54 q 406 -7 471 -7 q 270 19 333 -7 q 158 94 207 46 q 83 206 110 142 q 56 342 56 271 q 83 477 56 413 q 158 590 110 542 q 270 665 207 639 q 406 692 333 692 q 531 664 472 692 q 632 586 590 636 l 632 678 l 757 678 l 757 0 l 632 0 m 406 568 q 317 551 360 568 q 244 503 275 533 q 197 430 214 472 q 179 342 179 388 q 197 254 179 296 q 244 182 214 213 q 317 134 275 151 q 406 117 360 117 q 493 134 451 117 q 565 182 535 151 q 613 254 596 213 q 631 342 631 296 q 613 430 631 388 q 565 503 596 472 q 493 551 535 533 q 406 568 451 568 m 513 808 q 414 781 468 781 q 328 801 368 781 q 261 856 288 821 q 232 940 238 890 l 318 940 q 345 886 328 904 q 394 861 363 868 q 413 860 400 860 q 465 875 440 860 q 507 940 500 896 l 594 940 q 513 808 585 851 z "},"â":{"ha":826,"x_min":56,"x_max":757,"o":"m 632 0 l 632 106 q 529 24 588 54 q 406 -7 471 -7 q 270 19 333 -7 q 158 94 207 46 q 83 206 110 142 q 56 342 56 271 q 83 477 56 413 q 158 590 110 542 q 270 665 207 639 q 406 692 333 692 q 531 664 472 692 q 632 586 590 636 l 632 678 l 757 678 l 757 0 l 632 0 m 406 568 q 317 551 360 568 q 244 503 275 533 q 197 430 214 472 q 179 342 179 388 q 197 254 179 296 q 244 182 214 213 q 317 134 275 151 q 406 117 360 117 q 493 134 451 117 q 565 182 535 151 q 613 254 596 213 q 631 342 631 296 q 613 430 631 388 q 565 503 596 472 q 493 551 535 533 q 406 568 451 568 m 414 826 l 343 757 l 231 757 l 415 939 l 592 757 l 482 757 l 414 826 z "},"ä":{"ha":826,"x_min":56,"x_max":757,"o":"m 632 0 l 632 106 q 529 24 588 54 q 406 -7 471 -7 q 270 19 333 -7 q 158 94 207 46 q 83 206 110 142 q 56 342 56 271 q 83 477 56 413 q 158 590 110 542 q 270 665 207 639 q 406 692 333 692 q 531 664 472 692 q 632 586 590 636 l 632 678 l 757 678 l 757 0 l 632 0 m 406 568 q 317 551 360 568 q 244 503 275 533 q 197 430 214 472 q 179 342 179 388 q 197 254 179 296 q 244 182 214 213 q 317 134 275 151 q 406 117 360 117 q 493 134 451 117 q 565 182 535 151 q 613 254 596 213 q 631 342 631 296 q 613 430 631 388 q 565 503 596 472 q 493 551 535 533 q 406 568 451 568 m 294 757 q 251 774 268 757 q 233 818 233 792 q 251 861 233 843 q 294 879 268 879 q 338 861 319 879 q 356 818 356 843 q 338 774 356 792 q 294 757 319 757 m 533 757 q 490 774 507 757 q 472 818 472 792 q 490 861 472 843 q 533 879 507 879 q 576 861 558 879 q 594 818 594 843 q 576 774 594 792 q 533 757 558 757 z "},"à":{"ha":826,"x_min":56,"x_max":757,"o":"m 632 0 l 632 106 q 529 24 588 54 q 406 -7 471 -7 q 270 19 333 -7 q 158 94 207 46 q 83 206 110 142 q 56 342 56 271 q 83 477 56 413 q 158 590 110 542 q 270 665 207 639 q 406 692 333 692 q 531 664 472 692 q 632 586 590 636 l 632 678 l 757 678 l 757 0 l 632 0 m 406 568 q 317 551 360 568 q 244 503 275 533 q 197 430 214 472 q 179 342 179 388 q 197 254 179 296 q 244 182 214 213 q 317 134 275 151 q 406 117 360 117 q 493 134 451 117 q 565 182 535 151 q 613 254 596 213 q 631 342 631 296 q 613 430 631 388 q 565 503 596 472 q 493 551 535 533 q 406 568 451 568 m 472 763 l 379 763 l 313 954 l 422 954 l 472 763 z "},"ā":{"ha":826,"x_min":56,"x_max":757,"o":"m 632 0 l 632 106 q 529 24 588 54 q 406 -7 471 -7 q 270 19 333 -7 q 158 94 207 46 q 83 206 110 142 q 56 342 56 271 q 83 477 56 413 q 158 590 110 542 q 270 665 207 639 q 406 692 333 692 q 531 664 472 692 q 632 586 590 636 l 632 678 l 757 678 l 757 0 l 632 0 m 406 568 q 317 551 360 568 q 244 503 275 533 q 197 430 214 472 q 179 342 179 388 q 197 254 179 296 q 244 182 214 213 q 317 134 275 151 q 406 117 360 117 q 493 134 451 117 q 565 182 535 151 q 613 254 596 213 q 631 342 631 296 q 613 430 631 388 q 565 503 596 472 q 493 551 535 533 q 406 568 451 568 m 219 785 l 219 861 l 608 861 l 608 785 l 219 785 z "},"ą":{"ha":826,"x_min":56,"x_max":833,"o":"m 833 -228 q 733 -282 788 -281 l 722 -282 q 690 -279 707 -282 q 646 -257 667 -274 q 613 -219 625 -240 q 592 -149 592 -186 q 594 -122 592 -139 q 675 -22 610 -47 l 676 0 l 632 0 l 632 106 q 529 24 588 54 q 406 -7 471 -7 q 270 19 333 -7 q 158 94 207 46 q 83 206 110 142 q 56 342 56 271 q 83 477 56 413 q 158 590 110 542 q 270 665 207 639 q 406 692 333 692 q 531 664 472 692 q 632 586 590 636 l 632 678 l 757 678 l 757 0 l 756 -99 q 731 -97 747 -97 q 695 -106 710 -97 q 675 -139 681 -115 q 674 -151 674 -143 q 687 -184 674 -172 q 719 -196 700 -196 q 772 -171 750 -196 l 833 -228 m 565 182 q 613 254 596 213 q 631 342 631 296 q 613 430 631 388 q 565 503 596 472 q 493 551 535 533 q 406 568 451 568 q 317 551 360 568 q 244 503 275 533 q 197 430 214 472 q 179 342 179 388 q 197 254 179 296 q 244 182 214 213 q 317 134 275 151 q 406 117 360 117 q 493 134 451 117 q 565 182 535 151 z "},"å":{"ha":826,"x_min":56,"x_max":757,"o":"m 632 0 l 632 106 q 529 24 588 54 q 406 -7 471 -7 q 270 19 333 -7 q 158 94 207 46 q 83 206 110 142 q 56 342 56 271 q 83 477 56 413 q 158 590 110 542 q 270 665 207 639 q 406 692 333 692 q 531 664 472 692 q 632 586 590 636 l 632 678 l 757 678 l 757 0 l 632 0 m 406 568 q 317 551 360 568 q 244 503 275 533 q 197 430 214 472 q 179 342 179 388 q 197 254 179 296 q 244 182 214 213 q 317 134 275 151 q 406 117 360 117 q 493 134 451 117 q 565 182 535 151 q 613 254 596 213 q 631 342 631 296 q 613 430 631 388 q 565 503 596 472 q 493 551 535 533 q 406 568 451 568 m 483 779 q 414 758 450 758 q 308 815 349 758 q 288 885 288 849 q 303 943 288 915 q 344 989 318 971 q 417 1010 375 1010 q 439 1008 432 1010 q 518 954 490 997 q 539 882 539 921 q 538 860 539 867 q 518 814 532 835 q 483 779 504 793 m 414 943 q 374 931 390 943 q 357 897 358 918 q 356 886 356 893 q 373 846 356 864 q 414 828 390 828 q 454 845 436 828 q 472 885 472 863 q 455 925 472 907 q 414 943 438 943 z "},"ã":{"ha":826,"x_min":56,"x_max":757,"o":"m 632 0 l 632 106 q 529 24 588 54 q 406 -7 471 -7 q 270 19 333 -7 q 158 94 207 46 q 83 206 110 142 q 56 342 56 271 q 83 477 56 413 q 158 590 110 542 q 270 665 207 639 q 406 692 333 692 q 531 664 472 692 q 632 586 590 636 l 632 678 l 757 678 l 757 0 l 632 0 m 406 568 q 317 551 360 568 q 244 503 275 533 q 197 430 214 472 q 179 342 179 388 q 197 254 179 296 q 244 182 214 213 q 317 134 275 151 q 406 117 360 117 q 493 134 451 117 q 565 182 535 151 q 613 254 596 213 q 631 342 631 296 q 613 430 631 388 q 565 503 596 472 q 493 551 535 533 q 406 568 451 568 m 632 861 q 569 790 601 813 q 500 767 538 767 q 453 775 476 767 q 401 799 431 783 q 360 817 376 811 q 326 825 343 824 q 272 779 299 825 l 267 767 l 204 824 q 242 872 219 851 q 325 910 278 910 q 377 901 353 910 q 438 875 401 893 q 478 856 464 861 q 506 853 493 851 q 540 868 525 854 q 578 913 556 882 l 632 861 z "},"æ":{"ha":1388,"x_min":56,"x_max":1332,"o":"m 1229 592 q 1332 347 1332 486 q 1328 294 1332 322 l 765 294 q 790 225 765 261 q 846 164 814 189 q 982 118 904 118 q 1183 238 1106 118 l 1289 175 q 1156 40 1235 88 q 982 -7 1076 -7 q 862 15 919 -7 q 757 75 804 36 l 757 0 l 632 0 l 632 106 q 529 24 588 54 q 406 -7 471 -7 q 270 19 333 -7 q 158 94 207 46 q 83 206 110 142 q 56 342 56 271 q 83 477 56 413 q 158 590 110 542 q 270 665 207 639 q 406 692 333 692 q 531 664 472 692 q 632 586 590 636 l 632 678 l 757 678 l 757 613 q 861 672 803 651 q 982 693 919 693 q 1117 667 1053 693 q 1229 592 1182 640 m 1199 401 q 1169 488 1199 447 q 1089 554 1139 529 q 982 579 1039 579 q 875 554 925 579 q 795 488 825 529 q 765 401 765 447 l 1199 401 m 565 182 q 613 254 596 213 q 631 342 631 296 q 613 430 631 388 q 565 503 596 472 q 493 551 535 533 q 406 568 451 568 q 317 551 360 568 q 244 503 275 533 q 197 430 214 472 q 179 342 179 388 q 197 254 179 296 q 244 182 214 213 q 317 134 275 151 q 406 117 360 117 q 493 134 451 117 q 565 182 535 151 z "},"b":{"ha":829,"x_min":69,"x_max":774,"o":"m 422 -7 q 297 24 357 -7 q 192 107 236 54 l 192 0 l 69 0 l 69 922 l 192 922 l 192 594 q 283 671 222 638 q 422 704 343 704 q 558 676 493 704 q 671 600 624 649 q 747 485 719 550 q 774 349 774 421 q 747 212 774 276 q 671 97 719 147 q 558 21 624 49 q 422 -7 493 -7 m 422 578 q 334 560 376 578 q 261 511 292 543 q 213 437 231 479 q 194 349 194 394 q 261 186 194 256 q 334 136 292 154 q 422 118 376 118 q 510 136 468 118 q 582 186 551 154 q 649 349 649 256 q 631 437 649 394 q 582 511 613 479 q 510 560 551 543 q 422 578 468 578 z "},"c":{"ha":736,"x_min":56,"x_max":681,"o":"m 403 -7 q 269 20 332 -7 q 157 96 206 47 q 83 208 110 143 q 56 343 56 272 q 83 478 56 414 q 157 590 110 543 q 269 666 206 639 q 403 693 332 693 q 681 554 567 693 l 572 492 q 403 568 500 568 q 316 551 357 568 q 244 503 275 533 q 196 431 214 472 q 178 343 178 389 q 196 256 178 297 q 244 183 214 214 q 316 135 275 153 q 403 118 357 118 q 572 194 500 118 l 681 132 q 403 -7 567 -7 z "},"ć":{"ha":736,"x_min":56,"x_max":681,"o":"m 403 -7 q 269 20 332 -7 q 157 96 206 47 q 83 208 110 143 q 56 343 56 272 q 83 478 56 414 q 157 590 110 543 q 269 666 206 639 q 403 693 332 693 q 681 554 567 693 l 572 492 q 403 568 500 568 q 316 551 357 568 q 244 503 275 533 q 196 431 214 472 q 178 343 178 389 q 196 256 178 297 q 244 183 214 214 q 316 135 275 153 q 403 118 357 118 q 572 194 500 118 l 681 132 q 403 -7 567 -7 m 400 763 l 307 763 l 358 954 l 467 954 l 400 763 z "},"č":{"ha":736,"x_min":56,"x_max":681,"o":"m 403 -7 q 269 20 332 -7 q 157 96 206 47 q 83 208 110 143 q 56 343 56 272 q 83 478 56 414 q 157 590 110 543 q 269 666 206 639 q 403 693 332 693 q 681 554 567 693 l 572 492 q 403 568 500 568 q 316 551 357 568 q 244 503 275 533 q 196 431 214 472 q 178 343 178 389 q 196 256 178 297 q 244 183 214 214 q 316 135 275 153 q 403 118 357 118 q 572 194 500 118 l 681 132 q 403 -7 567 -7 m 540 939 l 364 757 l 179 939 l 292 939 l 363 869 l 431 939 l 540 939 z "},"ç":{"ha":736,"x_min":56,"x_max":681,"o":"m 403 118 q 572 194 500 118 l 681 132 q 432 -6 576 6 l 421 -32 q 487 -80 463 -47 q 511 -156 511 -112 q 475 -247 511 -208 q 435 -274 458 -264 q 388 -285 413 -285 q 297 -246 344 -285 l 351 -185 q 369 -197 365 -196 q 388 -203 379 -203 q 419 -189 406 -203 q 432 -156 432 -175 q 419 -122 432 -136 q 388 -108 406 -108 q 361 -115 381 -108 l 333 -46 l 350 -3 q 244 33 294 7 q 157 96 194 58 q 83 208 110 143 q 56 343 56 272 q 83 478 56 414 q 157 590 110 543 q 269 666 206 639 q 403 693 332 693 q 681 554 567 693 l 572 492 q 403 568 500 568 q 316 551 357 568 q 244 503 275 533 q 196 431 214 472 q 178 343 178 389 q 196 256 178 297 q 244 183 214 214 q 316 135 275 153 q 403 118 357 118 z "},"d":{"ha":829,"x_min":56,"x_max":760,"o":"m 638 0 l 638 107 q 533 24 593 54 q 407 -7 472 -7 q 269 20 333 -7 q 158 97 206 47 q 83 212 110 147 q 56 349 56 276 q 83 485 56 421 q 158 600 110 550 q 269 677 206 650 q 407 704 333 704 q 538 675 479 704 q 638 594 597 646 l 638 922 l 760 922 l 760 0 l 638 0 m 407 578 q 319 560 361 578 q 247 511 278 543 q 199 437 217 479 q 181 349 181 394 q 247 186 181 256 q 319 136 278 154 q 407 118 361 118 q 495 136 453 118 q 568 186 538 154 q 635 349 635 256 q 617 437 635 394 q 568 511 599 479 q 495 560 538 543 q 407 578 453 578 z "},"ð":{"ha":672,"x_min":56,"x_max":617,"o":"m 593 400 q 617 282 617 342 q 595 171 617 224 q 535 79 574 118 q 444 17 496 40 q 336 -6 393 -6 q 228 17 279 -6 q 138 79 176 40 q 77 171 99 118 q 56 282 56 224 q 77 393 56 340 q 138 486 99 446 q 227 549 175 526 q 336 571 279 571 q 390 564 356 571 l 319 735 l 192 707 l 175 783 l 289 808 l 240 924 l 374 924 l 411 833 l 532 860 l 549 783 l 442 761 l 593 400 m 449 168 q 482 219 469 189 q 494 282 494 249 q 482 345 494 315 q 449 397 469 375 q 399 432 428 419 q 336 444 369 444 q 224 397 271 444 q 190 345 203 375 q 178 282 178 315 q 190 219 178 249 q 224 168 203 189 q 336 121 271 121 q 399 133 369 121 q 449 168 428 146 z "},"ď":{"ha":829,"x_min":56,"x_max":760,"o":"m 638 0 l 638 107 q 533 24 593 54 q 407 -7 472 -7 q 269 20 333 -7 q 158 97 206 47 q 83 212 110 147 q 56 349 56 276 q 83 485 56 421 q 158 600 110 550 q 269 677 206 650 q 407 704 333 704 q 538 675 479 704 q 638 594 597 646 l 638 922 l 760 922 l 760 0 l 638 0 m 407 578 q 319 560 361 578 q 247 511 278 543 q 199 437 217 479 q 181 349 181 394 q 247 186 181 256 q 319 136 278 154 q 407 118 361 118 q 495 136 453 118 q 568 186 538 154 q 635 349 635 256 q 617 437 635 394 q 568 511 599 479 q 495 560 538 543 q 407 578 453 578 m 592 1168 l 415 986 l 231 1168 l 343 1168 l 414 1099 l 482 1168 l 592 1168 z "},"đ":{"ha":885,"x_min":56,"x_max":829,"o":"m 829 306 l 760 306 l 760 0 l 638 0 l 638 107 q 533 24 593 54 q 407 -7 472 -7 q 269 20 333 -7 q 158 97 206 47 q 83 212 110 147 q 56 349 56 276 q 83 485 56 421 q 158 600 110 550 q 269 677 206 650 q 407 704 333 704 q 538 675 479 704 q 638 594 597 646 l 638 922 l 760 922 l 760 389 l 829 389 l 829 306 m 568 186 q 631 306 619 239 l 239 306 l 239 389 l 631 389 q 568 511 618 461 q 495 560 538 543 q 407 578 453 578 q 319 560 361 578 q 247 511 278 543 q 199 437 217 479 q 181 349 181 394 q 247 186 181 256 q 319 136 278 154 q 407 118 361 118 q 495 136 453 118 q 568 186 538 154 z "},"e":{"ha":811,"x_min":56,"x_max":756,"o":"m 189 294 q 213 225 189 261 q 269 164 238 189 q 406 118 328 118 q 607 238 529 118 l 713 175 q 579 40 658 88 q 406 -7 500 -7 q 271 20 335 -7 q 158 96 207 47 q 83 208 110 144 q 56 343 56 272 q 83 478 56 414 q 158 592 110 543 q 270 667 206 640 q 406 693 335 693 q 541 667 476 693 q 653 592 606 640 q 756 347 756 486 q 751 294 756 322 l 189 294 m 406 579 q 299 554 349 579 q 219 488 249 529 q 189 401 189 447 l 622 401 q 592 488 622 447 q 513 554 563 529 q 406 579 463 579 z "},"é":{"ha":811,"x_min":56,"x_max":756,"o":"m 189 294 q 213 225 189 261 q 269 164 238 189 q 406 118 328 118 q 607 238 529 118 l 713 175 q 579 40 658 88 q 406 -7 500 -7 q 271 20 335 -7 q 158 96 207 47 q 83 208 110 144 q 56 343 56 272 q 83 478 56 414 q 158 592 110 543 q 270 667 206 640 q 406 693 335 693 q 541 667 476 693 q 653 592 606 640 q 756 347 756 486 q 751 294 756 322 l 189 294 m 406 579 q 299 554 349 579 q 219 488 249 529 q 189 401 189 447 l 622 401 q 592 488 622 447 q 513 554 563 529 q 406 579 463 579 m 442 761 l 349 761 l 400 953 l 508 953 l 442 761 z "},"ě":{"ha":811,"x_min":56,"x_max":756,"o":"m 189 294 q 213 225 189 261 q 269 164 238 189 q 406 118 328 118 q 607 238 529 118 l 713 175 q 579 40 658 88 q 406 -7 500 -7 q 271 20 335 -7 q 158 96 207 47 q 83 208 110 144 q 56 343 56 272 q 83 478 56 414 q 158 592 110 543 q 270 667 206 640 q 406 693 335 693 q 541 667 476 693 q 653 592 606 640 q 756 347 756 486 q 751 294 756 322 l 189 294 m 406 579 q 299 554 349 579 q 219 488 249 529 q 189 401 189 447 l 622 401 q 592 488 622 447 q 513 554 563 529 q 406 579 463 579 m 582 938 l 406 756 l 221 938 l 333 938 l 404 868 l 472 938 l 582 938 z "},"ê":{"ha":811,"x_min":56,"x_max":756,"o":"m 189 294 q 213 225 189 261 q 269 164 238 189 q 406 118 328 118 q 607 238 529 118 l 713 175 q 579 40 658 88 q 406 -7 500 -7 q 271 20 335 -7 q 158 96 207 47 q 83 208 110 144 q 56 343 56 272 q 83 478 56 414 q 158 592 110 543 q 270 667 206 640 q 406 693 335 693 q 541 667 476 693 q 653 592 606 640 q 756 347 756 486 q 751 294 756 322 l 189 294 m 406 579 q 299 554 349 579 q 219 488 249 529 q 189 401 189 447 l 622 401 q 592 488 622 447 q 513 554 563 529 q 406 579 463 579 m 406 825 l 335 756 l 222 756 l 407 938 l 583 756 l 474 756 l 406 825 z "},"ë":{"ha":811,"x_min":56,"x_max":756,"o":"m 189 294 q 213 225 189 261 q 269 164 238 189 q 406 118 328 118 q 607 238 529 118 l 713 175 q 579 40 658 88 q 406 -7 500 -7 q 271 20 335 -7 q 158 96 207 47 q 83 208 110 144 q 56 343 56 272 q 83 478 56 414 q 158 592 110 543 q 270 667 206 640 q 406 693 335 693 q 541 667 476 693 q 653 592 606 640 q 756 347 756 486 q 751 294 756 322 l 189 294 m 406 579 q 299 554 349 579 q 219 488 249 529 q 189 401 189 447 l 622 401 q 592 488 622 447 q 513 554 563 529 q 406 579 463 579 m 286 756 q 242 773 260 756 q 225 817 225 790 q 242 860 225 842 q 286 878 260 878 q 329 860 311 878 q 347 817 347 842 q 329 773 347 790 q 286 756 311 756 m 525 756 q 481 773 499 756 q 464 817 464 790 q 481 860 464 842 q 525 878 499 878 q 568 860 550 878 q 586 817 586 842 q 568 773 586 790 q 525 756 550 756 z "},"ė":{"ha":811,"x_min":56,"x_max":756,"o":"m 189 294 q 213 225 189 261 q 269 164 238 189 q 406 118 328 118 q 607 238 529 118 l 713 175 q 579 40 658 88 q 406 -7 500 -7 q 271 20 335 -7 q 158 96 207 47 q 83 208 110 144 q 56 343 56 272 q 83 478 56 414 q 158 592 110 543 q 270 667 206 640 q 406 693 335 693 q 541 667 476 693 q 653 592 606 640 q 756 347 756 486 q 751 294 756 322 l 189 294 m 406 579 q 299 554 349 579 q 219 488 249 529 q 189 401 189 447 l 622 401 q 592 488 622 447 q 513 554 563 529 q 406 579 463 579 m 406 785 q 362 802 379 785 q 344 846 344 819 q 362 889 344 871 q 406 907 379 907 q 449 889 431 907 q 467 846 467 871 q 449 802 467 819 q 406 785 431 785 z "},"è":{"ha":811,"x_min":56,"x_max":756,"o":"m 189 294 q 213 225 189 261 q 269 164 238 189 q 406 118 328 118 q 607 238 529 118 l 713 175 q 579 40 658 88 q 406 -7 500 -7 q 271 20 335 -7 q 158 96 207 47 q 83 208 110 144 q 56 343 56 272 q 83 478 56 414 q 158 592 110 543 q 270 667 206 640 q 406 693 335 693 q 541 667 476 693 q 653 592 606 640 q 756 347 756 486 q 751 294 756 322 l 189 294 m 406 579 q 299 554 349 579 q 219 488 249 529 q 189 401 189 447 l 622 401 q 592 488 622 447 q 513 554 563 529 q 406 579 463 579 m 464 761 l 371 761 l 304 953 l 414 953 l 464 761 z "},"ē":{"ha":811,"x_min":56,"x_max":756,"o":"m 189 294 q 213 225 189 261 q 269 164 238 189 q 406 118 328 118 q 607 238 529 118 l 713 175 q 579 40 658 88 q 406 -7 500 -7 q 271 20 335 -7 q 158 96 207 47 q 83 208 110 144 q 56 343 56 272 q 83 478 56 414 q 158 592 110 543 q 270 667 206 640 q 406 693 335 693 q 541 667 476 693 q 653 592 606 640 q 756 347 756 486 q 751 294 756 322 l 189 294 m 406 579 q 299 554 349 579 q 219 488 249 529 q 189 401 189 447 l 622 401 q 592 488 622 447 q 513 554 563 529 q 406 579 463 579 m 211 783 l 211 860 l 600 860 l 600 783 l 211 783 z "},"ę":{"ha":811,"x_min":56,"x_max":756,"o":"m 653 592 q 756 347 756 486 q 751 294 756 322 l 189 294 q 213 225 189 261 q 269 164 238 189 q 406 118 328 118 q 607 238 529 118 l 713 175 q 598 52 665 99 q 450 -4 531 6 l 449 -79 q 424 -78 440 -78 q 388 -87 403 -78 q 368 -119 374 -96 q 367 -132 367 -124 q 380 -165 367 -153 q 413 -176 393 -176 q 465 -151 443 -176 l 526 -208 q 426 -262 481 -261 l 415 -262 q 383 -260 400 -262 q 339 -237 360 -254 q 306 -200 318 -221 q 285 -129 285 -167 q 288 -103 285 -119 q 364 -4 303 -32 q 252 29 306 3 q 158 96 199 56 q 83 208 110 144 q 56 343 56 272 q 83 478 56 414 q 158 592 110 543 q 270 667 206 640 q 406 693 335 693 q 541 667 476 693 q 653 592 606 640 m 622 401 q 592 488 622 447 q 513 554 563 529 q 406 579 463 579 q 299 554 349 579 q 219 488 249 529 q 189 401 189 447 l 622 401 z "},"f":{"ha":438,"x_min":69,"x_max":396,"o":"m 251 578 l 251 0 l 135 0 l 135 578 l 69 578 l 69 694 l 136 694 q 174 814 139 761 q 268 896 210 867 q 396 925 326 925 l 396 806 q 298 776 338 808 q 256 694 258 744 l 396 694 l 396 578 l 251 578 z "},"g":{"ha":825,"x_min":56,"x_max":756,"o":"m 406 -296 q 119 -149 240 -296 l 229 -83 q 406 -171 304 -171 q 493 -153 451 -171 q 565 -103 535 -135 q 613 -29 596 -71 q 631 58 631 13 l 631 92 q 404 -14 536 -14 q 269 16 333 -14 q 157 97 204 46 q 83 214 110 149 q 56 349 56 279 q 83 483 56 419 q 158 594 110 546 q 270 668 207 642 q 404 694 333 694 q 540 661 481 694 q 631 586 600 628 l 631 682 l 756 682 l 756 58 q 728 -78 756 -14 q 653 -192 701 -142 q 541 -268 606 -240 q 406 -296 476 -296 m 404 568 q 317 551 358 568 q 244 501 275 533 q 196 427 214 469 q 178 339 178 385 q 196 251 178 293 q 244 178 214 208 q 317 129 275 147 q 404 111 358 111 q 492 129 450 111 q 564 178 533 147 q 612 251 594 208 q 629 339 629 293 q 612 427 629 385 q 564 501 594 469 q 492 551 533 533 q 404 568 450 568 z "},"ģ":{"ha":825,"x_min":56,"x_max":756,"o":"m 406 -296 q 119 -149 240 -296 l 229 -83 q 406 -171 304 -171 q 493 -153 451 -171 q 565 -103 535 -135 q 613 -29 596 -71 q 631 58 631 13 l 631 92 q 404 -14 536 -14 q 269 16 333 -14 q 157 97 204 46 q 83 214 110 149 q 56 349 56 279 q 83 483 56 419 q 158 594 110 546 q 270 668 207 642 q 404 694 333 694 q 540 661 481 694 q 631 586 600 628 l 631 682 l 756 682 l 756 58 q 728 -78 756 -14 q 653 -192 701 -142 q 541 -268 606 -240 q 406 -296 476 -296 m 404 568 q 317 551 358 568 q 244 501 275 533 q 196 427 214 469 q 178 339 178 385 q 196 251 178 293 q 244 178 214 208 q 317 129 275 147 q 404 111 358 111 q 492 129 450 111 q 564 178 533 147 q 612 251 594 208 q 629 339 629 293 q 612 427 629 385 q 564 501 594 469 q 492 551 533 533 q 404 568 450 568 m 428 792 l 338 792 l 394 972 l 496 972 l 428 792 z "},"h":{"ha":690,"x_min":69,"x_max":621,"o":"m 499 0 l 499 426 q 453 538 499 492 q 403 571 432 558 q 346 583 375 583 q 238 538 283 583 q 192 426 192 492 l 192 0 l 69 0 l 69 926 l 192 926 l 192 646 q 346 708 258 708 q 451 687 401 708 q 540 626 501 665 q 599 535 578 588 q 621 426 621 483 l 621 0 l 499 0 z "},"i":{"ha":267,"x_min":69,"x_max":197,"o":"m 133 794 q 88 813 107 794 q 69 858 69 832 q 88 903 69 885 q 133 922 107 922 q 178 903 160 922 q 197 858 197 885 q 178 813 197 832 q 133 794 160 794 m 76 0 l 76 694 l 193 694 l 193 0 l 76 0 z "},"ı":{"ha":267,"x_min":76,"x_max":193,"o":"m 76 0 l 76 694 l 193 694 l 193 0 l 76 0 z "},"í":{"ha":283,"x_min":56,"x_max":228,"o":"m 56 0 l 56 694 l 172 694 l 172 0 l 56 0 m 161 763 l 68 763 l 119 954 l 228 954 l 161 763 z "},"î":{"ha":406,"x_min":0,"x_max":361,"o":"m 146 0 l 146 694 l 263 694 l 263 0 l 146 0 m 183 826 l 113 757 l 0 757 l 185 939 l 361 757 l 251 757 l 183 826 z "},"ï":{"ha":472,"x_min":56,"x_max":417,"o":"m 178 0 l 178 694 l 294 694 l 294 0 l 178 0 m 117 757 q 73 774 90 757 q 56 818 56 792 q 73 861 56 843 q 117 879 90 879 q 160 861 142 879 q 178 818 178 843 q 160 774 178 792 q 117 757 142 757 m 356 757 q 312 774 329 757 q 294 818 294 792 q 312 861 294 843 q 356 879 329 879 q 399 861 381 879 q 417 818 417 843 q 399 774 417 792 q 356 757 381 757 z "},"ì":{"ha":281,"x_min":44,"x_max":225,"o":"m 108 0 l 108 694 l 225 694 l 225 0 l 108 0 m 204 763 l 111 763 l 44 954 l 154 954 l 204 763 z "},"ī":{"ha":500,"x_min":56,"x_max":444,"o":"m 192 0 l 192 694 l 308 694 l 308 0 l 192 0 m 56 785 l 56 861 l 444 861 l 444 785 l 56 785 z "},"į":{"ha":267,"x_min":18,"x_max":260,"o":"m 133 786 q 90 803 107 786 q 72 847 72 821 q 90 890 72 872 q 133 908 107 908 q 176 890 158 908 q 194 847 194 872 q 176 803 194 821 q 133 786 158 786 m 260 -228 q 160 -282 214 -281 l 149 -282 q 117 -279 133 -282 q 72 -257 93 -274 q 39 -219 51 -240 q 18 -149 18 -186 q 21 -122 18 -139 q 101 -22 36 -47 l 103 0 l 76 0 l 76 694 l 193 694 l 193 0 l 183 0 l 182 -99 q 157 -97 174 -97 q 122 -106 136 -97 q 101 -139 107 -115 q 100 -151 100 -143 q 113 -184 100 -172 q 146 -196 126 -196 q 199 -171 176 -196 l 260 -228 z "},"j":{"ha":339,"x_min":0,"x_max":263,"o":"m 199 796 q 153 815 172 796 q 135 860 135 833 q 153 905 135 886 q 199 924 172 924 q 244 905 225 924 q 263 860 263 886 q 244 815 263 833 q 199 796 225 796 m 0 -171 q 103 -131 64 -171 q 142 -32 142 -92 l 142 694 l 257 694 l 257 -32 q 238 -134 257 -86 q 185 -218 219 -182 q 102 -275 150 -254 q 0 -296 54 -296 l 0 -171 z "},"ȷ":{"ha":339,"x_min":0,"x_max":257,"o":"m 0 -171 q 103 -131 64 -171 q 142 -32 142 -92 l 142 694 l 257 694 l 257 -32 q 238 -134 257 -86 q 185 -218 219 -182 q 102 -275 150 -254 q 0 -296 54 -296 l 0 -171 z "},"k":{"ha":619,"x_min":69,"x_max":564,"o":"m 403 0 l 192 257 l 192 0 l 69 0 l 69 924 l 192 924 l 192 525 l 381 703 l 563 703 l 233 397 l 564 0 l 403 0 z "},"ķ":{"ha":619,"x_min":69,"x_max":564,"o":"m 403 0 l 192 257 l 192 0 l 69 0 l 69 924 l 192 924 l 192 525 l 381 703 l 563 703 l 233 397 l 564 0 l 403 0 m 299 -276 l 206 -276 l 258 -50 l 369 -50 l 299 -276 z "},"l":{"ha":250,"x_min":69,"x_max":181,"o":"m 69 0 l 69 924 l 181 924 l 181 0 l 69 0 z "},"ĺ":{"ha":279,"x_min":69,"x_max":238,"o":"m 69 0 l 69 924 l 181 924 l 181 0 l 69 0 m 171 992 l 78 992 l 129 1183 l 238 1183 l 171 992 z "},"ľ":{"ha":250,"x_min":-60,"x_max":301,"o":"m 69 0 l 69 924 l 181 924 l 181 0 l 69 0 m 301 1168 l 125 986 l -60 1168 l 53 1168 l 124 1099 l 192 1168 l 301 1168 z "},"ļ":{"ha":272,"x_min":35,"x_max":206,"o":"m 94 0 l 94 924 l 206 924 l 206 0 l 94 0 m 128 -276 l 35 -276 l 88 -50 l 199 -50 l 128 -276 z "},"ł":{"ha":653,"x_min":56,"x_max":585,"o":"m 383 508 l 383 0 l 272 0 l 272 303 l 169 111 l 56 111 l 272 514 l 272 924 l 383 924 l 383 721 l 471 883 l 585 883 l 383 508 z "},"m":{"ha":1063,"x_min":69,"x_max":993,"o":"m 868 0 l 868 435 q 828 531 868 492 q 732 569 789 569 q 635 531 676 569 q 594 436 594 493 l 594 0 l 468 0 l 468 436 q 429 531 468 494 q 331 569 388 569 q 236 531 275 569 q 194 432 194 489 l 194 0 l 69 0 l 69 678 l 194 678 l 194 626 q 256 675 218 656 q 331 694 294 694 q 442 670 392 694 q 531 603 493 646 q 619 670 568 646 q 732 694 671 694 q 833 675 786 694 q 917 619 881 656 q 973 535 953 583 q 993 435 993 488 l 993 0 l 868 0 z "},"n":{"ha":676,"x_min":69,"x_max":621,"o":"m 499 0 l 499 417 q 453 525 499 479 q 344 569 408 569 q 236 524 282 569 q 203 474 215 503 q 190 417 190 446 l 190 0 l 69 0 l 69 678 l 190 678 l 190 621 q 260 674 217 653 q 344 694 303 694 q 451 673 400 694 q 540 613 501 651 q 599 524 578 575 q 621 417 621 474 l 621 0 l 499 0 z "},"ń":{"ha":676,"x_min":69,"x_max":621,"o":"m 499 0 l 499 417 q 453 525 499 479 q 344 569 408 569 q 236 524 282 569 q 203 474 215 503 q 190 417 190 446 l 190 0 l 69 0 l 69 678 l 190 678 l 190 621 q 260 674 217 653 q 344 694 303 694 q 451 673 400 694 q 540 613 501 651 q 599 524 578 575 q 621 417 621 474 l 621 0 l 499 0 m 375 763 l 282 763 l 333 954 l 442 954 l 375 763 z "},"ň":{"ha":676,"x_min":69,"x_max":621,"o":"m 499 0 l 499 417 q 453 525 499 479 q 344 569 408 569 q 236 524 282 569 q 203 474 215 503 q 190 417 190 446 l 190 0 l 69 0 l 69 678 l 190 678 l 190 621 q 260 674 217 653 q 344 694 303 694 q 451 673 400 694 q 540 613 501 651 q 599 524 578 575 q 621 417 621 474 l 621 0 l 499 0 m 515 939 l 339 757 l 154 939 l 267 939 l 338 869 l 406 939 l 515 939 z "},"ņ":{"ha":676,"x_min":69,"x_max":621,"o":"m 499 0 l 499 417 q 453 525 499 479 q 344 569 408 569 q 236 524 282 569 q 203 474 215 503 q 190 417 190 446 l 190 0 l 69 0 l 69 678 l 190 678 l 190 621 q 260 674 217 653 q 344 694 303 694 q 451 673 400 694 q 540 613 501 651 q 599 524 578 575 q 621 417 621 474 l 621 0 l 499 0 m 328 -276 l 235 -276 l 288 -50 l 399 -50 l 328 -276 z "},"ñ":{"ha":676,"x_min":69,"x_max":621,"o":"m 499 0 l 499 417 q 453 525 499 479 q 344 569 408 569 q 236 524 282 569 q 203 474 215 503 q 190 417 190 446 l 190 0 l 69 0 l 69 678 l 190 678 l 190 621 q 260 674 217 653 q 344 694 303 694 q 451 673 400 694 q 540 613 501 651 q 599 524 578 575 q 621 417 621 474 l 621 0 l 499 0 m 557 861 q 494 790 526 813 q 425 767 463 767 q 378 775 401 767 q 326 799 356 783 q 285 817 301 811 q 251 825 268 824 q 197 779 224 825 l 192 767 l 129 824 q 167 872 144 851 q 250 910 203 910 q 302 901 278 910 q 363 875 326 893 q 403 856 389 861 q 431 853 418 851 q 465 868 450 854 q 503 913 481 882 l 557 861 z "},"o":{"ha":817,"x_min":56,"x_max":761,"o":"m 407 -7 q 272 21 336 -7 q 160 97 208 49 q 83 210 111 146 q 56 344 56 274 q 83 482 56 417 q 160 596 111 547 q 272 672 208 644 q 407 699 336 699 q 544 672 479 699 q 658 596 610 644 q 734 482 707 547 q 761 344 761 417 q 734 210 761 274 q 658 97 707 146 q 544 21 610 49 q 407 -7 479 -7 m 407 575 q 247 508 314 575 q 197 433 215 476 q 179 344 179 390 q 197 257 179 299 q 247 183 215 215 q 320 133 279 151 q 407 115 361 115 q 496 133 453 115 q 569 183 539 151 q 618 257 600 215 q 636 344 636 299 q 618 433 636 390 q 569 508 600 476 q 497 558 539 540 q 407 575 454 575 z "},"ó":{"ha":817,"x_min":56,"x_max":761,"o":"m 407 -7 q 272 21 336 -7 q 160 97 208 49 q 83 210 111 146 q 56 344 56 274 q 83 482 56 417 q 160 596 111 547 q 272 672 208 644 q 407 699 336 699 q 544 672 479 699 q 658 596 610 644 q 734 482 707 547 q 761 344 761 417 q 734 210 761 274 q 658 97 707 146 q 544 21 610 49 q 407 -7 479 -7 m 407 575 q 247 508 314 575 q 197 433 215 476 q 179 344 179 390 q 197 257 179 299 q 247 183 215 215 q 320 133 279 151 q 407 115 361 115 q 496 133 453 115 q 569 183 539 151 q 618 257 600 215 q 636 344 636 299 q 618 433 636 390 q 569 508 600 476 q 497 558 539 540 q 407 575 454 575 m 443 767 l 350 767 l 401 958 l 510 958 l 443 767 z "},"ô":{"ha":817,"x_min":56,"x_max":761,"o":"m 407 -7 q 272 21 336 -7 q 160 97 208 49 q 83 210 111 146 q 56 344 56 274 q 83 482 56 417 q 160 596 111 547 q 272 672 208 644 q 407 699 336 699 q 544 672 479 699 q 658 596 610 644 q 734 482 707 547 q 761 344 761 417 q 734 210 761 274 q 658 97 707 146 q 544 21 610 49 q 407 -7 479 -7 m 407 575 q 247 508 314 575 q 197 433 215 476 q 179 344 179 390 q 197 257 179 299 q 247 183 215 215 q 320 133 279 151 q 407 115 361 115 q 496 133 453 115 q 569 183 539 151 q 618 257 600 215 q 636 344 636 299 q 618 433 636 390 q 569 508 600 476 q 497 558 539 540 q 407 575 454 575 m 407 831 l 336 761 l 224 761 l 408 943 l 585 761 l 475 761 l 407 831 z "},"ö":{"ha":817,"x_min":56,"x_max":761,"o":"m 407 -7 q 272 21 336 -7 q 160 97 208 49 q 83 210 111 146 q 56 344 56 274 q 83 482 56 417 q 160 596 111 547 q 272 672 208 644 q 407 699 336 699 q 544 672 479 699 q 658 596 610 644 q 734 482 707 547 q 761 344 761 417 q 734 210 761 274 q 658 97 707 146 q 544 21 610 49 q 407 -7 479 -7 m 407 575 q 247 508 314 575 q 197 433 215 476 q 179 344 179 390 q 197 257 179 299 q 247 183 215 215 q 320 133 279 151 q 407 115 361 115 q 496 133 453 115 q 569 183 539 151 q 618 257 600 215 q 636 344 636 299 q 618 433 636 390 q 569 508 600 476 q 497 558 539 540 q 407 575 454 575 m 288 761 q 244 778 261 761 q 226 822 226 796 q 244 865 226 847 q 288 883 261 883 q 331 865 313 883 q 349 822 349 847 q 331 778 349 796 q 288 761 313 761 m 526 761 q 483 778 500 761 q 465 822 465 796 q 483 865 465 847 q 526 883 500 883 q 569 865 551 883 q 588 822 588 847 q 569 778 588 796 q 526 761 551 761 z "},"ò":{"ha":817,"x_min":56,"x_max":761,"o":"m 407 -7 q 272 21 336 -7 q 160 97 208 49 q 83 210 111 146 q 56 344 56 274 q 83 482 56 417 q 160 596 111 547 q 272 672 208 644 q 407 699 336 699 q 544 672 479 699 q 658 596 610 644 q 734 482 707 547 q 761 344 761 417 q 734 210 761 274 q 658 97 707 146 q 544 21 610 49 q 407 -7 479 -7 m 407 575 q 247 508 314 575 q 197 433 215 476 q 179 344 179 390 q 197 257 179 299 q 247 183 215 215 q 320 133 279 151 q 407 115 361 115 q 496 133 453 115 q 569 183 539 151 q 618 257 600 215 q 636 344 636 299 q 618 433 636 390 q 569 508 600 476 q 497 558 539 540 q 407 575 454 575 m 465 767 l 372 767 l 306 958 l 415 958 l 465 767 z "},"ő":{"ha":817,"x_min":56,"x_max":761,"o":"m 407 -7 q 272 21 336 -7 q 160 97 208 49 q 83 210 111 146 q 56 344 56 274 q 83 482 56 417 q 160 596 111 547 q 272 672 208 644 q 407 699 336 699 q 544 672 479 699 q 658 596 610 644 q 734 482 707 547 q 761 344 761 417 q 734 210 761 274 q 658 97 707 146 q 544 21 610 49 q 407 -7 479 -7 m 407 575 q 247 508 314 575 q 197 433 215 476 q 179 344 179 390 q 197 257 179 299 q 247 183 215 215 q 320 133 279 151 q 407 115 361 115 q 496 133 453 115 q 569 183 539 151 q 618 257 600 215 q 636 344 636 299 q 618 433 636 390 q 569 508 600 476 q 497 558 539 540 q 407 575 454 575 m 333 765 l 244 765 l 290 958 l 396 958 l 333 765 m 524 765 l 435 765 l 492 958 l 597 958 l 524 765 z "},"ō":{"ha":817,"x_min":56,"x_max":761,"o":"m 407 -7 q 272 21 336 -7 q 160 97 208 49 q 83 210 111 146 q 56 344 56 274 q 83 482 56 417 q 160 596 111 547 q 272 672 208 644 q 407 699 336 699 q 544 672 479 699 q 658 596 610 644 q 734 482 707 547 q 761 344 761 417 q 734 210 761 274 q 658 97 707 146 q 544 21 610 49 q 407 -7 479 -7 m 407 575 q 247 508 314 575 q 197 433 215 476 q 179 344 179 390 q 197 257 179 299 q 247 183 215 215 q 320 133 279 151 q 407 115 361 115 q 496 133 453 115 q 569 183 539 151 q 618 257 600 215 q 636 344 636 299 q 618 433 636 390 q 569 508 600 476 q 497 558 539 540 q 407 575 454 575 m 213 789 l 213 865 l 601 865 l 601 789 l 213 789 z "},"ø":{"ha":817,"x_min":56,"x_max":761,"o":"m 658 596 q 734 482 707 547 q 761 344 761 417 q 734 210 761 274 q 658 97 707 146 q 544 21 610 49 q 407 -7 479 -7 q 288 14 344 -7 l 219 -115 l 108 -115 l 201 61 q 160 97 181 76 q 83 210 111 146 q 56 344 56 274 q 83 482 56 417 q 160 596 111 547 q 272 672 208 644 q 407 699 336 699 q 526 678 469 699 l 596 810 l 707 810 l 614 633 q 658 596 639 615 m 260 172 l 468 567 q 407 575 439 575 q 247 508 314 575 q 197 433 215 476 q 179 344 179 390 q 197 257 179 299 q 247 183 215 215 l 260 172 m 569 183 q 618 257 600 215 q 636 344 636 299 q 618 433 636 390 q 569 508 600 476 l 556 522 l 346 124 q 407 115 375 115 q 496 133 453 115 q 569 183 539 151 z "},"õ":{"ha":817,"x_min":56,"x_max":761,"o":"m 407 -7 q 272 21 336 -7 q 160 97 208 49 q 83 210 111 146 q 56 344 56 274 q 83 482 56 417 q 160 596 111 547 q 272 672 208 644 q 407 699 336 699 q 544 672 479 699 q 658 596 610 644 q 734 482 707 547 q 761 344 761 417 q 734 210 761 274 q 658 97 707 146 q 544 21 610 49 q 407 -7 479 -7 m 407 575 q 247 508 314 575 q 197 433 215 476 q 179 344 179 390 q 197 257 179 299 q 247 183 215 215 q 320 133 279 151 q 407 115 361 115 q 496 133 453 115 q 569 183 539 151 q 618 257 600 215 q 636 344 636 299 q 618 433 636 390 q 569 508 600 476 q 497 558 539 540 q 407 575 454 575 m 625 865 q 563 794 594 817 q 493 771 531 771 q 447 779 469 771 q 394 803 424 788 q 353 822 369 815 q 319 829 336 828 q 265 783 292 829 l 260 771 l 197 828 q 235 876 213 856 q 318 914 271 914 q 370 906 346 914 q 431 879 394 897 q 472 860 457 865 q 499 857 486 856 q 533 872 518 858 q 571 917 549 886 l 625 865 z "},"œ":{"ha":1392,"x_min":56,"x_max":1336,"o":"m 1233 592 q 1336 347 1336 486 q 1332 294 1336 322 l 769 294 q 794 225 769 261 q 850 164 818 189 q 986 118 908 118 q 1188 238 1110 118 l 1293 175 q 1160 40 1239 88 q 986 -7 1081 -7 q 851 20 915 -7 q 739 96 788 47 q 699 144 715 119 q 658 97 678 117 q 544 21 610 49 q 407 -7 479 -7 q 272 21 336 -7 q 160 97 208 49 q 83 210 111 146 q 56 344 56 274 q 83 482 56 417 q 160 596 111 547 q 272 672 208 644 q 407 699 336 699 q 544 672 479 699 q 658 596 610 644 q 700 544 682 572 q 739 592 725 578 q 851 667 786 640 q 986 693 915 693 q 1122 667 1057 693 q 1233 592 1186 640 m 1203 401 q 1173 488 1203 447 q 1093 554 1143 529 q 986 579 1043 579 q 879 554 929 579 q 799 488 829 529 q 769 401 769 447 l 1203 401 m 407 115 q 496 133 453 115 q 569 183 539 151 q 618 257 600 215 q 636 344 636 299 q 618 433 636 390 q 569 508 600 476 q 497 558 539 540 q 407 575 454 575 q 247 508 314 575 q 197 433 215 476 q 179 344 179 390 q 197 257 179 299 q 247 183 215 215 q 320 133 279 151 q 407 115 361 115 z "},"p":{"ha":826,"x_min":69,"x_max":771,"o":"m 421 -12 q 289 13 342 -12 q 193 94 236 39 l 193 -296 l 69 -296 l 69 678 l 193 678 l 193 581 q 296 665 236 633 q 421 697 356 697 q 556 670 492 697 q 668 593 621 643 q 744 478 717 543 q 771 342 771 414 q 744 206 771 269 q 668 92 717 142 q 556 15 621 43 q 421 -12 492 -12 m 421 571 q 333 553 375 571 q 261 504 292 536 q 213 430 231 472 q 194 342 194 388 q 213 254 194 296 q 261 181 231 213 q 333 131 292 149 q 421 113 375 113 q 508 131 467 113 q 581 181 550 149 q 628 254 611 213 q 646 342 646 296 q 628 430 646 388 q 581 504 611 472 q 508 553 550 536 q 421 571 467 571 z "},"þ":{"ha":826,"x_min":69,"x_max":771,"o":"m 421 -12 q 289 13 342 -12 q 193 94 236 39 l 193 -214 l 69 -214 l 69 894 l 193 894 l 193 581 q 296 665 236 633 q 421 697 356 697 q 556 670 492 697 q 668 593 621 643 q 744 478 717 543 q 771 342 771 414 q 744 206 771 269 q 668 92 717 142 q 556 15 621 43 q 421 -12 492 -12 m 421 571 q 333 553 375 571 q 261 504 292 536 q 213 430 231 472 q 194 342 194 388 q 213 254 194 296 q 261 181 231 213 q 333 131 292 149 q 421 113 375 113 q 508 131 467 113 q 581 181 550 149 q 628 254 611 213 q 646 342 646 296 q 628 430 646 388 q 581 504 611 472 q 508 553 550 536 q 421 571 467 571 z "},"q":{"ha":826,"x_min":56,"x_max":757,"o":"m 633 -296 l 633 93 q 530 16 592 44 q 406 -12 468 -12 q 270 15 335 -12 q 158 92 206 43 q 83 206 110 142 q 56 342 56 269 q 83 478 56 414 q 158 593 110 543 q 270 670 206 643 q 406 697 335 697 q 531 666 471 697 q 633 582 590 635 l 633 678 l 757 678 l 757 -296 l 633 -296 m 406 571 q 318 553 360 571 q 246 504 276 536 q 198 430 215 472 q 181 342 181 388 q 198 254 181 296 q 246 181 215 213 q 318 131 276 149 q 406 113 360 113 q 493 131 451 113 q 565 181 535 149 q 614 254 596 213 q 632 342 632 296 q 614 430 632 388 q 565 504 596 472 q 493 553 535 536 q 406 571 451 571 z "},"r":{"ha":550,"x_min":69,"x_max":494,"o":"m 379 561 q 319 576 346 576 q 228 538 264 576 q 189 442 189 496 l 189 0 l 69 0 l 69 442 q 108 579 69 517 q 213 676 146 642 q 319 700 263 700 q 407 683 365 700 q 494 629 449 667 l 379 561 z "},"ŕ":{"ha":550,"x_min":69,"x_max":494,"o":"m 379 561 q 319 576 346 576 q 228 538 264 576 q 189 442 189 496 l 189 0 l 69 0 l 69 442 q 108 579 69 517 q 213 676 146 642 q 319 700 263 700 q 407 683 365 700 q 494 629 449 667 l 379 561 m 306 763 l 213 763 l 264 954 l 372 954 l 306 763 z "},"ř":{"ha":550,"x_min":69,"x_max":494,"o":"m 379 561 q 319 576 346 576 q 228 538 264 576 q 189 442 189 496 l 189 0 l 69 0 l 69 442 q 108 579 69 517 q 213 676 146 642 q 319 700 263 700 q 407 683 365 700 q 494 629 449 667 l 379 561 m 446 939 l 269 757 l 85 939 l 197 939 l 268 869 l 336 939 l 446 939 z "},"ŗ":{"ha":550,"x_min":21,"x_max":494,"o":"m 379 561 q 319 576 346 576 q 228 538 264 576 q 189 442 189 496 l 189 0 l 69 0 l 69 442 q 108 579 69 517 q 213 676 146 642 q 319 700 263 700 q 407 683 365 700 q 494 629 449 667 l 379 561 m 114 -276 l 21 -276 l 74 -50 l 185 -50 l 114 -276 z "},"s":{"ha":600,"x_min":56,"x_max":544,"o":"m 419 488 q 401 535 415 513 q 297 581 375 581 q 233 571 256 581 q 190 539 204 560 q 175 493 175 518 q 197 438 175 463 q 274 410 221 411 q 424 388 367 406 q 513 325 482 369 q 544 200 544 281 q 482 58 544 118 q 410 11 451 29 q 325 -7 369 -7 l 304 -7 q 125 57 193 -7 q 56 201 69 108 l 179 201 q 207 147 186 168 q 296 117 239 117 q 318 118 311 117 q 394 145 367 121 q 422 206 422 169 q 392 271 422 256 q 274 286 361 286 q 106 356 164 286 q 58 489 58 408 q 60 517 58 507 q 134 655 71 607 q 301 703 197 703 q 435 669 378 703 q 504 600 475 644 q 540 489 532 556 l 538 488 l 419 488 z "},"ś":{"ha":600,"x_min":56,"x_max":544,"o":"m 419 488 q 401 535 415 513 q 297 581 375 581 q 233 571 256 581 q 190 539 204 560 q 175 493 175 518 q 197 438 175 463 q 274 410 221 411 q 424 388 367 406 q 513 325 482 369 q 544 200 544 281 q 482 58 544 118 q 410 11 451 29 q 325 -7 369 -7 l 304 -7 q 125 57 193 -7 q 56 201 69 108 l 179 201 q 207 147 186 168 q 296 117 239 117 q 318 118 311 117 q 394 145 367 121 q 422 206 422 169 q 392 271 422 256 q 274 286 361 286 q 106 356 164 286 q 58 489 58 408 q 60 517 58 507 q 134 655 71 607 q 301 703 197 703 q 435 669 378 703 q 504 600 475 644 q 540 489 532 556 l 538 488 l 419 488 m 336 763 l 243 763 l 294 954 l 403 954 l 336 763 z "},"š":{"ha":600,"x_min":56,"x_max":544,"o":"m 419 488 q 401 535 415 513 q 297 581 375 581 q 233 571 256 581 q 190 539 204 560 q 175 493 175 518 q 197 438 175 463 q 274 410 221 411 q 424 388 367 406 q 513 325 482 369 q 544 200 544 281 q 482 58 544 118 q 410 11 451 29 q 325 -7 369 -7 l 304 -7 q 125 57 193 -7 q 56 201 69 108 l 179 201 q 207 147 186 168 q 296 117 239 117 q 318 118 311 117 q 394 145 367 121 q 422 206 422 169 q 392 271 422 256 q 274 286 361 286 q 106 356 164 286 q 58 489 58 408 q 60 517 58 507 q 134 655 71 607 q 301 703 197 703 q 435 669 378 703 q 504 600 475 644 q 540 489 532 556 l 538 488 l 419 488 m 476 939 l 300 757 l 115 939 l 228 939 l 299 869 l 367 939 l 476 939 z "},"ş":{"ha":600,"x_min":56,"x_max":544,"o":"m 544 200 q 482 58 544 118 q 413 12 453 29 q 329 -7 374 -6 l 318 -32 q 384 -80 360 -47 q 408 -156 408 -112 q 372 -247 408 -208 q 333 -274 356 -264 q 285 -285 310 -285 q 194 -246 242 -285 l 249 -185 q 267 -197 263 -196 q 285 -203 276 -203 q 316 -189 303 -203 q 329 -156 329 -175 q 316 -122 329 -136 q 285 -108 303 -108 q 258 -115 278 -108 l 231 -46 l 247 -3 q 125 57 174 10 q 56 201 69 108 l 179 201 q 207 147 186 168 q 296 117 239 117 q 318 118 311 117 q 394 145 367 121 q 422 206 422 169 q 392 271 422 256 q 274 286 361 286 q 106 356 164 286 q 58 489 58 408 q 60 517 58 507 q 134 655 71 607 q 301 703 197 703 q 435 669 378 703 q 504 600 475 644 q 540 489 532 556 l 538 488 l 419 488 q 401 535 415 513 q 297 581 375 581 q 233 571 256 581 q 190 539 204 560 q 175 493 175 518 q 197 438 175 463 q 274 410 221 411 q 424 388 367 406 q 513 325 482 369 q 544 200 544 281 z "},"ß":{"ha":685,"x_min":69,"x_max":629,"o":"m 340 926 q 447 910 408 926 q 522 854 486 893 q 577 766 557 815 q 597 664 597 717 q 577 562 597 610 q 522 476 557 514 q 601 383 572 439 q 629 261 629 328 q 609 160 629 208 q 554 76 589 113 q 472 20 519 40 q 372 0 425 0 l 306 0 l 306 124 l 372 125 q 468 165 429 126 q 507 261 507 204 q 468 360 507 318 q 425 390 450 379 q 372 400 400 400 l 192 400 l 192 0 l 69 0 l 69 925 l 340 926 m 192 800 l 192 525 l 340 525 q 436 565 396 525 q 475 664 475 604 q 436 761 475 722 q 340 800 397 800 l 192 800 z "},"t":{"ha":438,"x_min":56,"x_max":382,"o":"m 278 569 l 278 0 l 160 0 l 160 569 l 56 569 l 56 694 l 160 694 l 160 924 l 278 924 l 278 694 l 382 694 l 382 569 l 278 569 z "},"ŧ":{"ha":701,"x_min":188,"x_max":514,"o":"m 410 569 l 410 458 l 485 458 l 485 375 l 410 375 l 410 0 l 292 0 l 292 375 l 217 375 l 217 458 l 292 458 l 292 569 l 188 569 l 188 694 l 292 694 l 292 924 l 410 924 l 410 694 l 514 694 l 514 569 l 410 569 z "},"ť":{"ha":438,"x_min":35,"x_max":396,"o":"m 278 569 l 278 0 l 160 0 l 160 569 l 56 569 l 56 694 l 160 694 l 160 924 l 278 924 l 278 694 l 382 694 l 382 569 l 278 569 m 396 1168 l 219 986 l 35 1168 l 147 1168 l 218 1099 l 286 1168 l 396 1168 z "},"ţ":{"ha":438,"x_min":56,"x_max":382,"o":"m 251 0 l 238 -32 q 303 -80 279 -47 q 328 -156 328 -112 q 292 -247 328 -208 q 252 -274 275 -264 q 204 -285 229 -285 q 114 -246 161 -285 l 168 -185 q 186 -197 182 -196 q 204 -203 196 -203 q 235 -189 222 -203 q 249 -156 249 -175 q 235 -122 249 -136 q 204 -108 222 -108 q 178 -115 197 -108 l 150 -46 l 167 0 l 160 0 l 160 569 l 56 569 l 56 694 l 160 694 l 160 924 l 278 924 l 278 694 l 382 694 l 382 569 l 278 569 l 278 0 l 251 0 z "},"u":{"ha":676,"x_min":56,"x_max":607,"o":"m 486 4 l 486 63 q 416 14 458 33 q 332 -6 374 -6 q 226 16 276 -6 q 136 76 175 38 q 77 166 99 115 q 56 274 56 217 l 56 694 l 178 694 l 178 274 q 224 164 178 210 q 332 118 269 118 q 390 131 361 118 q 440 164 419 143 q 486 274 486 210 l 486 694 l 607 694 l 607 4 l 486 4 z "},"ú":{"ha":676,"x_min":56,"x_max":607,"o":"m 486 4 l 486 63 q 416 14 458 33 q 332 -6 374 -6 q 226 16 276 -6 q 136 76 175 38 q 77 166 99 115 q 56 274 56 217 l 56 694 l 178 694 l 178 274 q 224 164 178 210 q 332 118 269 118 q 390 131 361 118 q 440 164 419 143 q 486 274 486 210 l 486 694 l 607 694 l 607 4 l 486 4 m 368 763 l 275 763 l 326 954 l 435 954 l 368 763 z "},"û":{"ha":676,"x_min":56,"x_max":607,"o":"m 486 4 l 486 63 q 416 14 458 33 q 332 -6 374 -6 q 226 16 276 -6 q 136 76 175 38 q 77 166 99 115 q 56 274 56 217 l 56 694 l 178 694 l 178 274 q 224 164 178 210 q 332 118 269 118 q 390 131 361 118 q 440 164 419 143 q 486 274 486 210 l 486 694 l 607 694 l 607 4 l 486 4 m 332 826 l 261 757 l 149 757 l 333 939 l 510 757 l 400 757 l 332 826 z "},"ü":{"ha":676,"x_min":56,"x_max":607,"o":"m 486 4 l 486 63 q 416 14 458 33 q 332 -6 374 -6 q 226 16 276 -6 q 136 76 175 38 q 77 166 99 115 q 56 274 56 217 l 56 694 l 178 694 l 178 274 q 224 164 178 210 q 332 118 269 118 q 390 131 361 118 q 440 164 419 143 q 486 274 486 210 l 486 694 l 607 694 l 607 4 l 486 4 m 213 757 q 169 774 186 757 q 151 818 151 792 q 169 861 151 843 q 213 879 186 879 q 256 861 238 879 q 274 818 274 843 q 256 774 274 792 q 213 757 238 757 m 451 757 q 408 774 425 757 q 390 818 390 792 q 408 861 390 843 q 451 879 425 879 q 494 861 476 879 q 513 818 513 843 q 494 774 513 792 q 451 757 476 757 z "},"ù":{"ha":676,"x_min":56,"x_max":607,"o":"m 486 4 l 486 63 q 416 14 458 33 q 332 -6 374 -6 q 226 16 276 -6 q 136 76 175 38 q 77 166 99 115 q 56 274 56 217 l 56 694 l 178 694 l 178 274 q 224 164 178 210 q 332 118 269 118 q 390 131 361 118 q 440 164 419 143 q 486 274 486 210 l 486 694 l 607 694 l 607 4 l 486 4 m 390 763 l 297 763 l 231 954 l 340 954 l 390 763 z "},"ű":{"ha":676,"x_min":56,"x_max":607,"o":"m 486 4 l 486 63 q 416 14 458 33 q 332 -6 374 -6 q 226 16 276 -6 q 136 76 175 38 q 77 166 99 115 q 56 274 56 217 l 56 694 l 178 694 l 178 274 q 224 164 178 210 q 332 118 269 118 q 390 131 361 118 q 440 164 419 143 q 486 274 486 210 l 486 694 l 607 694 l 607 4 l 486 4 m 258 761 l 169 761 l 215 954 l 321 954 l 258 761 m 449 761 l 360 761 l 417 954 l 522 954 l 449 761 z "},"ū":{"ha":676,"x_min":56,"x_max":607,"o":"m 486 4 l 486 63 q 416 14 458 33 q 332 -6 374 -6 q 226 16 276 -6 q 136 76 175 38 q 77 166 99 115 q 56 274 56 217 l 56 694 l 178 694 l 178 274 q 224 164 178 210 q 332 118 269 118 q 390 131 361 118 q 440 164 419 143 q 486 274 486 210 l 486 694 l 607 694 l 607 4 l 486 4 m 138 785 l 138 861 l 526 861 l 526 785 l 138 785 z "},"ų":{"ha":676,"x_min":56,"x_max":683,"o":"m 683 -225 q 583 -279 638 -278 l 572 -279 q 540 -276 557 -279 q 496 -254 517 -271 q 463 -217 475 -237 q 442 -146 442 -183 q 444 -119 442 -136 q 525 -19 460 -44 l 526 4 l 486 4 l 486 63 q 416 14 458 33 q 332 -6 374 -6 q 226 16 276 -6 q 136 76 175 38 q 77 166 99 115 q 56 274 56 217 l 56 694 l 178 694 l 178 274 q 224 164 178 210 q 332 118 269 118 q 390 131 361 118 q 440 164 419 143 q 486 274 486 210 l 486 694 l 607 694 l 607 4 l 606 -96 q 581 -94 597 -94 q 545 -103 560 -94 q 525 -136 531 -112 q 524 -149 524 -140 q 537 -181 524 -169 q 569 -193 550 -193 q 622 -168 600 -193 l 683 -225 z "},"ů":{"ha":676,"x_min":56,"x_max":607,"o":"m 486 4 l 486 63 q 416 14 458 33 q 332 -6 374 -6 q 226 16 276 -6 q 136 76 175 38 q 77 166 99 115 q 56 274 56 217 l 56 694 l 178 694 l 178 274 q 224 164 178 210 q 332 118 269 118 q 390 131 361 118 q 440 164 419 143 q 486 274 486 210 l 486 694 l 607 694 l 607 4 l 486 4 m 401 779 q 332 758 368 758 q 226 815 267 758 q 206 885 206 849 q 221 943 206 915 q 263 989 236 971 q 335 1010 293 1010 q 357 1008 350 1010 q 436 954 408 997 q 457 882 457 921 q 456 860 457 867 q 436 814 450 835 q 401 779 422 793 m 332 943 q 292 931 308 943 q 275 897 276 918 q 274 886 274 893 q 291 846 274 864 q 332 828 308 828 q 372 845 354 828 q 390 885 390 863 q 373 925 390 907 q 332 943 356 943 z "},"v":{"ha":776,"x_min":56,"x_max":721,"o":"m 447 0 l 329 0 l 56 694 l 188 694 l 389 188 l 589 694 l 721 694 l 447 0 z "},"w":{"ha":1164,"x_min":56,"x_max":1108,"o":"m 831 0 l 710 0 l 583 314 l 457 0 l 336 0 l 56 694 l 192 694 l 396 188 l 515 481 l 429 694 l 565 694 l 769 188 l 974 694 l 1108 694 l 831 0 z "},"ẃ":{"ha":1164,"x_min":56,"x_max":1108,"o":"m 831 0 l 710 0 l 583 314 l 457 0 l 336 0 l 56 694 l 192 694 l 396 188 l 515 481 l 429 694 l 565 694 l 769 188 l 974 694 l 1108 694 l 831 0 m 618 763 l 525 763 l 576 954 l 685 954 l 618 763 z "},"ŵ":{"ha":1164,"x_min":56,"x_max":1108,"o":"m 831 0 l 710 0 l 583 314 l 457 0 l 336 0 l 56 694 l 192 694 l 396 188 l 515 481 l 429 694 l 565 694 l 769 188 l 974 694 l 1108 694 l 831 0 m 582 826 l 511 757 l 399 757 l 583 939 l 760 757 l 650 757 l 582 826 z "},"ẅ":{"ha":1164,"x_min":56,"x_max":1108,"o":"m 831 0 l 710 0 l 583 314 l 457 0 l 336 0 l 56 694 l 192 694 l 396 188 l 515 481 l 429 694 l 565 694 l 769 188 l 974 694 l 1108 694 l 831 0 m 463 757 q 419 774 436 757 q 401 818 401 792 q 419 861 401 843 q 463 879 436 879 q 506 861 488 879 q 524 818 524 843 q 506 774 524 792 q 463 757 488 757 m 701 757 q 658 774 675 757 q 640 818 640 792 q 658 861 640 843 q 701 879 675 879 q 744 861 726 879 q 763 818 763 843 q 744 774 763 792 q 701 757 726 757 z "},"ẁ":{"ha":1164,"x_min":56,"x_max":1108,"o":"m 831 0 l 710 0 l 583 314 l 457 0 l 336 0 l 56 694 l 192 694 l 396 188 l 515 481 l 429 694 l 565 694 l 769 188 l 974 694 l 1108 694 l 831 0 m 640 763 l 547 763 l 481 954 l 590 954 l 640 763 z "},"x":{"ha":683,"x_min":56,"x_max":628,"o":"m 413 339 l 619 0 l 475 0 l 342 221 l 207 0 l 65 0 l 269 339 l 56 694 l 197 694 l 342 457 l 485 694 l 628 694 l 413 339 z "},"y":{"ha":728,"x_min":56,"x_max":658,"o":"m 357 -296 q 210 -256 278 -296 q 93 -139 143 -215 l 201 -76 q 271 -147 231 -122 q 357 -171 311 -171 q 485 -117 431 -171 q 523 -58 510 -92 q 536 13 536 -25 l 536 61 q 456 8 504 28 q 357 -12 407 -12 q 242 10 296 -12 q 146 75 188 33 q 79 172 103 117 q 56 288 56 226 l 56 694 l 178 694 l 178 296 q 202 205 178 247 q 267 138 226 163 q 357 113 308 113 q 447 137 406 113 q 513 203 489 161 q 536 296 536 246 l 536 694 l 658 694 l 658 13 q 635 -107 658 -50 q 571 -206 613 -164 q 473 -272 528 -249 q 357 -296 418 -296 z "},"ý":{"ha":728,"x_min":56,"x_max":658,"o":"m 357 -296 q 210 -256 278 -296 q 93 -139 143 -215 l 201 -76 q 271 -147 231 -122 q 357 -171 311 -171 q 485 -117 431 -171 q 523 -58 510 -92 q 536 13 536 -25 l 536 61 q 456 8 504 28 q 357 -12 407 -12 q 242 10 296 -12 q 146 75 188 33 q 79 172 103 117 q 56 288 56 226 l 56 694 l 178 694 l 178 296 q 202 205 178 247 q 267 138 226 163 q 357 113 308 113 q 447 137 406 113 q 513 203 489 161 q 536 296 536 246 l 536 694 l 658 694 l 658 13 q 635 -107 658 -50 q 571 -206 613 -164 q 473 -272 528 -249 q 357 -296 418 -296 m 400 763 l 307 763 l 358 954 l 467 954 l 400 763 z "},"ŷ":{"ha":728,"x_min":56,"x_max":658,"o":"m 357 -296 q 210 -256 278 -296 q 93 -139 143 -215 l 201 -76 q 271 -147 231 -122 q 357 -171 311 -171 q 485 -117 431 -171 q 523 -58 510 -92 q 536 13 536 -25 l 536 61 q 456 8 504 28 q 357 -12 407 -12 q 242 10 296 -12 q 146 75 188 33 q 79 172 103 117 q 56 288 56 226 l 56 694 l 178 694 l 178 296 q 202 205 178 247 q 267 138 226 163 q 357 113 308 113 q 447 137 406 113 q 513 203 489 161 q 536 296 536 246 l 536 694 l 658 694 l 658 13 q 635 -107 658 -50 q 571 -206 613 -164 q 473 -272 528 -249 q 357 -296 418 -296 m 364 826 l 293 757 l 181 757 l 365 939 l 542 757 l 432 757 l 364 826 z "},"ÿ":{"ha":728,"x_min":56,"x_max":658,"o":"m 357 -296 q 210 -256 278 -296 q 93 -139 143 -215 l 201 -76 q 271 -147 231 -122 q 357 -171 311 -171 q 485 -117 431 -171 q 523 -58 510 -92 q 536 13 536 -25 l 536 61 q 456 8 504 28 q 357 -12 407 -12 q 242 10 296 -12 q 146 75 188 33 q 79 172 103 117 q 56 288 56 226 l 56 694 l 178 694 l 178 296 q 202 205 178 247 q 267 138 226 163 q 357 113 308 113 q 447 137 406 113 q 513 203 489 161 q 536 296 536 246 l 536 694 l 658 694 l 658 13 q 635 -107 658 -50 q 571 -206 613 -164 q 473 -272 528 -249 q 357 -296 418 -296 m 244 757 q 201 774 218 757 q 183 818 183 792 q 201 861 183 843 q 244 879 218 879 q 288 861 269 879 q 306 818 306 843 q 288 774 306 792 q 244 757 269 757 m 483 757 q 440 774 457 757 q 422 818 422 792 q 440 861 422 843 q 483 879 457 879 q 526 861 508 879 q 544 818 544 843 q 526 774 544 792 q 483 757 508 757 z "},"ỳ":{"ha":728,"x_min":56,"x_max":658,"o":"m 357 -296 q 210 -256 278 -296 q 93 -139 143 -215 l 201 -76 q 271 -147 231 -122 q 357 -171 311 -171 q 485 -117 431 -171 q 523 -58 510 -92 q 536 13 536 -25 l 536 61 q 456 8 504 28 q 357 -12 407 -12 q 242 10 296 -12 q 146 75 188 33 q 79 172 103 117 q 56 288 56 226 l 56 694 l 178 694 l 178 296 q 202 205 178 247 q 267 138 226 163 q 357 113 308 113 q 447 137 406 113 q 513 203 489 161 q 536 296 536 246 l 536 694 l 658 694 l 658 13 q 635 -107 658 -50 q 571 -206 613 -164 q 473 -272 528 -249 q 357 -296 418 -296 m 422 763 l 329 763 l 263 954 l 372 954 l 422 763 z "},"z":{"ha":674,"x_min":56,"x_max":618,"o":"m 56 0 l 56 113 l 446 565 l 56 565 l 56 689 l 618 689 l 618 575 l 229 124 l 618 124 l 618 0 l 56 0 z "},"ź":{"ha":674,"x_min":56,"x_max":618,"o":"m 56 0 l 56 113 l 446 565 l 56 565 l 56 689 l 618 689 l 618 575 l 229 124 l 618 124 l 618 0 l 56 0 m 374 763 l 281 763 l 332 954 l 440 954 l 374 763 z "},"ž":{"ha":674,"x_min":56,"x_max":618,"o":"m 56 0 l 56 113 l 446 565 l 56 565 l 56 689 l 618 689 l 618 575 l 229 124 l 618 124 l 618 0 l 56 0 m 514 939 l 338 757 l 153 939 l 265 939 l 336 869 l 404 939 l 514 939 z "},"ż":{"ha":674,"x_min":56,"x_max":618,"o":"m 56 0 l 56 113 l 446 565 l 56 565 l 56 689 l 618 689 l 618 575 l 229 124 l 618 124 l 618 0 l 56 0 m 338 786 q 294 803 311 786 q 276 847 276 821 q 294 890 276 872 q 338 908 311 908 q 381 890 363 908 q 399 847 399 872 q 381 803 399 821 q 338 786 363 786 z "},"ª":{"ha":494,"x_min":56,"x_max":439,"o":"m 439 924 l 439 543 l 346 543 l 346 575 q 246 547 301 547 q 111 603 167 547 q 56 738 56 658 q 70 811 56 776 q 111 872 85 846 q 246 928 167 928 q 346 901 300 928 l 346 924 l 439 924 m 246 640 q 315 669 286 640 q 343 738 343 697 q 315 806 343 778 q 246 835 286 835 q 177 806 206 835 q 149 738 149 778 q 177 669 149 697 q 246 640 206 640 z "},"º":{"ha":493,"x_min":56,"x_max":438,"o":"m 246 547 q 111 603 167 547 q 56 738 56 658 q 70 811 56 776 q 111 872 85 846 q 246 928 167 928 q 320 913 285 928 q 382 872 356 899 q 423 810 408 846 q 438 738 438 775 q 382 603 438 658 q 320 562 356 576 q 246 547 285 547 m 246 835 q 177 806 206 835 q 149 738 149 778 q 177 669 149 697 q 246 640 206 640 q 315 669 286 640 q 343 738 343 697 q 315 806 343 778 q 246 835 286 835 z "},"μ":{"ha":676,"x_min":56,"x_max":607,"o":"m 607 694 l 607 4 l 486 4 l 486 63 q 416 14 458 33 q 332 -6 374 -6 q 178 42 250 -6 l 178 -118 l 56 -118 l 56 694 l 178 694 l 178 274 q 224 164 178 210 q 332 118 269 118 q 390 131 361 118 q 440 164 419 143 q 486 274 486 210 l 486 694 l 607 694 z "},"⁰":{"ha":483,"x_min":39,"x_max":444,"o":"m 224 288 q 152 302 186 288 q 93 343 118 317 q 53 403 68 368 q 39 476 39 438 l 39 744 q 93 878 39 821 q 152 919 118 904 q 224 933 186 933 l 258 933 q 331 919 296 933 q 392 878 365 904 q 444 744 444 822 l 444 476 q 431 403 444 438 q 392 343 417 368 q 331 302 365 317 q 258 288 296 288 l 224 288 m 360 744 q 330 817 360 786 q 258 847 300 847 l 224 847 q 153 816 183 847 q 122 744 122 785 l 122 476 q 153 405 122 436 q 224 374 183 374 l 258 374 q 331 403 301 374 q 360 476 360 433 l 360 744 z "},"¹":{"ha":292,"x_min":29,"x_max":244,"o":"m 165 292 l 165 797 l 124 726 l 29 726 l 146 929 l 244 929 l 244 292 l 165 292 z "},"²":{"ha":428,"x_min":38,"x_max":390,"o":"m 332 599 q 208 536 288 557 q 139 485 156 522 q 122 378 122 447 l 360 378 l 360 292 l 42 292 q 38 367 38 329 q 189 619 38 581 q 265 653 232 628 q 306 732 306 683 q 274 810 306 778 q 240 834 260 825 q 199 843 221 843 l 58 843 l 58 929 l 199 929 q 333 871 278 929 q 375 808 360 844 q 390 732 390 772 q 332 599 390 651 z "},"³":{"ha":396,"x_min":39,"x_max":357,"o":"m 39 292 l 39 378 l 183 378 q 247 405 221 378 q 274 472 274 432 q 249 540 274 511 q 183 567 222 567 l 122 567 l 122 653 l 183 653 q 249 681 221 653 q 274 747 274 710 q 247 815 274 788 q 183 842 221 842 l 39 842 l 39 929 l 183 929 q 307 876 254 929 q 357 747 357 824 q 341 671 357 707 q 296 610 325 635 q 341 549 325 585 q 357 472 357 513 q 344 401 357 435 q 307 344 331 368 q 183 292 257 292 l 39 292 z "},"⁴":{"ha":483,"x_min":32,"x_max":444,"o":"m 364 454 l 364 290 l 281 290 l 281 454 l 32 454 l 228 928 l 319 928 l 157 539 l 281 539 l 281 636 l 364 636 l 364 539 l 444 539 l 444 454 l 364 454 z "},"⁵":{"ha":446,"x_min":49,"x_max":397,"o":"m 53 292 l 53 378 l 206 378 q 283 411 250 378 q 314 489 314 444 q 283 568 314 533 q 206 600 249 600 l 49 600 l 49 929 l 367 929 l 367 843 l 132 843 l 132 686 l 206 686 q 342 628 286 686 q 383 565 368 601 q 397 489 397 529 q 383 413 397 449 q 342 349 368 376 q 206 292 285 292 l 53 292 z "},"⁶":{"ha":464,"x_min":39,"x_max":425,"o":"m 232 288 q 157 303 193 288 q 94 346 121 319 q 53 410 68 374 q 39 486 39 446 q 54 568 39 526 l 206 929 l 299 929 l 194 681 q 232 686 222 686 q 308 670 272 686 q 369 626 343 654 q 410 562 396 599 q 425 486 425 525 q 410 410 425 447 q 369 346 396 374 q 307 303 343 319 q 232 288 271 288 m 232 599 q 154 565 185 599 q 131 529 139 550 q 122 486 122 508 q 131 443 122 464 q 154 407 139 422 q 232 375 186 375 q 310 407 275 375 q 333 443 325 422 q 342 486 342 464 q 333 529 342 508 q 310 565 325 550 q 232 599 276 599 z "},"⁷":{"ha":410,"x_min":39,"x_max":365,"o":"m 232 292 l 147 292 l 261 842 l 39 842 l 39 929 l 365 929 l 232 292 z "},"⁸":{"ha":458,"x_min":38,"x_max":419,"o":"m 304 303 q 229 288 272 288 q 124 319 172 288 q 54 404 76 350 q 38 483 38 442 q 44 535 38 507 q 114 639 61 597 q 79 693 92 663 q 67 757 67 724 q 111 874 67 822 q 164 910 133 897 q 228 924 194 924 q 317 897 276 924 q 378 824 358 869 q 390 758 390 790 q 343 639 390 689 q 401 569 382 610 q 419 485 419 528 q 367 347 419 404 q 304 303 340 317 m 301 790 q 272 825 292 813 q 229 838 253 838 q 196 832 208 838 q 162 801 175 822 q 149 757 149 781 q 156 725 149 743 q 185 690 167 701 q 226 678 204 678 q 283 700 258 678 q 308 757 308 722 q 301 790 308 769 m 128 522 q 121 485 121 501 q 131 439 121 465 q 171 390 144 408 q 229 372 197 372 q 271 381 253 372 q 319 422 301 394 q 336 481 336 449 q 326 526 336 506 q 287 576 314 558 q 229 593 260 593 q 169 575 197 593 q 128 522 142 557 z "},"⁹":{"ha":464,"x_min":39,"x_max":425,"o":"m 258 292 l 165 292 l 269 540 q 232 535 242 535 q 156 551 192 535 q 94 594 121 567 q 39 735 39 653 q 53 811 39 775 q 94 875 68 847 q 157 917 121 901 q 232 933 193 933 q 307 917 271 933 q 369 875 343 901 q 410 810 396 847 q 425 735 425 774 q 410 653 425 694 l 258 292 m 232 846 q 156 814 188 846 q 131 778 140 799 q 122 735 122 757 q 131 692 122 713 q 156 656 140 671 q 232 622 186 622 q 310 656 279 622 q 333 692 325 671 q 342 735 342 713 q 333 778 342 757 q 310 814 325 799 q 232 846 278 846 z "},"⁄":{"ha":669,"x_min":42,"x_max":614,"o":"m 128 0 l 42 0 l 528 925 l 614 925 l 128 0 z "},"½":{"ha":1217,"x_min":29,"x_max":1169,"o":"m 165 292 l 165 797 l 124 726 l 29 726 l 146 929 l 244 929 l 244 292 l 165 292 m 336 0 l 250 0 l 736 925 l 822 925 l 336 0 m 1111 307 q 988 244 1067 265 q 918 193 935 231 q 901 86 901 156 l 1139 86 l 1139 0 l 821 0 q 817 75 817 38 q 968 328 817 289 q 1044 361 1011 336 q 1085 440 1085 392 q 1053 518 1085 486 q 1019 542 1039 533 q 978 551 1000 551 l 838 551 l 838 638 l 978 638 q 1113 579 1057 638 q 1154 517 1139 553 q 1169 440 1169 481 q 1111 307 1169 360 z "},"¼":{"ha":1174,"x_min":29,"x_max":1126,"o":"m 165 292 l 165 797 l 124 726 l 29 726 l 146 929 l 244 929 l 244 292 l 165 292 m 351 0 l 265 0 l 751 925 l 838 925 l 351 0 m 1046 163 l 1046 -1 l 963 -1 l 963 163 l 714 163 l 910 636 l 1001 636 l 839 247 l 963 247 l 963 344 l 1046 344 l 1046 247 l 1126 247 l 1126 163 l 1046 163 z "},"¾":{"ha":1225,"x_min":39,"x_max":1186,"o":"m 39 292 l 39 378 l 183 378 q 247 405 221 378 q 274 472 274 432 q 249 540 274 511 q 183 567 222 567 l 122 567 l 122 653 l 183 653 q 249 681 221 653 q 274 747 274 710 q 247 815 274 788 q 183 842 221 842 l 39 842 l 39 929 l 183 929 q 307 876 254 929 q 357 747 357 824 q 341 671 357 707 q 296 610 325 635 q 341 549 325 585 q 357 472 357 513 q 344 401 357 435 q 307 344 331 368 q 183 292 257 292 l 39 292 m 419 0 l 333 0 l 819 925 l 906 925 l 419 0 m 1106 163 l 1106 -1 l 1022 -1 l 1022 163 l 774 163 l 969 636 l 1061 636 l 899 247 l 1022 247 l 1022 344 l 1106 344 l 1106 247 l 1186 247 l 1186 163 l 1106 163 z "},"⅛":{"ha":1108,"x_min":29,"x_max":1061,"o":"m 165 292 l 165 797 l 124 726 l 29 726 l 146 929 l 244 929 l 244 292 l 165 292 m 307 0 l 221 0 l 707 925 l 793 925 l 307 0 m 946 11 q 871 -4 914 -4 q 766 27 814 -4 q 696 113 718 58 q 679 192 679 150 q 686 243 679 215 q 756 347 703 306 q 721 401 733 371 q 708 465 708 432 q 753 582 708 531 q 806 619 775 606 q 869 632 836 632 q 959 605 918 632 q 1019 532 1000 578 q 1032 467 1032 499 q 985 347 1032 397 q 1042 277 1024 318 q 1061 193 1061 236 q 1008 56 1061 113 q 946 11 982 25 m 943 499 q 914 533 933 521 q 871 546 894 546 q 838 540 850 546 q 803 510 817 531 q 790 465 790 489 q 797 433 790 451 q 827 398 808 410 q 868 386 846 386 q 925 408 900 386 q 950 465 950 431 q 943 499 950 478 m 769 231 q 763 193 763 210 q 772 147 763 174 q 813 99 786 117 q 871 81 839 81 q 913 89 894 81 q 960 130 943 103 q 978 189 978 157 q 968 235 978 214 q 928 284 956 267 q 871 301 901 301 q 811 283 839 301 q 769 231 783 265 z "},"⅜":{"ha":1190,"x_min":39,"x_max":1151,"o":"m 39 292 l 39 378 l 183 378 q 247 405 221 378 q 274 472 274 432 q 249 540 274 511 q 183 567 222 567 l 122 567 l 122 653 l 183 653 q 249 681 221 653 q 274 747 274 710 q 247 815 274 788 q 183 842 221 842 l 39 842 l 39 929 l 183 929 q 307 876 254 929 q 357 747 357 824 q 341 671 357 707 q 296 610 325 635 q 341 549 325 585 q 357 472 357 513 q 344 401 357 435 q 307 344 331 368 q 183 292 257 292 l 39 292 m 382 0 l 296 0 l 782 925 l 868 925 l 382 0 m 1036 11 q 961 -4 1004 -4 q 856 27 904 -4 q 786 113 808 58 q 769 192 769 150 q 776 243 769 215 q 846 347 793 306 q 811 401 824 371 q 799 465 799 432 q 843 582 799 531 q 896 619 865 606 q 960 632 926 632 q 1049 605 1008 632 q 1110 532 1090 578 q 1122 467 1122 499 q 1075 347 1122 397 q 1133 277 1114 318 q 1151 193 1151 236 q 1099 56 1151 113 q 1036 11 1072 25 m 1033 499 q 1004 533 1024 521 q 961 546 985 546 q 928 540 940 546 q 894 510 907 531 q 881 465 881 489 q 888 433 881 451 q 917 398 899 410 q 958 386 936 386 q 1015 408 990 386 q 1040 465 1040 431 q 1033 499 1040 478 m 860 231 q 853 193 853 210 q 863 147 853 174 q 903 99 876 117 q 961 81 929 81 q 1003 89 985 81 q 1051 130 1033 103 q 1068 189 1068 157 q 1058 235 1068 214 q 1019 284 1046 267 q 961 301 992 301 q 901 283 929 301 q 860 231 874 265 z "},"⅝":{"ha":1257,"x_min":49,"x_max":1208,"o":"m 53 292 l 53 378 l 206 378 q 283 411 250 378 q 314 489 314 444 q 283 568 314 533 q 206 600 249 600 l 49 600 l 49 929 l 367 929 l 367 843 l 132 843 l 132 686 l 206 686 q 342 628 286 686 q 383 565 368 601 q 397 489 397 529 q 383 413 397 449 q 342 349 368 376 q 206 292 285 292 l 53 292 m 426 0 l 340 0 l 826 925 l 913 925 l 426 0 m 1093 11 q 1018 -4 1061 -4 q 913 27 961 -4 q 843 113 865 58 q 826 192 826 150 q 833 243 826 215 q 903 347 850 306 q 868 401 881 371 q 856 465 856 432 q 900 582 856 531 q 953 619 922 606 q 1017 632 983 632 q 1106 605 1065 632 q 1167 532 1147 578 q 1179 467 1179 499 q 1132 347 1179 397 q 1190 277 1171 318 q 1208 193 1208 236 q 1156 56 1208 113 q 1093 11 1129 25 m 1090 499 q 1061 533 1081 521 q 1018 546 1042 546 q 985 540 997 546 q 951 510 964 531 q 938 465 938 489 q 944 433 938 451 q 974 398 956 410 q 1015 386 993 386 q 1072 408 1047 386 q 1097 465 1097 431 q 1090 499 1097 478 m 917 231 q 910 193 910 210 q 919 147 910 174 q 960 99 933 117 q 1018 81 986 81 q 1060 89 1042 81 q 1108 130 1090 103 q 1125 189 1125 157 q 1115 235 1125 214 q 1076 284 1103 267 q 1018 301 1049 301 q 958 283 986 301 q 917 231 931 265 z "},"⅞":{"ha":1178,"x_min":39,"x_max":1133,"o":"m 232 292 l 147 292 l 261 842 l 39 842 l 39 929 l 365 929 l 232 292 m 346 0 l 260 0 l 746 925 l 832 925 l 346 0 m 1018 11 q 943 -4 986 -4 q 838 27 886 -4 q 768 113 790 58 q 751 192 751 150 q 758 243 751 215 q 828 347 775 306 q 793 401 806 371 q 781 465 781 432 q 825 582 781 531 q 878 619 847 606 q 942 632 908 632 q 1031 605 990 632 q 1092 532 1072 578 q 1104 467 1104 499 q 1057 347 1104 397 q 1115 277 1096 318 q 1133 193 1133 236 q 1081 56 1133 113 q 1018 11 1054 25 m 1015 499 q 986 533 1006 521 q 943 546 967 546 q 910 540 922 546 q 876 510 889 531 q 863 465 863 489 q 869 433 863 451 q 899 398 881 410 q 940 386 918 386 q 997 408 972 386 q 1022 465 1022 431 q 1015 499 1022 478 m 842 231 q 835 193 835 210 q 844 147 835 174 q 885 99 858 117 q 943 81 911 81 q 985 89 967 81 q 1033 130 1015 103 q 1050 189 1050 157 q 1040 235 1050 214 q 1001 284 1028 267 q 943 301 974 301 q 883 283 911 301 q 842 231 856 265 z "},".":{"ha":219,"x_min":28,"x_max":150,"o":"m 89 0 q 45 17 63 0 q 28 61 28 35 q 45 104 28 86 q 89 122 63 122 q 132 104 114 122 q 150 61 150 86 q 132 17 150 35 q 89 0 114 0 z "},",":{"ha":307,"x_min":51,"x_max":243,"o":"m 153 -142 l 51 -142 l 128 149 l 243 149 l 153 -142 z "},":":{"ha":261,"x_min":69,"x_max":192,"o":"m 131 458 q 87 476 104 458 q 69 519 69 493 q 87 563 69 544 q 131 581 104 581 q 174 563 156 581 q 192 519 192 544 q 174 476 192 493 q 131 458 156 458 m 131 0 q 87 17 104 0 q 69 61 69 35 q 87 104 69 86 q 131 122 104 122 q 174 104 156 122 q 192 61 192 86 q 174 17 192 35 q 131 0 156 0 z "},";":{"ha":313,"x_min":38,"x_max":242,"o":"m 178 454 q 133 473 151 454 q 114 518 114 492 q 133 563 114 544 q 178 582 151 582 q 223 563 204 582 q 242 518 242 544 q 223 473 242 492 q 178 454 204 454 m 140 -142 l 38 -142 l 115 168 l 232 168 l 140 -142 z "},"…":{"ha":726,"x_min":69,"x_max":657,"o":"m 131 0 q 87 17 104 0 q 69 61 69 35 q 87 104 69 86 q 131 122 104 122 q 174 104 156 122 q 192 61 192 86 q 174 17 192 35 q 131 0 156 0 m 369 0 q 326 17 343 0 q 308 61 308 35 q 326 104 308 86 q 369 122 343 122 q 413 104 394 122 q 431 61 431 86 q 413 17 431 35 q 369 0 394 0 m 596 0 q 552 17 569 0 q 535 61 535 35 q 552 104 535 86 q 596 122 569 122 q 639 104 621 122 q 657 61 657 86 q 639 17 657 35 q 596 0 621 0 z "},"!":{"ha":261,"x_min":69,"x_max":192,"o":"m 83 196 l 78 924 l 186 924 l 181 196 l 83 196 m 131 -7 q 87 10 104 -7 q 69 54 69 28 q 87 97 69 79 q 131 115 104 115 q 174 97 156 115 q 192 54 192 79 q 174 10 192 28 q 131 -7 156 -7 z "},"¡":{"ha":261,"x_min":69,"x_max":192,"o":"m 131 700 q 174 683 156 700 q 192 639 192 665 q 174 596 192 614 q 131 578 156 578 q 87 596 104 578 q 69 639 69 614 q 87 683 69 665 q 131 700 104 700 m 186 -231 l 78 -231 l 83 497 l 181 497 l 186 -231 z "},"?":{"ha":707,"x_min":56,"x_max":651,"o":"m 438 354 l 438 211 l 315 211 l 315 413 l 451 529 q 511 600 493 565 q 529 678 529 635 q 478 806 529 751 q 354 857 426 857 q 285 843 318 857 q 229 803 253 829 q 191 740 204 776 q 178 661 178 703 l 56 661 q 78 789 56 729 q 143 892 101 849 q 239 959 185 935 q 354 983 293 983 q 469 960 415 983 q 564 894 522 936 q 628 796 606 851 q 651 678 651 740 q 531 432 651 535 l 438 354 m 376 -7 q 324 15 346 -7 q 303 69 303 38 q 324 124 303 101 q 376 146 346 146 q 430 124 408 146 q 451 69 451 101 q 430 15 451 38 q 376 -7 408 -7 z "},"¿":{"ha":707,"x_min":56,"x_max":651,"o":"m 331 542 q 277 564 299 542 q 256 618 256 586 q 277 672 256 650 q 331 694 299 694 q 383 672 361 694 q 404 618 404 650 q 383 564 404 586 q 331 542 361 542 m 353 -289 q 238 -265 292 -289 q 143 -200 185 -242 q 78 -101 101 -157 q 56 17 56 -46 q 176 263 56 161 l 269 340 l 269 483 l 392 483 l 392 282 l 256 165 q 196 94 214 129 q 178 17 178 60 q 229 -110 178 -58 q 353 -162 282 -162 q 478 -108 431 -162 q 529 33 529 -53 l 651 33 q 628 -94 651 -35 q 564 -197 606 -154 q 468 -265 522 -240 q 353 -289 414 -289 z "},"·":{"ha":261,"x_min":69,"x_max":192,"o":"m 131 367 q 87 384 104 367 q 69 428 69 401 q 87 471 69 453 q 131 489 104 489 q 174 471 156 489 q 192 428 192 453 q 174 384 192 401 q 131 367 156 367 z "},"•":{"ha":507,"x_min":56,"x_max":451,"o":"m 253 219 q 113 276 169 219 q 56 417 56 336 q 71 492 56 456 q 113 557 86 529 q 253 615 171 615 q 329 600 292 615 q 394 557 367 585 q 436 492 421 529 q 451 417 451 456 q 394 276 451 338 q 331 235 368 250 q 253 219 293 219 z "},"*":{"ha":628,"x_min":56,"x_max":572,"o":"m 504 465 l 374 556 l 374 438 l 254 438 l 254 556 l 124 465 l 56 564 l 208 669 l 56 774 l 124 874 l 254 783 l 254 924 l 374 924 l 374 783 l 504 874 l 572 774 l 419 669 l 572 564 l 504 465 z "},"#":{"ha":1063,"x_min":69,"x_max":993,"o":"m 743 249 l 743 0 l 618 0 l 618 249 l 443 249 l 443 0 l 318 0 l 318 249 l 69 249 l 69 374 l 318 374 l 318 549 l 69 549 l 69 674 l 318 674 l 318 924 l 443 924 l 443 674 l 618 674 l 618 924 l 743 924 l 743 674 l 993 674 l 993 549 l 743 549 l 743 374 l 993 374 l 993 249 l 743 249 m 618 549 l 443 549 l 443 374 l 618 374 l 618 549 z "},"/":{"ha":738,"x_min":56,"x_max":682,"o":"m 194 0 l 56 0 l 543 925 l 682 925 l 194 0 z "},"\\":{"ha":738,"x_min":56,"x_max":682,"o":"m 543 0 l 56 925 l 194 925 l 682 0 l 543 0 z "},"(":{"ha":265,"x_min":69,"x_max":224,"o":"m 175 353 q 215 -168 175 100 l 110 -168 q 69 353 69 96 q 117 924 69 635 l 224 924 q 175 353 175 631 z "},")":{"ha":265,"x_min":42,"x_max":196,"o":"m 90 353 q 42 924 90 631 l 149 924 q 196 353 196 635 q 156 -168 196 96 l 50 -168 q 90 353 90 100 z "},"{":{"ha":454,"x_min":69,"x_max":413,"o":"m 213 397 q 189 378 201 386 l 186 375 q 200 364 192 371 q 213 353 208 357 q 239 310 231 335 q 253 254 247 286 q 257 171 257 219 l 257 -21 q 264 -40 257 -32 q 282 -47 271 -47 l 413 -47 l 413 -172 l 282 -172 q 182 -128 224 -172 q 140 -21 140 -83 l 140 175 q 129 267 140 251 q 107 285 122 275 q 69 306 92 294 l 69 446 q 107 467 92 457 q 129 485 122 476 q 140 576 140 500 l 140 772 q 151 831 140 803 q 182 879 163 858 q 282 924 224 924 l 413 924 l 413 799 l 282 799 q 264 791 271 799 q 257 772 257 783 l 257 546 q 240 444 257 499 q 213 397 232 417 z "},"}":{"ha":454,"x_min":42,"x_max":385,"o":"m 325 485 q 347 467 332 476 q 385 446 363 457 l 385 306 q 347 285 363 294 q 325 267 332 275 q 314 175 314 251 l 314 -21 q 272 -128 314 -83 q 172 -172 231 -172 l 42 -172 l 42 -47 l 172 -47 q 190 -40 183 -47 q 197 -21 197 -32 l 197 171 q 201 254 197 219 q 215 310 207 286 q 242 353 224 335 q 254 364 246 357 q 268 375 263 371 l 265 378 q 242 397 253 386 q 214 444 222 417 q 197 546 197 499 l 197 772 q 190 791 197 783 q 172 799 183 799 l 42 799 l 42 924 l 172 924 q 272 879 231 924 q 303 831 292 858 q 314 772 314 803 l 314 576 q 325 485 314 500 z "},"[":{"ha":401,"x_min":69,"x_max":360,"o":"m 69 -178 l 69 922 l 360 922 l 360 797 l 183 797 l 183 -53 l 360 -53 l 360 -178 l 69 -178 z "},"]":{"ha":401,"x_min":42,"x_max":332,"o":"m 42 -178 l 42 -53 l 218 -53 l 218 797 l 42 797 l 42 922 l 332 922 l 332 -178 l 42 -178 z "},"-":{"ha":599,"x_min":56,"x_max":543,"o":"m 56 336 l 56 436 l 543 436 l 543 336 l 56 336 z "},"­":{"ha":599,"x_min":56,"x_max":543,"o":"m 56 336 l 56 436 l 543 436 l 543 336 l 56 336 z "},"–":{"ha":763,"x_min":56,"x_max":707,"o":"m 56 336 l 56 436 l 707 436 l 707 336 l 56 336 z "},"—":{"ha":976,"x_min":56,"x_max":921,"o":"m 56 336 l 56 436 l 921 436 l 921 336 l 56 336 z "},"_":{"ha":717,"x_min":56,"x_max":661,"o":"m 56 -137 l 56 -65 l 661 -65 l 661 -137 l 56 -137 z "},"‚":{"ha":293,"x_min":51,"x_max":243,"o":"m 153 -142 l 51 -142 l 128 149 l 243 149 l 153 -142 z "},"„":{"ha":518,"x_min":56,"x_max":463,"o":"m 168 -142 l 56 -142 l 140 149 l 265 149 l 168 -142 m 365 -142 l 253 -142 l 338 149 l 463 149 l 365 -142 z "},"“":{"ha":463,"x_min":56,"x_max":463,"o":"m 167 665 l 56 956 l 181 956 l 278 665 l 167 665 m 351 665 l 253 956 l 378 956 l 463 665 l 351 665 z "},"”":{"ha":463,"x_min":0,"x_max":407,"o":"m 85 956 l 210 956 l 111 665 l 0 665 l 85 956 m 282 956 l 407 956 l 296 665 l 185 665 l 282 956 z "},"‘":{"ha":247,"x_min":56,"x_max":247,"o":"m 146 665 l 56 956 l 171 956 l 247 665 l 146 665 z "},"’":{"ha":247,"x_min":56,"x_max":247,"o":"m 157 665 l 56 665 l 132 956 l 247 956 l 157 665 z "},"«":{"ha":861,"x_min":56,"x_max":806,"o":"m 321 121 l 56 386 l 308 654 l 476 654 l 228 389 l 493 121 l 321 121 m 633 121 l 368 386 l 619 654 l 789 654 l 539 389 l 806 121 l 633 121 z "},"»":{"ha":861,"x_min":56,"x_max":806,"o":"m 322 389 l 72 654 l 242 654 l 493 386 l 228 121 l 56 121 l 322 389 m 633 389 l 385 654 l 553 654 l 806 386 l 540 121 l 368 121 l 633 389 z "},"‹":{"ha":507,"x_min":50,"x_max":474,"o":"m 306 121 l 50 386 l 293 654 l 457 654 l 215 389 l 474 121 l 306 121 z "},"›":{"ha":507,"x_min":33,"x_max":457,"o":"m 201 121 l 33 121 l 292 389 l 50 654 l 214 654 l 457 386 l 201 121 z "},"\"":{"ha":394,"x_min":56,"x_max":339,"o":"m 163 631 l 64 631 l 56 922 l 171 922 l 163 631 m 331 631 l 232 631 l 224 922 l 339 922 l 331 631 z "},"'":{"ha":226,"x_min":56,"x_max":171,"o":"m 163 631 l 64 631 l 56 922 l 171 922 l 163 631 z "}," ":{"ha":625,"x_min":0,"x_max":0,"o":""},"¢":{"ha":738,"x_min":56,"x_max":682,"o":"m 456 31 l 332 31 l 332 101 q 223 146 274 114 q 135 224 172 178 q 76 327 97 269 q 56 447 56 385 q 76 568 56 510 q 135 672 97 626 q 223 750 172 718 q 332 794 274 782 l 332 867 l 456 867 l 456 799 q 579 753 524 786 q 682 661 635 721 l 574 599 q 403 676 499 676 q 316 659 357 676 q 244 610 275 642 q 196 535 214 578 q 178 447 178 493 q 196 360 178 401 q 244 286 214 318 q 317 236 275 254 q 403 218 358 218 q 574 296 499 218 l 682 233 q 456 97 583 115 l 456 31 z "},"¤":{"ha":814,"x_min":56,"x_max":758,"o":"m 757 86 l 669 -1 l 608 60 q 407 -3 517 -3 q 206 60 301 -3 l 144 -1 l 58 86 l 119 147 q 56 347 56 238 q 119 549 56 458 l 58 610 l 144 697 l 206 636 q 407 699 301 699 q 608 636 517 699 l 669 697 l 757 610 l 696 549 q 758 347 758 457 q 696 147 758 239 l 757 86 m 594 475 q 535 536 565 517 q 407 575 479 575 q 219 475 288 575 q 181 347 181 422 q 281 160 181 228 q 407 121 333 121 q 535 160 479 121 q 594 221 565 179 q 633 347 633 276 q 594 475 633 422 z "},"$":{"ha":765,"x_min":69,"x_max":696,"o":"m 69 276 q 158 81 86 149 q 322 3 221 19 l 322 -78 l 444 -78 l 444 0 q 618 82 549 14 q 676 166 656 118 q 696 267 696 214 q 596 464 696 400 q 444 517 533 501 l 444 796 q 542 728 508 782 q 571 639 564 693 l 692 639 l 694 640 q 625 824 683 749 q 444 921 560 904 l 444 1001 l 322 1001 l 322 921 q 172 850 231 908 q 118 764 136 814 q 100 657 100 714 q 322 404 100 444 l 322 131 q 243 171 279 140 q 194 276 204 208 l 69 276 m 322 532 q 240 582 271 543 q 210 668 210 621 q 238 748 210 713 q 322 794 267 783 l 322 532 m 444 389 q 551 343 526 372 q 576 271 576 310 q 540 181 576 222 q 444 126 503 139 l 444 389 z "},"€":{"ha":825,"x_min":56,"x_max":769,"o":"m 626 -10 q 482 13 551 -10 q 354 79 413 36 q 254 179 297 121 q 188 307 211 238 l 56 307 l 56 432 l 163 432 l 161 460 l 163 489 l 56 489 l 56 614 l 188 614 q 356 842 236 757 q 626 931 478 931 q 769 907 693 931 l 769 775 q 626 804 692 804 q 446 753 528 804 q 322 614 364 701 l 588 614 l 588 489 l 288 489 q 286 456 286 486 q 288 432 286 435 l 588 432 l 588 307 l 322 307 q 446 168 364 219 q 626 117 528 117 q 769 146 692 117 l 769 14 q 626 -10 693 -10 z "},"ƒ":{"ha":486,"x_min":42,"x_max":444,"o":"m 185 694 q 223 814 188 761 q 317 896 258 867 q 444 925 375 925 l 444 806 q 345 776 386 808 q 301 694 304 744 l 301 399 l 406 399 l 406 283 l 301 283 l 301 -12 q 263 -132 299 -79 q 169 -214 228 -185 q 42 -243 111 -243 l 42 -124 q 140 -94 100 -126 q 182 -12 179 -62 l 183 283 l 82 283 l 82 399 l 183 399 l 185 694 z "},"£":{"ha":553,"x_min":56,"x_max":497,"o":"m 56 0 l 56 126 l 142 126 l 142 493 l 74 493 l 74 619 l 142 619 l 142 694 q 161 795 142 747 q 215 881 181 843 q 393 958 289 958 l 497 958 l 497 832 l 394 832 q 300 792 338 832 q 261 694 261 750 l 261 619 l 411 619 l 411 493 l 261 493 l 261 126 l 497 126 l 497 0 l 56 0 z "},"¥":{"ha":796,"x_min":56,"x_max":740,"o":"m 336 331 l 132 331 l 132 457 l 279 457 l 56 924 l 194 924 l 397 499 l 603 924 l 740 924 l 515 457 l 664 457 l 664 331 l 460 331 l 460 257 l 664 257 l 664 131 l 460 131 l 460 0 l 336 0 l 336 131 l 132 131 l 132 257 l 336 257 l 336 331 z "},"∕":{"ha":700,"x_min":42,"x_max":658,"o":"m 153 -144 l 42 -144 l 547 1079 l 658 1079 l 153 -144 z "},"+":{"ha":764,"x_min":56,"x_max":708,"o":"m 443 328 l 443 63 l 321 63 l 321 328 l 56 328 l 56 450 l 321 450 l 321 715 l 443 715 l 443 450 l 708 450 l 708 328 l 443 328 z "},"−":{"ha":763,"x_min":56,"x_max":707,"o":"m 56 329 l 56 451 l 707 451 l 707 329 l 56 329 z "},"×":{"ha":654,"x_min":56,"x_max":599,"o":"m 513 118 l 328 303 l 143 118 l 56 204 l 240 389 l 56 574 l 143 660 l 328 475 l 513 660 l 599 574 l 414 389 l 599 204 l 513 118 z "},"÷":{"ha":763,"x_min":56,"x_max":707,"o":"m 381 504 q 328 526 350 504 q 306 578 306 547 q 328 631 306 610 q 381 653 350 653 q 435 631 413 653 q 457 578 457 610 q 435 526 457 547 q 381 504 413 504 m 56 329 l 56 451 l 707 451 l 707 329 l 56 329 m 381 131 q 328 152 350 131 q 306 206 306 174 q 328 258 306 236 q 381 279 350 279 q 435 258 413 279 q 457 206 457 236 q 435 152 457 174 q 381 131 413 131 z "},"=":{"ha":764,"x_min":56,"x_max":708,"o":"m 56 446 l 56 564 l 708 564 l 708 446 l 56 446 m 56 226 l 56 343 l 708 343 l 708 226 l 56 226 z "},"≠":{"ha":764,"x_min":56,"x_max":708,"o":"m 328 214 l 188 40 l 92 119 l 168 214 l 56 214 l 56 338 l 268 338 l 349 436 l 56 436 l 56 561 l 449 561 l 578 718 l 672 640 l 608 561 l 708 561 l 708 436 l 508 436 l 428 338 l 708 338 l 708 214 l 328 214 z "},">":{"ha":928,"x_min":56,"x_max":872,"o":"m 56 -8 l 56 126 l 675 376 l 56 639 l 56 774 l 872 429 l 872 324 l 56 -8 z "},"<":{"ha":928,"x_min":56,"x_max":872,"o":"m 56 324 l 56 429 l 872 774 l 872 639 l 253 376 l 872 126 l 872 -8 l 56 324 z "},"≥":{"ha":851,"x_min":56,"x_max":796,"o":"m 794 386 l 56 171 l 56 301 l 550 444 l 56 597 l 56 726 l 796 499 l 794 386 m 56 0 l 56 125 l 782 125 l 782 0 l 56 0 z "},"≤":{"ha":851,"x_min":56,"x_max":796,"o":"m 57 386 l 56 499 l 796 726 l 796 597 l 301 444 l 796 301 l 796 171 l 57 386 m 69 0 l 69 125 l 796 125 l 796 0 l 69 0 z "},"±":{"ha":764,"x_min":56,"x_max":708,"o":"m 443 429 l 443 265 l 321 265 l 321 429 l 56 429 l 56 553 l 321 553 l 321 717 l 443 717 l 443 553 l 708 553 l 708 429 l 443 429 m 56 104 l 56 228 l 708 228 l 708 104 l 56 104 z "},"≈":{"ha":867,"x_min":56,"x_max":811,"o":"m 576 406 q 469 425 525 406 q 421 446 446 433 q 386 463 396 458 q 326 492 367 472 q 275 503 297 503 q 218 483 246 503 q 164 413 192 465 l 56 474 q 267 622 143 622 l 271 622 q 367 604 319 622 q 407 588 389 597 q 508 539 482 550 q 568 526 539 526 q 631 543 603 526 q 678 589 660 560 l 783 538 q 576 406 706 406 m 282 388 q 389 368 333 388 q 438 347 413 360 q 472 331 463 335 q 532 301 492 321 q 582 293 557 293 q 660 312 624 293 q 711 360 696 331 l 811 304 q 592 171 732 171 l 588 171 q 492 189 539 171 q 451 206 469 196 q 350 254 376 243 q 292 268 321 268 q 243 251 264 268 q 190 181 221 232 l 83 240 q 282 388 171 388 z "},"~":{"ha":829,"x_min":56,"x_max":774,"o":"m 576 403 q 469 421 529 403 q 386 457 443 431 l 357 471 q 297 490 336 482 q 268 493 278 493 q 164 410 214 493 l 56 467 q 267 604 143 604 l 271 604 q 367 588 317 604 l 406 572 q 508 526 475 539 q 567 514 539 514 q 615 531 594 514 q 668 596 636 547 l 774 540 q 576 403 689 403 z "},"¬":{"ha":807,"x_min":56,"x_max":751,"o":"m 628 150 l 628 344 l 56 344 l 56 461 l 751 463 l 751 150 l 628 150 z "},"^":{"ha":554,"x_min":56,"x_max":499,"o":"m 374 478 l 276 753 l 181 478 l 56 478 l 211 924 l 343 924 l 499 478 l 374 478 z "},"∅":{"ha":1038,"x_min":56,"x_max":982,"o":"m 518 -3 q 350 29 428 -3 l 336 0 l 206 0 l 250 83 q 108 246 160 147 q 56 460 56 344 q 92 639 56 554 q 192 788 128 724 q 340 888 256 851 q 518 924 424 924 q 685 893 606 924 l 703 925 l 832 925 l 786 839 q 929 674 876 774 q 982 460 982 575 q 946 281 982 365 q 846 133 910 197 q 697 33 782 69 q 518 -3 613 -3 m 519 813 q 383 785 447 813 q 271 710 319 758 q 194 596 222 661 q 167 460 167 531 q 203 304 167 376 q 303 182 239 232 l 632 793 q 519 813 574 813 m 404 126 q 519 107 463 107 q 656 135 590 107 q 769 211 721 163 q 845 324 818 260 q 872 460 872 388 q 835 618 872 546 q 732 740 799 690 l 404 126 z "},"∞":{"ha":825,"x_min":56,"x_max":769,"o":"m 413 349 q 343 288 385 308 q 251 268 301 268 q 114 324 172 268 q 71 383 86 349 q 56 456 56 418 q 71 528 56 493 q 113 590 86 564 q 175 630 139 615 q 251 644 211 644 q 342 623 300 644 q 413 563 383 601 l 414 565 q 484 623 442 601 q 572 644 526 644 q 649 630 613 644 q 713 590 685 615 q 755 529 740 564 q 769 456 769 494 q 755 383 769 417 q 713 324 740 349 q 649 283 685 297 q 572 268 613 268 q 482 289 525 268 q 414 346 439 310 l 413 349 m 310 496 q 251 525 289 525 q 200 505 221 525 q 179 456 179 485 q 200 406 179 426 q 251 386 221 386 q 310 415 288 386 l 321 432 l 339 457 l 310 496 m 572 525 q 515 496 536 525 q 506 483 510 490 l 486 457 l 515 415 q 572 386 536 386 q 624 406 603 386 q 644 456 644 426 q 624 505 644 485 q 572 525 603 525 z "},"∫":{"ha":526,"x_min":56,"x_max":471,"o":"m 322 14 q 303 -88 322 -40 q 247 -172 283 -136 q 162 -229 211 -208 q 56 -250 113 -250 l 56 -124 q 162 -84 121 -124 q 203 14 203 -44 l 203 760 q 223 863 203 814 q 279 947 243 911 q 365 1003 315 983 q 471 1024 414 1024 l 471 897 q 364 857 407 897 q 322 760 322 819 l 322 14 z "},"∏":{"ha":801,"x_min":56,"x_max":746,"o":"m 607 796 l 607 1 l 479 1 l 479 796 l 335 796 l 335 1 l 207 1 l 207 796 l 56 796 l 56 925 l 746 925 l 746 796 l 607 796 z "},"∑":{"ha":653,"x_min":56,"x_max":597,"o":"m 56 -6 l 56 107 l 267 461 l 56 817 l 56 931 l 597 931 l 597 804 l 207 804 l 411 460 l 207 121 l 597 121 l 597 -6 l 56 -6 z "},"√":{"ha":803,"x_min":56,"x_max":747,"o":"m 569 800 l 332 0 l 221 0 l 56 390 l 190 390 l 265 211 l 478 925 l 747 925 l 747 800 l 569 800 z "},"∂":{"ha":674,"x_min":56,"x_max":618,"o":"m 96 901 q 208 919 150 919 q 329 893 276 919 q 446 771 411 853 q 468 713 454 751 l 550 474 l 575 399 l 589 361 l 601 322 q 618 224 618 275 q 588 93 618 154 q 522 6 563 42 q 429 -50 482 -31 q 338 -65 383 -65 q 210 -35 267 -65 q 71 129 110 18 q 56 222 56 175 q 86 353 56 293 q 244 496 139 458 q 356 510 294 514 q 411 499 389 507 l 401 528 l 367 635 q 325 738 340 713 q 214 794 290 794 q 146 785 185 794 l 96 901 m 349 386 q 233 346 281 389 q 193 289 208 322 q 178 219 178 256 q 218 115 178 163 q 325 60 263 61 q 388 67 358 57 q 442 99 418 78 q 481 155 467 122 q 494 225 494 188 q 457 331 494 285 q 349 386 414 379 z "},"µ":{"ha":676,"x_min":56,"x_max":607,"o":"m 607 694 l 607 4 l 486 4 l 486 63 q 416 14 458 33 q 332 -6 374 -6 q 178 42 250 -6 l 178 -118 l 56 -118 l 56 694 l 178 694 l 178 274 q 224 164 178 210 q 332 118 269 118 q 390 131 361 118 q 440 164 419 143 q 486 274 486 210 l 486 694 l 607 694 z "},"%":{"ha":1038,"x_min":56,"x_max":982,"o":"m 56 724 q 71 802 56 765 q 114 867 86 839 q 178 910 142 894 q 256 925 215 925 q 333 910 296 925 q 397 867 369 894 q 440 802 425 839 q 456 724 456 765 q 397 583 456 642 q 333 540 369 556 q 256 524 296 524 q 178 540 215 524 q 114 583 142 556 q 56 724 56 642 m 333 0 l 193 0 l 690 925 l 831 925 l 333 0 m 181 724 q 202 669 181 692 q 256 647 224 647 q 310 669 288 647 q 332 724 332 692 q 310 777 332 756 q 256 799 288 799 q 202 777 224 799 q 181 724 181 756 m 581 197 q 596 274 581 238 q 639 339 611 311 q 703 382 667 367 q 781 397 740 397 q 859 382 822 397 q 924 339 896 367 q 967 274 951 311 q 982 197 982 238 q 967 120 982 157 q 924 56 951 83 q 859 13 896 28 q 781 -3 822 -3 q 703 13 740 -3 q 639 56 667 28 q 596 120 611 83 q 581 197 581 157 m 704 197 q 726 144 704 165 q 781 122 749 122 q 834 144 813 122 q 856 197 856 165 q 834 251 856 229 q 781 274 813 274 q 726 251 749 274 q 704 197 704 229 z "},"‰":{"ha":1379,"x_min":56,"x_max":1324,"o":"m 56 724 q 72 801 56 764 q 115 867 88 839 q 180 910 143 894 q 257 925 217 925 q 336 910 299 925 q 401 867 374 894 q 444 802 429 839 q 460 724 460 765 q 401 583 460 642 q 335 540 374 556 q 257 524 297 524 q 180 540 217 524 q 115 583 143 556 q 56 724 56 643 m 289 0 l 147 0 l 649 925 l 792 925 l 289 0 m 181 724 q 203 669 181 692 q 257 647 225 647 q 311 669 289 647 q 333 724 333 692 q 311 777 333 756 q 257 799 289 799 q 203 777 225 799 q 181 724 181 756 m 668 -3 q 590 13 626 -3 q 525 56 553 28 q 481 120 497 83 q 465 197 465 157 q 481 274 465 238 q 525 339 497 311 q 590 382 553 367 q 668 397 626 397 q 811 339 750 397 q 856 275 840 311 q 871 197 871 239 q 856 119 871 156 q 811 56 840 83 q 668 -3 750 -3 m 918 197 q 934 274 918 238 q 978 339 950 311 q 1042 382 1006 367 q 1121 397 1079 397 q 1264 339 1203 397 q 1308 275 1293 311 q 1324 197 1324 239 q 1308 119 1324 156 q 1264 56 1293 83 q 1121 -3 1203 -3 q 1042 13 1079 -3 q 978 56 1006 28 q 934 120 950 83 q 918 197 918 157 m 668 274 q 614 251 636 274 q 592 197 592 229 q 614 144 592 165 q 668 122 636 122 q 722 144 700 122 q 744 197 744 165 q 722 251 744 229 q 668 274 700 274 m 1044 197 q 1067 144 1044 165 q 1121 122 1089 122 q 1175 144 1153 122 q 1197 197 1197 165 q 1175 251 1197 229 q 1121 274 1153 274 q 1067 251 1089 274 q 1044 197 1044 229 z "},"◊":{"ha":543,"x_min":56,"x_max":488,"o":"m 338 0 l 206 0 l 56 446 l 206 890 l 338 890 l 488 446 l 338 0 m 272 714 l 182 446 l 272 176 l 363 446 l 272 714 z "},"@":{"ha":1042,"x_min":56,"x_max":986,"o":"m 56 461 q 92 640 56 556 q 193 790 128 725 q 342 890 257 854 q 521 926 426 926 q 700 890 615 926 q 850 790 785 854 q 950 640 914 725 q 986 461 986 556 q 964 295 986 364 q 893 182 942 226 q 830 143 867 157 q 757 129 793 129 q 689 143 718 129 q 633 189 653 158 q 613 258 613 219 l 613 274 q 497 242 561 242 q 412 259 453 242 q 340 307 371 276 q 292 377 310 336 q 275 464 275 418 q 292 549 275 508 q 340 621 310 590 q 412 668 371 651 q 497 685 453 685 q 613 653 560 685 l 613 685 l 738 685 l 738 258 q 756 256 746 256 q 808 274 786 256 q 861 461 861 324 q 835 592 861 531 q 761 701 808 654 q 652 774 714 749 q 521 800 590 800 q 390 774 451 800 q 281 701 328 749 q 208 592 233 654 q 182 461 182 531 q 208 330 182 392 q 281 221 233 268 q 390 147 328 174 q 521 121 451 121 q 611 133 561 121 l 611 4 q 521 -4 571 -4 q 342 32 426 -4 q 193 133 257 68 q 92 282 128 197 q 56 461 56 367 m 401 464 q 429 395 401 424 q 497 367 457 367 q 566 395 538 367 q 594 464 594 424 q 566 532 594 504 q 497 560 538 560 q 429 532 457 560 q 401 464 401 504 z "},"&":{"ha":753,"x_min":56,"x_max":697,"o":"m 519 39 q 371 -6 457 -6 q 225 31 294 -6 q 111 138 156 68 q 56 314 56 221 q 61 369 56 333 q 97 472 71 425 q 164 551 124 518 l 147 576 q 107 682 107 632 q 125 776 107 731 q 176 854 143 821 q 253 906 210 888 q 344 925 297 925 q 514 851 443 925 q 565 768 547 817 q 583 665 583 719 l 461 665 q 428 763 461 726 q 344 800 394 800 q 265 769 299 800 q 231 697 231 738 q 247 647 231 672 l 536 231 q 549 304 549 267 l 549 353 l 671 353 l 671 307 q 614 119 671 199 l 697 0 l 546 0 l 519 39 m 235 450 q 194 390 210 425 q 179 317 179 356 q 214 207 179 260 q 324 126 254 144 q 374 119 351 119 q 450 139 417 119 l 235 450 z "},"¶":{"ha":711,"x_min":56,"x_max":642,"o":"m 325 0 l 325 471 l 276 471 q 192 489 232 471 q 121 538 151 507 q 73 610 90 568 q 56 699 56 653 q 73 785 56 744 q 121 857 90 826 q 192 906 151 888 q 276 924 232 924 l 447 924 l 447 0 l 325 0 m 519 0 l 519 924 l 642 924 l 642 0 l 519 0 z "},"§":{"ha":597,"x_min":56,"x_max":542,"o":"m 56 464 q 96 588 56 531 q 56 714 56 640 q 76 809 56 764 q 132 882 96 854 q 299 929 196 929 q 432 896 375 929 q 501 826 472 871 q 525 777 517 803 q 539 715 533 751 l 414 715 q 399 758 410 735 q 361 793 385 782 q 300 804 338 804 q 196 774 226 804 q 178 725 178 751 q 176 710 176 719 q 193 661 176 682 l 206 650 q 271 633 225 633 q 450 600 388 633 q 542 425 542 550 q 501 301 542 357 q 540 179 540 253 q 539 147 540 158 q 465 8 528 56 q 299 -40 403 -40 q 167 -6 224 -40 q 96 63 124 19 q 72 111 81 86 q 58 172 64 136 l 182 172 q 199 131 186 150 q 297 85 226 85 q 399 115 368 85 q 419 164 417 133 q 403 228 424 200 l 392 239 q 326 256 374 256 q 147 289 210 256 q 56 464 56 339 m 178 464 q 208 397 178 413 q 326 381 238 381 q 400 371 371 381 q 419 425 419 394 q 389 493 419 476 q 271 508 358 508 q 197 518 226 508 q 178 464 178 494 z "},"©":{"ha":1042,"x_min":56,"x_max":986,"o":"m 521 -6 q 342 31 426 -6 q 193 131 257 67 q 92 280 128 194 q 56 460 56 365 q 92 639 56 554 q 193 789 128 724 q 342 889 257 853 q 521 925 426 925 q 700 889 615 925 q 850 789 785 853 q 950 639 914 724 q 986 460 986 554 q 950 280 986 365 q 850 131 914 194 q 701 31 786 67 q 521 -6 615 -6 m 521 799 q 391 772 453 799 q 282 699 329 746 q 208 590 235 651 q 182 460 182 528 q 208 328 182 390 q 282 219 235 267 q 391 146 329 172 q 521 119 453 119 q 652 146 590 119 q 761 219 714 172 q 835 328 808 267 q 861 460 861 390 q 835 590 861 528 q 761 699 808 651 q 652 772 714 746 q 521 799 590 799 m 533 211 q 438 231 483 211 q 356 285 392 250 q 301 365 321 319 q 282 463 282 411 q 301 560 282 514 q 356 640 321 606 q 438 694 392 675 q 533 713 483 713 q 735 611 651 713 l 644 533 q 592 579 618 565 q 533 593 565 593 q 442 556 482 593 q 403 463 403 517 q 442 369 403 408 q 533 331 483 331 q 592 344 565 331 q 644 390 618 358 l 735 313 q 533 211 651 211 z "},"®":{"ha":750,"x_min":56,"x_max":694,"o":"m 375 290 q 252 315 310 290 q 150 385 194 340 q 81 487 106 429 q 56 610 56 544 q 81 733 56 674 q 150 836 106 792 q 252 905 194 881 q 375 929 310 929 q 499 905 440 929 q 601 836 557 881 q 670 733 646 792 q 694 610 694 675 q 670 487 694 544 q 601 385 646 429 q 499 315 557 340 q 375 290 440 290 m 375 832 q 290 815 331 832 q 218 767 249 797 q 170 695 188 736 q 153 610 153 654 q 170 523 153 564 q 218 453 188 482 q 290 404 249 422 q 375 386 331 386 q 460 404 419 386 q 532 453 501 422 q 580 523 563 482 q 597 610 597 564 q 580 695 597 654 q 532 767 563 736 q 460 815 501 797 q 375 832 419 832 m 407 474 l 357 533 l 357 474 l 285 474 l 285 775 l 378 775 q 457 743 422 775 q 481 708 472 728 q 489 665 489 688 q 474 608 489 633 q 433 568 458 582 l 517 474 l 407 474 m 357 704 l 357 624 l 376 624 q 407 635 396 624 q 418 665 418 646 q 407 693 418 682 q 376 704 396 704 l 357 704 z "},"™":{"ha":685,"x_min":56,"x_max":629,"o":"m 196 844 l 196 624 l 113 624 l 113 844 l 56 844 l 56 924 l 253 924 l 253 844 l 196 844 m 547 624 l 547 785 l 493 717 l 431 717 l 376 785 l 376 624 l 293 624 l 293 924 l 369 924 l 463 810 l 553 924 l 629 924 l 629 624 l 547 624 z "},"°":{"ha":493,"x_min":56,"x_max":438,"o":"m 246 594 q 111 650 167 594 q 56 785 56 706 q 70 858 56 824 q 111 919 85 893 q 246 975 167 975 q 320 960 285 975 q 382 919 356 946 q 423 858 408 893 q 438 785 438 822 q 382 650 438 708 q 320 609 356 624 q 246 594 285 594 m 246 882 q 177 853 206 882 q 149 785 149 825 q 177 716 149 744 q 246 688 206 688 q 315 716 286 688 q 343 785 343 744 q 315 853 343 825 q 246 882 286 882 z "},"|":{"ha":258,"x_min":69,"x_max":189,"o":"m 69 0 l 69 924 l 189 924 l 189 0 l 69 0 z "},"¦":{"ha":258,"x_min":69,"x_max":189,"o":"m 69 539 l 69 925 l 189 925 l 189 539 l 69 539 m 69 0 l 69 386 l 189 386 l 189 0 l 69 0 z "},"†":{"ha":515,"x_min":56,"x_max":460,"o":"m 319 603 l 319 260 l 194 260 l 194 603 l 56 603 l 56 731 l 194 731 l 194 924 l 319 924 l 319 731 l 460 731 l 460 603 l 319 603 z "},"‡":{"ha":515,"x_min":56,"x_max":460,"o":"m 319 400 l 319 260 l 194 260 l 194 400 l 56 400 l 56 528 l 194 528 l 194 617 l 56 617 l 56 744 l 194 744 l 194 924 l 319 924 l 319 744 l 460 744 l 460 617 l 319 617 l 319 528 l 460 528 l 460 400 l 319 400 z "},"̈":{"ha":0,"x_min":-361,"x_max":0,"o":"m -300 757 q -344 774 -326 757 q -361 818 -361 792 q -344 861 -361 843 q -300 879 -326 879 q -257 861 -275 879 q -239 818 -239 843 q -257 774 -239 792 q -300 757 -275 757 m -61 757 q -105 774 -87 757 q -122 818 -122 792 q -105 861 -122 843 q -61 879 -87 879 q -18 861 -36 879 q 0 818 0 843 q -18 774 0 792 q -61 757 -36 757 z "},"̇":{"ha":0,"x_min":-122,"x_max":0,"o":"m -61 786 q -105 803 -87 786 q -122 847 -122 821 q -105 890 -122 872 q -61 908 -87 908 q -18 890 -36 908 q 0 847 0 872 q -18 803 0 821 q -61 786 -36 786 z "},"̀":{"ha":0,"x_min":-160,"x_max":0,"o":"m 0 763 l -93 763 l -160 954 l -50 954 l 0 763 z "},"́":{"ha":0,"x_min":-160,"x_max":0,"o":"m -67 763 l -160 763 l -108 954 l 0 954 l -67 763 z "},"̋":{"ha":0,"x_min":-353,"x_max":0,"o":"m -264 761 l -353 761 l -307 954 l -201 954 l -264 761 m -74 761 l -162 761 l -106 954 l 0 954 l -74 761 z "},"̂":{"ha":0,"x_min":-361,"x_max":0,"o":"m -178 826 l -249 757 l -361 757 l -176 939 l 0 757 l -110 757 l -178 826 z "},"̌":{"ha":0,"x_min":-361,"x_max":0,"o":"m 0 939 l -176 757 l -361 939 l -249 939 l -178 869 l -110 939 l 0 939 z "},"̆":{"ha":0,"x_min":-362,"x_max":0,"o":"m -82 808 q -181 781 -126 781 q -267 801 -226 781 q -333 856 -307 821 q -362 940 -357 890 l -276 940 q -249 886 -267 904 q -200 861 -232 868 q -182 860 -194 860 q -129 875 -154 860 q -87 940 -94 896 l 0 940 q -82 808 -10 851 z "},"̊":{"ha":0,"x_min":-251,"x_max":0,"o":"m -56 779 q -125 758 -89 758 q -231 815 -190 758 q -251 885 -251 849 q -236 943 -251 915 q -194 989 -221 971 q -122 1010 -164 1010 q -100 1008 -107 1010 q -21 954 -49 997 q 0 882 0 921 q -1 860 0 867 q -21 814 -7 835 q -56 779 -35 793 m -125 943 q -165 931 -149 943 q -182 897 -181 918 q -183 886 -183 893 q -166 846 -183 864 q -125 828 -149 828 q -85 845 -103 828 q -67 885 -67 863 q -84 925 -67 907 q -125 943 -101 943 z "},"̃":{"ha":0,"x_min":-428,"x_max":0,"o":"m 0 835 q -62 763 -31 786 q -132 740 -94 740 q -178 749 -156 740 q -231 772 -201 757 q -272 791 -256 785 q -306 799 -289 797 q -360 753 -333 799 l -365 740 l -428 797 q -390 846 -412 825 q -307 883 -354 883 q -255 875 -279 883 q -194 849 -231 867 q -153 830 -168 835 q -126 826 -139 825 q -92 842 -107 828 q -54 886 -76 856 l 0 835 z "},"̄":{"ha":0,"x_min":-389,"x_max":0,"o":"m -389 785 l -389 861 l 0 861 l 0 785 l -389 785 z "},"̒":{"ha":0,"x_min":-160,"x_max":-1,"o":"m -69 792 l -160 792 l -103 972 l -1 972 l -69 792 z "},"̦":{"ha":0,"x_min":-164,"x_max":0,"o":"m -71 -276 l -164 -276 l -111 -50 l 0 -50 l -71 -276 z "},"̧":{"ha":0,"x_min":-214,"x_max":0,"o":"m -124 -285 q -214 -246 -167 -285 l -160 -185 q -142 -197 -146 -196 q -124 -203 -132 -203 q -92 -189 -106 -203 q -79 -156 -79 -175 q -92 -122 -79 -136 q -124 -108 -106 -108 q -150 -115 -131 -108 l -178 -46 l -156 14 l -71 14 l -90 -32 q -24 -80 -49 -47 q 0 -156 0 -112 q -36 -247 0 -208 q -76 -274 -53 -264 q -124 -285 -99 -285 z "},"̨":{"ha":0,"x_min":-242,"x_max":0,"o":"m -111 -282 q -143 -279 -126 -282 q -187 -257 -167 -274 q -221 -219 -208 -240 q -242 -149 -242 -186 q -239 -122 -242 -139 q -158 -22 -224 -47 l -157 3 l -76 3 l -78 -99 q -103 -97 -86 -97 q -139 -106 -125 -97 q -158 -139 -153 -115 q -160 -151 -160 -143 q -147 -184 -160 -172 q -114 -196 -133 -196 q -61 -171 -85 -196 l 0 -228 q -100 -282 -46 -281 l -111 -282 z "},"̵":{"ha":0,"x_min":-590,"x_max":0,"o":"m -590 344 l -590 428 l 0 428 l 0 344 l -590 344 z "},"̷":{"ha":0,"x_min":-529,"x_max":0,"o":"m -415 -14 l -529 -14 l -114 758 l 0 758 l -415 -14 z "},"̸":{"ha":0,"x_min":-599,"x_max":0,"o":"m -487 0 l -599 0 l -111 925 l 0 925 l -487 0 z "},"´":{"ha":833,"x_min":0,"x_max":160,"o":"m 93 763 l 0 763 l 51 954 l 160 954 l 93 763 z "},"˘":{"ha":833,"x_min":0,"x_max":363,"o":"m 281 808 q 182 781 236 781 q 96 801 136 781 q 29 856 56 821 q 0 940 6 890 l 86 940 q 113 886 96 904 q 163 861 131 868 q 181 860 168 860 q 233 875 208 860 q 275 940 268 896 l 363 940 q 281 808 353 851 z "},"ˇ":{"ha":833,"x_min":0,"x_max":361,"o":"m 361 939 l 185 757 l 0 939 l 113 939 l 183 869 l 251 939 l 361 939 z "},"¸":{"ha":833,"x_min":0,"x_max":214,"o":"m 90 -285 q 0 -246 47 -285 l 54 -185 q 72 -197 68 -196 q 90 -203 82 -203 q 122 -189 108 -203 q 135 -156 135 -175 q 122 -122 135 -136 q 90 -108 108 -108 q 64 -115 83 -108 l 36 -46 l 58 14 l 143 14 l 124 -32 q 190 -80 165 -47 q 214 -156 214 -112 q 178 -247 214 -208 q 138 -274 161 -264 q 90 -285 115 -285 z "},"ˆ":{"ha":833,"x_min":0,"x_max":361,"o":"m 183 826 l 113 757 l 0 757 l 185 939 l 361 757 l 251 757 l 183 826 z "},"¨":{"ha":833,"x_min":0,"x_max":361,"o":"m 61 757 q 17 774 35 757 q 0 818 0 792 q 17 861 0 843 q 61 879 35 879 q 104 861 86 879 q 122 818 122 843 q 104 774 122 792 q 61 757 86 757 m 300 757 q 256 774 274 757 q 239 818 239 792 q 256 861 239 843 q 300 879 274 879 q 343 861 325 879 q 361 818 361 843 q 343 774 361 792 q 300 757 325 757 z "},"˙":{"ha":833,"x_min":0,"x_max":122,"o":"m 61 786 q 17 803 35 786 q 0 847 0 821 q 17 890 0 872 q 61 908 35 908 q 104 890 86 908 q 122 847 122 872 q 104 803 122 821 q 61 786 86 786 z "},"`":{"ha":833,"x_min":0,"x_max":160,"o":"m 160 763 l 67 763 l 0 954 l 110 954 l 160 763 z "},"˝":{"ha":833,"x_min":0,"x_max":353,"o":"m 89 761 l 0 761 l 46 954 l 151 954 l 89 761 m 279 761 l 190 761 l 247 954 l 353 954 l 279 761 z "},"¯":{"ha":833,"x_min":0,"x_max":389,"o":"m 0 785 l 0 861 l 389 861 l 389 785 l 0 785 z "},"˛":{"ha":833,"x_min":0,"x_max":242,"o":"m 131 -282 q 99 -279 115 -282 q 54 -257 75 -274 q 21 -219 33 -240 q 0 -149 0 -186 q 3 -122 0 -139 q 83 -22 18 -47 l 85 3 l 165 3 l 164 -99 q 139 -97 156 -97 q 103 -106 117 -97 q 83 -139 89 -115 q 82 -151 82 -143 q 95 -184 82 -172 q 128 -196 108 -196 q 181 -171 157 -196 l 242 -228 q 142 -282 196 -281 l 131 -282 z "},"˚":{"ha":833,"x_min":0,"x_max":251,"o":"m 196 779 q 126 758 163 758 q 21 815 61 758 q 0 885 0 849 q 15 943 0 915 q 57 989 31 971 q 129 1010 88 1010 q 151 1008 144 1010 q 231 954 203 997 q 251 882 251 921 q 250 860 251 867 q 231 814 244 835 q 196 779 217 793 m 126 943 q 87 931 103 943 q 69 897 71 918 q 68 886 68 893 q 85 846 68 864 q 126 828 103 828 q 167 845 149 828 q 185 885 185 863 q 167 925 185 907 q 126 943 150 943 z "},"˜":{"ha":833,"x_min":0,"x_max":428,"o":"m 428 835 q 365 763 397 786 q 296 740 333 740 q 249 749 272 740 q 197 772 226 757 q 156 791 172 785 q 122 799 139 797 q 68 753 94 799 l 63 740 l 0 797 q 38 846 15 825 q 121 883 74 883 q 173 875 149 883 q 233 849 197 867 q 274 830 260 835 q 301 826 289 825 q 336 842 321 828 q 374 886 351 856 l 428 835 z "}}}
